<!-- Generated by IcoMoon.io -->
<svg version="1.1" xmlns="http://www.w3.org/2000/svg" width="37" height="32" viewBox="0 0 37 32">
<title>qt-top</title>
<path fill="#fff" d="M17.060 32h-17.060v-13.137c0-4.838 1.007-8.656 3.022-11.453 2.008-2.797 5.461-5.269 10.353-7.41l3.685 6.979c-3.009 1.412-5.084 2.817-6.237 4.215s-1.79 3.056-1.922 4.964h8.159v15.841zM36.944 32h-17.060v-13.137c0-4.838 1.007-8.656 3.022-11.453 2.008-2.797 5.461-5.269 10.346-7.41l3.685 6.979c-3.009 1.412-5.084 2.817-6.237 4.215s-1.79 3.056-1.922 4.964h8.159v15.841z"></path>
</svg>
