<?xml version="1.0" encoding="utf-8"?>
<!-- Generator: Adobe Illustrator 27.0.0, SVG Export Plug-In . SVG Version: 6.00 Build 0)  -->
<svg version="1.1" id="Layer_1" xmlns="http://www.w3.org/2000/svg" xmlns:xlink="http://www.w3.org/1999/xlink" x="0px" y="0px"
	 viewBox="0 0 177.24 221.94" style="enable-background:new 0 0 177.24 221.94;" xml:space="preserve">
<style type="text/css">
	.st0{fill:#FFFFFF;}
	.st1{fill:#C7E2F6;}
	.st2{fill:#3861AA;}
	.st3{fill:#9DC6E9;}
	.st4{fill:#FFFFFF;stroke:#F0C51D;stroke-width:5.669;stroke-miterlimit:10;}
</style>
<rect id="borderblocker" x="31.23" class="st0" width="126.34" height="77.86"/>
<path class="st1" d="M95.45,176.92c0,24.87-20.16,45.02-45.02,45.02c-24.86,0-45.02-20.16-45.02-45.02
	c0-24.86,20.16-45.02,45.02-45.02C75.29,131.89,95.45,152.05,95.45,176.92"/>
<path class="st2" d="M68.17,171.28c-3.66,0-7.1-1.43-9.69-4.01c-2.59-2.59-4.01-6.03-4.01-9.69l4.42,0c0,2.48,0.96,4.81,2.72,6.57
	c1.75,1.75,4.09,2.72,6.57,2.72c5.12,0,9.28-4.16,9.28-9.28v-53.9h4.42v53.9C81.87,165.14,75.72,171.28,68.17,171.28"/>
<path class="st1" d="M143.72,193.05c0,15.42-12.5,27.92-27.92,27.92c-15.42,0-27.91-12.5-27.91-27.92
	c0-15.42,12.5-27.91,27.91-27.91C131.22,165.14,143.72,177.64,143.72,193.05"/>
<path class="st1" d="M145.03,146.12c0,4.96-4.02,8.98-8.98,8.98c-4.96,0-8.97-4.02-8.97-8.98c0-4.96,4.02-8.97,8.97-8.97
	C141.01,137.14,145.03,141.16,145.03,146.12"/>
<path class="st1" d="M162.61,181.11c0,8.82-7.15,15.97-15.97,15.97c-8.82,0-15.97-7.15-15.97-15.97c0-8.82,7.15-15.97,15.97-15.97
	C155.46,165.14,162.61,172.29,162.61,181.11"/>
<path class="st2" d="M69.81,98.34l-0.68-1.09c-3-4.76-4.58-10.26-4.58-15.89c0-9.08,4.07-17.56,11.15-23.27l3.22-2.59l3.71,42.4
	l-2.35,0.06c-3.45,0.09-6.46,0.2-9.19,0.32L69.81,98.34z M75.28,64.58c-4.06,4.61-6.32,10.53-6.32,16.78
	c0,4.38,1.12,8.66,3.26,12.45c1.74-0.07,3.6-0.14,5.61-0.2L75.28,64.58z"/>
<path class="st2" d="M120.15,98.34l-1.28-0.06c-3.26-0.15-6.72-0.26-10.3-0.35l-2.35-0.06l3.76-42.95l3.16,2.3
	c7.69,5.61,12.29,14.63,12.29,24.13c0,5.64-1.59,11.13-4.58,15.89L120.15,98.34z M111.02,93.57c2.3,0.07,4.55,0.15,6.72,0.24
	c2.13-3.79,3.26-8.07,3.26-12.45c0-6.71-2.69-13.14-7.34-17.87L111.02,93.57z"/>
<path class="st2" d="M111.01,86.81H77.79l-3.62-41.38C72.77,29.6,80.05,14.15,93.14,5.1l1.26-0.87l1.26,0.87
	c13.09,9.05,20.37,24.5,18.98,40.33L111.01,86.81z M81.83,82.39h25.13l3.27-37.35c1.2-13.74-4.84-27.16-15.84-35.41
	c-11,8.25-17.04,21.67-15.84,35.41L81.83,82.39z"/>
<path class="st2" d="M94.4,119.19c-1.39,0-1.77-0.72-3.05-3.1c-0.46-0.85-1.37-2.57-2.35-4.62c-3.53-7.35-3.53-9.48-3.53-10.18
	c0-4.93,4.01-8.93,8.93-8.93c4.93,0,8.93,4.01,8.93,8.93c0,3.82-5.11,13.34-6.72,16.26v1.64L94.4,119.19z M94.4,96.77
	c-2.49,0-4.52,2.03-4.52,4.52c0,1.82,2.6,7.39,4.49,11.09c2.88-5.53,4.54-9.81,4.54-11.09C98.91,98.8,96.89,96.77,94.4,96.77"/>
<path class="st2" d="M111.73,24.74l-4.54-0.85c-8.33-1.57-17.25-1.57-25.59,0l-4.54,0.85l2.18-4.07c3.33-6.21,8.14-11.6,13.9-15.58
	l1.26-0.87l1.26,0.87c5.76,3.98,10.56,9.36,13.89,15.58L111.73,24.74z M94.4,9.63C91,12.19,88,15.3,85.56,18.81
	c5.83-0.7,11.84-0.7,17.67,0C100.79,15.3,97.8,12.19,94.4,9.63"/>
<path class="st1" d="M103.86,37.27c0,5.23-4.24,9.47-9.47,9.47c-5.23,0-9.47-4.24-9.47-9.47c0-5.23,4.24-9.46,9.47-9.46
	C99.62,27.81,103.86,32.04,103.86,37.27"/>
<rect x="78.12" y="73.42" class="st2" width="32.55" height="4.42"/>
<rect x="146.68" y="76.55" class="st2" width="4.62" height="4.42"/>
<rect x="128.1" y="31.27" class="st2" width="4.62" height="4.42"/>
<rect x="43.07" y="53.36" class="st2" width="4.62" height="4.42"/>
<rect x="42.87" y="113" class="st2" width="4.62" height="4.42"/>
<rect y="131.77" class="st2" width="4.62" height="4.42"/>
<rect x="117.16" y="111.14" class="st2" width="4.42" height="51.54"/>
<rect x="68.13" y="118.82" transform="matrix(1 -7.300219e-03 7.300219e-03 1 -0.975 0.517)" class="st2" width="4.42" height="30.01"/>
<path class="st2" d="M50.24,217.25c-22.71,0-41.18-18.48-41.18-41.19h4.42c0,20.28,16.49,36.78,36.76,36.78
	c20.25,0,36.73-16.5,36.73-36.78v-50.7h4.42v50.7C91.38,198.77,72.92,217.25,50.24,217.25"/>
<path class="st2" d="M50.06,206.79c-1.37,0-2.75-0.08-4.14-0.26c-17.93-2.25-30.69-18.66-28.44-36.59
	c1.09-8.68,5.49-16.43,12.4-21.8c6.91-5.37,15.5-7.73,24.18-6.64l-0.55,4.38c-7.51-0.94-14.94,1.1-20.92,5.75
	c-5.98,4.65-9.79,11.34-10.73,18.86c-1.94,15.51,9.1,29.71,24.61,31.66c7.52,0.94,14.95-1.1,20.93-5.75
	c5.98-4.65,9.79-11.35,10.73-18.86l4.38,0.55c-1.09,8.69-5.49,16.43-12.4,21.8C64.3,204.4,57.3,206.79,50.06,206.79"/>
<path class="st2" d="M49.78,196.19c-0.84,0-1.68-0.05-2.54-0.16c-5.39-0.67-10.19-3.41-13.52-7.69c-3.33-4.29-4.8-9.62-4.12-15
	l4.38,0.55c-0.53,4.22,0.62,8.39,3.23,11.74c2.61,3.35,6.37,5.49,10.58,6.02c8.71,1.09,16.68-5.11,17.77-13.81l4.38,0.55
	C68.65,188.65,59.87,196.19,49.78,196.19"/>
<path class="st2" d="M118.72,204.35c-6.75,0-12.24-5.49-12.24-12.24v-88.42h4.42v88.42c0,4.32,3.51,7.83,7.82,7.83
	c2.09,0,4.06-0.81,5.54-2.29c1.48-1.48,2.29-3.44,2.29-5.53l4.42,0c0,3.27-1.27,6.35-3.58,8.66
	C125.07,203.07,121.99,204.35,118.72,204.35"/>
<rect x="96.38" y="133.68" class="st2" width="4.42" height="53.62"/>
<path class="st2" d="M118.32,214.03c-2.21,0-4.42-0.35-6.58-1.04c-5.42-1.75-9.84-5.51-12.43-10.58l3.93-2.01
	c2.06,4.02,5.55,7,9.85,8.39c4.3,1.39,8.88,1.02,12.9-1.04c4.02-2.06,7-5.55,8.39-9.85c1.39-4.3,1.02-8.88-1.04-12.9
	c-3.08-6.02-9.44-9.62-16.19-9.17l-0.29-4.41c8.51-0.57,16.53,3.97,20.41,11.57c2.59,5.07,3.06,10.85,1.31,16.27
	c-1.75,5.42-5.51,9.84-10.58,12.43C124.96,213.24,121.65,214.03,118.32,214.03"/>
<polygon class="st2" points="161.96,159.19 157.55,159.19 157.55,122.94 167.32,122.94 150.64,104.39 133.95,122.94 141.52,122.94 
	141.52,127.35 124.04,127.35 150.64,97.78 177.24,127.35 161.96,127.35 "/>
<polygon class="st3" points="13.23,96.44 10.1,93.32 23.19,80.24 36.28,93.32 33.15,96.44 23.19,86.48 "/>
<rect x="20.98" y="83.36" class="st3" width="4.42" height="48.41"/>
<path class="st4" d="M155.77,42.92"/>
</svg>
