<?xml version="1.0" standalone="no"?>
<!DOCTYPE svg PUBLIC "-//W3C//DTD SVG 1.1//EN" "http://www.w3.org/Graphics/SVG/1.1/DTD/svg11.dtd" >
<svg xmlns="http://www.w3.org/2000/svg" xmlns:xlink="http://www.w3.org/1999/xlink" version="1.1">
<metadata>
Created by FontForge 20170731 at Wed Dec 14 16:51:56 2016
 By Aleksey,,,
Copyright 2013 The Gabriela Project Authors (edu@tipo.net.ar), with Reserved Font Name "Gabriela".
</metadata>
<defs>
<font id="Gabriela-Regular" horiz-adv-x="0" >
  <font-face 
    font-family="Gabriela"
    font-weight="400"
    font-stretch="normal"
    units-per-em="1000"
    panose-1="0 0 5 0 0 0 0 0 0 0"
    ascent="800"
    descent="-200"
    x-height="510"
    cap-height="718"
    bbox="-468 -295 1302 986"
    underline-thickness="50"
    underline-position="-150"
    unicode-range="U+000D-FB02"
  />
<missing-glyph horiz-adv-x="292" 
 />
    <glyph glyph-name=".notdef" horiz-adv-x="292" 
 />
    <glyph glyph-name=".null" 
 />
    <glyph glyph-name="nonmarkingreturn" unicode="&#xd;" horiz-adv-x="275" 
 />
    <glyph glyph-name="NULL" 
 />
    <glyph glyph-name="NULL" 
 />
    <glyph glyph-name="space" unicode=" " horiz-adv-x="275" 
 />
    <glyph glyph-name="exclam" unicode="!" horiz-adv-x="246" 
d="M186 742q0 -57 -11 -198t-27 -301q-5 -45 -25 -45t-25 45q-16 160 -27 301t-11 198q22 25 63 25q39 0 63 -25zM83.5 93.5q21.5 23.5 39.5 23.5q19 0 41 -23t22 -43q0 -19 -22 -42t-41 -23q-17 0 -39 23t-22 42t21.5 42.5z" />
    <glyph glyph-name="quotedbl" unicode="&#x22;" horiz-adv-x="343" 
d="M140 804q0 -30 -8.5 -92t-22.5 -121q-5 -19 -20 -19t-20 19q-13 53 -22 116.5t-9 96.5q18 30 51 30t51 -30zM305 804q0 -30 -8.5 -92t-22.5 -121q-5 -19 -20 -19t-20 19q-13 53 -22 116.5t-9 96.5q18 30 51 30t51 -30z" />
    <glyph glyph-name="numbersign" unicode="#" horiz-adv-x="696" 
d="M124 490h100l63 228h72l-63 -228h178l63 228h72l-63 -228h100l-19 -66h-100l-37 -134h100l-19 -66h-100l-62 -224h-71l62 224h-179l-62 -224h-71l62 224h-100l18 66h100l37 134h-99zM240 290h178l37 134h-178z" />
    <glyph glyph-name="dollar" unicode="$" horiz-adv-x="581" 
d="M372 86.5q36 30.5 36 82.5q0 35 -19.5 59.5t-48 41t-78.5 38.5q-63 28 -102 52t-66.5 65.5t-27.5 103.5q0 45 20.5 86.5t63 69.5t103.5 32v131q10 12 27.5 18t35.5 6v-157q70 -8 116 -43t46 -91q0 -46 -31 -76t-76 -30q-12 0 -16.5 2t-4.5 10q0 3 8.5 16t15 30t6.5 40
q0 42 -31 65.5t-72 23.5q-56 0 -86 -32t-30 -75q0 -46 22 -76.5t55 -49.5t88 -43q61 -26 97 -47.5t61 -59t25 -93.5q0 -75 -53 -126t-140 -59v-130q-9 -12 -26.5 -18t-36.5 -6v154q-85 7 -142 49t-57 112q0 47 30.5 76.5t76.5 29.5q13 0 17 -2t4 -10q0 -3 -8.5 -16t-15 -30
t-6.5 -40q0 -53 39.5 -83.5t94.5 -30.5q50 0 86 30.5z" />
    <glyph glyph-name="percent" unicode="%" horiz-adv-x="923" 
d="M255 0l299 718h72l-300 -718h-71zM37.5 621.5q22.5 51.5 65 81.5t98.5 30q82 0 127.5 -60t45.5 -153q0 -66 -22.5 -120.5t-65 -86.5t-100.5 -32q-88 0 -129.5 67t-41.5 160q0 62 22.5 113.5zM123 378q24 -50 71 -50q46 0 70.5 50.5t24.5 128.5t-24.5 128.5t-70.5 50.5
q-47 0 -71 -50.5t-24 -128.5q0 -79 24 -129zM561.5 326.5q22.5 51.5 65 81.5t98.5 30q82 0 127.5 -60t45.5 -153q0 -66 -22.5 -120.5t-65 -86.5t-100.5 -32q-88 0 -129.5 67t-41.5 160q0 62 22.5 113.5zM647 83q24 -50 71 -50q46 0 70.5 50.5t24.5 128.5t-24.5 128.5
t-70.5 50.5q-47 0 -71 -50.5t-24 -128.5q0 -79 24 -129z" />
    <glyph glyph-name="ampersand" unicode="&#x26;" horiz-adv-x="668" 
d="M184 305.5q-40 -50.5 -40 -112.5q0 -39 18 -74.5t51 -57.5t78 -22q68 0 111 36t43 101q0 49 -24 82l-38 -1q-45 -4 -67.5 -16t-34 -24t-15.5 -12q-8 0 -15 10.5t-7 21.5q0 36 37.5 47.5t112.5 15.5q57 3 92.5 9t60 24.5t24.5 53.5q0 29 -11 45.5t-29 33.5q-13 11 -13 16
q0 7 14 11t30 4q44 0 75 -28.5t31 -74.5q0 -116 -198 -132q22 -20 35 -47t13 -57q0 -42 -23.5 -81.5t-76 -65t-133.5 -25.5q-117 0 -186 54.5t-69 151.5q0 68 47 119.5t135 74.5q-67 16 -104.5 57.5t-37.5 108.5q0 47 28 88t84 66.5t135 25.5q46 0 84.5 -15.5t61 -42.5
t22.5 -62q0 -39 -23.5 -63t-63.5 -24q-21 0 -21 10q0 2 10.5 18.5t10.5 48.5q0 38 -24.5 61t-67.5 23q-59 0 -92.5 -38t-33.5 -90q0 -67 35 -103.5t87 -36.5q6 0 10 -7t4 -15q0 -7 -3.5 -13.5t-9.5 -6.5q-79 -20 -119 -70.5z" />
    <glyph glyph-name="quotesingle" unicode="'" horiz-adv-x="178" 
d="M140 804q0 -30 -8.5 -92t-22.5 -121q-5 -19 -20 -19t-20 19q-13 53 -22 116.5t-9 96.5q18 30 51 30t51 -30z" />
    <glyph glyph-name="parenleft" unicode="(" horiz-adv-x="352" 
d="M208.5 82q42.5 -103 112.5 -149v-45q-127 53 -195 164.5t-68 278.5t68 278.5t195 164.5v-45q-70 -46 -112.5 -149t-42.5 -249t42.5 -249z" />
    <glyph glyph-name="parenright" unicode=")" horiz-adv-x="352" 
d="M143.5 580q-42.5 103 -112.5 149v45q127 -53 195 -164.5t68 -278.5t-68 -278.5t-195 -164.5v45q70 46 112.5 149t42.5 249t-42.5 249z" />
    <glyph glyph-name="asterisk" unicode="*" horiz-adv-x="574" 
d="M489 617q-41 -4 -133 -18l-37 -5l41 -39l82 -78q0 -29 -16 -47.5t-40 -18.5q-13 0 -25 6q-17 37 -45 93q-26 54 -29 61l-21 -43q-29 -56 -53 -110q-14 -6 -26 -6q-27 0 -41.5 19.5t-14.5 45.5q18 16 87 82q26 26 36 35q-7 1 -17 2.5t-22 3.5q-71 10 -129 17
q-16 17 -16 38q0 22 13 38t34 21q29 -17 62.5 -34.5t49.5 -26.5l38 -20l-9 50l-22 117q18 30 51 30t51 -30l-22 -117l-9 -50l27 14q22 12 52 28t71 38q22 -5 34.5 -20t12.5 -36q0 -22 -15 -40z" />
    <glyph glyph-name="plus" unicode="+" horiz-adv-x="621" 
d="M99 395h174v174h75v-174h174v-76h-174v-173h-75v173h-174v76z" />
    <glyph glyph-name="comma" unicode="," horiz-adv-x="191" 
d="M92 119q29 0 47 -16t18 -51q0 -28 -20.5 -58.5t-61.5 -74.5l-39 -42l-29 19l46 90q12 24 12 41q0 20 -23 37l-18 12l-5 24l17 7q31 12 56 12z" />
    <glyph glyph-name="hyphen" unicode="-" horiz-adv-x="355" 
d="M39.5 292q6.5 20 19.5 30l263 10q0 -21 -6 -40.5t-20 -29.5l-263 -10q0 20 6.5 40z" />
    <glyph glyph-name="period" unicode="." horiz-adv-x="191" 
d="M54.5 93.5q21.5 23.5 39.5 23.5q19 0 41 -23t22 -43q0 -19 -22 -42t-41 -23q-17 0 -39 23t-22 42t21.5 42.5z" />
    <glyph glyph-name="slash" unicode="/" horiz-adv-x="371" 
d="M0 -63l299 844h72l-300 -844h-71z" />
    <glyph glyph-name="zero" unicode="0" horiz-adv-x="693" 
d="M96.5 548q36.5 85 104.5 134.5t158 49.5q88 0 149.5 -46t93 -126t31.5 -180q0 -108 -35.5 -198t-103.5 -143t-160 -53q-97 0 -158.5 54t-88.5 139t-27 181q0 103 36.5 188zM212 131.5q46 -88.5 134 -88.5q58 0 98.5 41.5t61 113t20.5 160.5t-20.5 161t-61 114t-98.5 42
q-88 0 -134 -89t-46 -228q0 -138 46 -226.5z" />
    <glyph glyph-name="one" unicode="1" horiz-adv-x="418" 
d="M301 104q10 -37 35 -70l13 -18l-13 -16h-239l-12 34l43 11q27 7 40 15.5t18.5 25t5.5 47.5v482l-123 -78q-21 4 -39.5 24t-29.5 44l277 129q24 -6 40 -37l-26 -17v-479q0 -60 10 -97z" />
    <glyph glyph-name="two" unicode="2" horiz-adv-x="596" 
d="M37 51q160 131 243 218t112.5 149t29.5 128q0 62 -38.5 96t-91.5 34q-54 0 -93.5 -33.5t-39.5 -93.5q0 -25 6.5 -41.5t15 -29t8.5 -15.5q0 -8 -4.5 -10t-16.5 -2q-46 0 -76.5 29.5t-30.5 76.5q0 56 32.5 95.5t85.5 59.5t114 20q112 0 178 -49t66 -138q0 -97 -95 -206.5
t-265 -247.5h379q0 -27 -8 -52t-26 -39h-458z" />
    <glyph glyph-name="three" unicode="3" horiz-adv-x="596" 
d="M175 4.5q-53 18.5 -85.5 55t-32.5 88.5q0 47 30.5 76.5t76.5 29.5q12 0 16.5 -2t4.5 -10q0 -3 -8.5 -16t-15 -30t-6.5 -40q0 -49 39 -78t92 -29q59 0 102.5 36.5t43.5 104.5q0 58 -36.5 104.5t-134.5 46.5q-34 0 -55 -5t-26 -5q-14 0 -14 18q0 13 9 19.5t46 13.5
q114 21 152 68t38 103q0 59 -37.5 91.5t-88.5 32.5q-46 0 -78.5 -27.5t-32.5 -76.5q0 -25 6.5 -41.5t15 -29t8.5 -15.5q0 -12 -21 -12q-46 0 -76.5 29.5t-30.5 76.5q0 48 29.5 82.5t77.5 51.5t104 17q59 0 112.5 -19.5t87 -59t33.5 -94.5q0 -127 -148 -183q82 -18 125.5 -70
t43.5 -122q0 -94 -68 -146t-184 -52q-61 0 -114 18.5z" />
    <glyph glyph-name="four" unicode="4" horiz-adv-x="608" 
d="M498.5 91.5q10.5 -29.5 31.5 -57.5l13 -18l-13 -16h-239l-12 34l43 11q27 7 40 15.5t18 24.5t5 48v29h-355l232 556h63l19 -16l-216 -477h257v136q0 32 -4.5 51t-17.5 40l12 15l110 12v-254h93q0 -45 -23 -63h-69q2 -41 12.5 -70.5z" />
    <glyph glyph-name="five" unicode="5" horiz-adv-x="596" 
d="M388 310q-44 51 -164 51q-42 0 -105 -13l-21 37l18 333h389q0 -27 -8 -52t-26 -39h-294l-12 -225q63 14 123 14q85 0 142 -31t84 -81.5t27 -110.5q0 -63 -31 -110t-88 -72t-133 -25q-61 0 -114 18.5t-85.5 55t-32.5 88.5q0 47 30.5 76.5t76.5 29.5q12 0 16.5 -2t4.5 -10
q0 -3 -8.5 -16t-15 -30t-6.5 -40q0 -49 39 -78t92 -29q38 0 71 16.5t54 49t21 78.5q0 66 -44 117z" />
    <glyph glyph-name="six" unicode="6" horiz-adv-x="646" 
d="M247.5 623q-43.5 -52 -62.5 -131t-19 -166q0 -32 1 -47q20 64 72 102t132 38q99 0 151 -56.5t52 -144.5q0 -65 -27 -117.5t-81 -83.5t-131 -31q-89 0 -151.5 46t-94 124t-31.5 172q0 113 34.5 204.5t103 145.5t167.5 54q57 0 102 -17t70.5 -48t25.5 -70q0 -51 -30.5 -84
t-76.5 -33q-21 0 -21 12q0 3 9 16.5t15 29t6 36.5q0 47 -28 74t-75 27q-69 0 -112.5 -52zM239 305.5q-34 -45.5 -34 -110.5t28.5 -105.5t87.5 -40.5q63 0 97.5 42.5t34.5 111.5q0 65 -29.5 106.5t-88.5 41.5q-62 0 -96 -45.5z" />
    <glyph glyph-name="seven" unicode="7" horiz-adv-x="496" 
d="M260 95q0 -34 14 -61l9 -18l-19 -16h-184l-12 34l23 6q40 11 61 32t39 67l190 488h-345q-18 14 -26 39t-8 52h485l-204 -518q-23 -60 -23 -105z" />
    <glyph glyph-name="eight" unicode="8" horiz-adv-x="616" 
d="M509.5 450.5q-34.5 -44.5 -88.5 -77.5q72 -37 106.5 -84.5t34.5 -109.5q0 -58 -31.5 -102.5t-90.5 -69t-140 -24.5q-110 0 -178 44.5t-68 138.5q0 108 133 188q-58 32 -86.5 74t-28.5 104q0 53 25 99.5t77 75t127 28.5q108 0 175.5 -45t67.5 -139q0 -56 -34.5 -100.5z
M235.5 662.5q-28.5 -16.5 -44.5 -43.5t-16 -57q0 -41 29.5 -72.5t102.5 -63.5l62 -28q33 38 50 77.5t17 76.5q0 56 -36 91.5t-99 35.5q-37 0 -65.5 -16.5zM179 250q-19 -42 -19 -81q0 -58 37.5 -94t103.5 -36q67 0 109 30.5t42 83.5q0 49 -25 77t-85 54l-107 47
q-37 -39 -56 -81z" />
    <glyph glyph-name="nine" unicode="9" horiz-adv-x="646" 
d="M511.5 622.5q62.5 -109.5 62.5 -282.5q0 -101 -31 -181t-94.5 -126.5t-156.5 -46.5q-57 0 -102.5 18t-71 50t-25.5 72q0 41 28 66t72 25q22 0 22 -12q0 -3 -7.5 -15.5t-12.5 -26t-5 -31.5q0 -41 28 -65t73 -24q93 0 135 85t42 209q0 37 -1 54q-26 -53 -76.5 -84
t-118.5 -31q-62 0 -106 29t-66.5 77t-22.5 103q0 63 28 119.5t83 92t133 35.5q128 0 190.5 -109.5zM418.5 394.5q35.5 46.5 35.5 111.5t-33 113t-92 48q-63 0 -97.5 -47.5t-34.5 -112.5t32 -112t89 -47q65 0 100.5 46.5z" />
    <glyph glyph-name="colon" unicode=":" horiz-adv-x="191" 
d="M54.5 93.5q21.5 23.5 39.5 23.5q19 0 41 -23t22 -43q0 -19 -22 -42t-41 -23q-17 0 -39 23t-22 42t21.5 42.5zM54.5 453.5q21.5 23.5 39.5 23.5q19 0 41 -23t22 -43q0 -19 -22 -42t-41 -23q-17 0 -39 23t-22 42t21.5 42.5z" />
    <glyph glyph-name="semicolon" unicode=";" horiz-adv-x="191" 
d="M92 119q29 0 47 -16t18 -51q0 -28 -20.5 -58.5t-61.5 -74.5l-39 -42l-29 19l46 90q12 24 12 41q0 20 -23 37l-18 12l-5 24l17 7q31 12 56 12zM54.5 453.5q21.5 23.5 39.5 23.5q19 0 41 -23t22 -43q0 -19 -22 -42t-41 -23q-17 0 -39 23t-22 42t21.5 42.5z" />
    <glyph glyph-name="less" unicode="&#x3c;" horiz-adv-x="621" 
d="M99 395l423 171v-76l-338 -133l338 -133v-76l-423 171v76z" />
    <glyph glyph-name="equal" unicode="=" horiz-adv-x="621" 
d="M99 503h423v-76h-423v76zM99 287h423v-76h-423v76z" />
    <glyph glyph-name="greater" unicode="&#x3e;" horiz-adv-x="621" 
d="M522 319l-423 -171v76l338 133l-338 133v76l423 -171v-76z" />
    <glyph glyph-name="question" unicode="?" horiz-adv-x="538" 
d="M276 284.5q-18 -21.5 -26 -49.5l-5 -19h-19l-61 62q82 72 125 126.5t56.5 94t13.5 79.5q0 61 -33 92.5t-89 31.5q-43 0 -68.5 -23.5t-25.5 -63.5q0 -26 5.5 -42t12 -26.5t6.5 -13.5q0 -11 -19 -11q-43 0 -70.5 27.5t-27.5 70.5q0 40 27 72t75 49.5t109 17.5
q58 0 106.5 -20.5t77 -60t28.5 -94.5q0 -106 -141 -241q-39 -37 -57 -58.5zM193.5 93.5q21.5 23.5 39.5 23.5q19 0 41 -23t22 -43q0 -19 -22 -42t-41 -23q-17 0 -39 23t-22 42t21.5 42.5z" />
    <glyph glyph-name="at" unicode="@" horiz-adv-x="892" 
d="M812 185.5q-25 -64.5 -74 -107t-117 -42.5q-54 0 -87.5 34.5t-33.5 97.5q-31 -37 -69.5 -57t-73.5 -20q-54 0 -89 43t-35 122q0 77 27.5 134.5t77.5 88.5t115 31q27 0 61.5 -5t42.5 -6q32 -6 62 -9l8 -12l-9 -16q-11 -15 -12 -29q-22 -251 -22 -263q0 -39 15 -60.5
t37 -21.5t46 26t41 78t17 126q0 87 -31.5 155t-91.5 106.5t-143 38.5q-93 0 -167 -49.5t-115 -134t-41 -186.5q0 -87 32 -155.5t92.5 -107t143.5 -38.5q53 0 96.5 10t83.5 35l24 -42q-50 -30 -100.5 -45t-108.5 -15q-107 0 -188.5 47.5t-126 129.5t-44.5 183
q0 114 56.5 211.5t154 155.5t213.5 58q106 0 187.5 -47.5t126 -129.5t44.5 -183q0 -65 -25 -129.5zM385.5 427q-27.5 -25 -41 -64t-13.5 -82q0 -51 22 -82.5t55 -31.5q21 0 45 15.5t46 46.5l17 200q-30 23 -64 23q-39 0 -66.5 -25z" />
    <glyph glyph-name="A" unicode="A" horiz-adv-x="706" 
d="M445 34l23 6q24 6 34.5 16t10.5 28q0 16 -11 49l-48 140h-231l-24 -73q-23 -69 -23 -105q0 -34 14 -61l9 -18l-19 -16h-184l-12 34l23 6q40 11 58 29t34 64l157 452q11 33 11 49q0 18 -10.5 28t-34.5 16l-23 6l12 34h193l201 -580q16 -46 35 -70t55 -52l-13 -16h-225z
M244 335h189l-96 280z" />
    <glyph glyph-name="B" unicode="B" horiz-adv-x="651" 
d="M532.5 434q-26.5 -45 -78.5 -70q67 -22 104.5 -67t37.5 -100q0 -91 -62 -144t-198 -53h-279l-12 34l23 6q38 11 51 29t13 64v494q0 13 -5 18.5t-17 5.5h-58l-12 37q43 17 113 30.5t135 13.5q137 0 204 -55t67 -142q0 -56 -26.5 -101zM264 76.5q33 -24.5 78 -24.5
q70 0 110 41.5t40 108.5q0 38 -19.5 69.5t-55.5 50.5t-84 19q-17 0 -35.5 4t-29.5 9q-15 7 -15 22q0 18 14 18q4 0 16.5 -3.5t33.5 -3.5q68 0 105.5 40t37.5 106q0 63 -42.5 103t-119.5 40q-67 0 -67 -46v-447q0 -82 33 -106.5z" />
    <glyph glyph-name="C" unicode="C" horiz-adv-x="617" 
d="M474.5 713.5q51.5 -18.5 80 -52t28.5 -76.5q0 -51 -30.5 -84t-76.5 -33q-21 0 -21 12q0 3 8.5 17t15 31.5t6.5 42.5q0 47 -35 76t-92 29q-74 0 -121 -46t-68 -118t-21 -154q0 -84 26.5 -153t75.5 -109.5t114 -40.5q64 0 111 23.5t77 66.5q3 4 7 4q9 0 20.5 -9.5
t11.5 -18.5q0 -3 -3 -8q-86 -127 -233 -127q-104 0 -176 49t-108 133.5t-36 189.5q0 106 36 190.5t108.5 134t178.5 49.5q65 0 116.5 -18.5z" />
    <glyph glyph-name="D" unicode="D" horiz-adv-x="733" 
d="M40 34l23 6q32 9 48 26.5t16 55.5v505q0 13 -5 18.5t-17 5.5h-58l-12 37q48 17 124 30.5t147 13.5q209 0 300.5 -103.5t91.5 -270.5q0 -102 -37.5 -183t-112 -128t-182.5 -47h-314zM255.5 77.5q29.5 -26.5 78.5 -26.5q255 0 255 309q0 84 -29 156t-88.5 116t-147.5 44
q-98 0 -98 -46v-455q0 -71 29.5 -97.5z" />
    <glyph glyph-name="E" unicode="E" horiz-adv-x="610" 
d="M226 133q0 -32 5 -48t18.5 -22t40.5 -6h108q36 0 56 7.5t31.5 26t21.5 55.5l6 23l34 -12v-171l-20 -11l-8 11q-11 14 -42 14h-421l-11 32l21 6q37 11 49 28t12 60v391q0 60 -10 97t-35 70l-13 18l13 16h306q86 0 114 21l18 13l16 -13v-178l-34 -12l-6 23
q-10 37 -21.5 55.5t-31.5 26t-56 7.5h-97q-27 0 -40.5 -6t-18.5 -22t-5 -48v-192h127q24 0 42.5 10.5t36.5 35.5l8 11l20 -11v-171l-34 -12l-6 23q-9 34 -31.5 45.5t-77.5 11.5h-85v-203z" />
    <glyph glyph-name="F" unicode="F" horiz-adv-x="547" 
d="M440.5 627.5q-11.5 18.5 -31.5 26t-56 7.5h-87q-27 0 -40.5 -6t-18.5 -22t-5 -48v-202h117q24 0 42.5 10.5t36.5 35.5l8 11l20 -11v-171l-34 -12l-6 23q-9 34 -31.5 45.5t-77.5 11.5h-75v-193q0 -46 13 -64t51 -29l23 -6l-12 -34h-219l-13 16l13 18q25 33 35 70t10 97
v316q0 60 -10 97t-35 70l-13 18l13 16h296q86 0 114 21l18 13l16 -13v-178l-34 -12l-6 23q-10 37 -21.5 55.5z" />
    <glyph glyph-name="G" unicode="G" horiz-adv-x="691" 
d="M345 17q-101 0 -171 47t-104.5 128.5t-34.5 183.5q0 97 37 178t111.5 129.5t182.5 48.5q70 0 124.5 -20t85.5 -55.5t31 -81.5q0 -51 -30.5 -84t-76.5 -33q-15 0 -18 2t-3 10q0 3 8.5 17t15 31.5t6.5 42.5q0 51 -39.5 83t-103.5 32q-79 0 -129 -45t-72 -112t-22 -138
q0 -83 25.5 -151.5t73.5 -108.5t112 -40q99 0 167 68v51q0 46 -13 64t-51 29l-23 6l12 34h210l13 -16l-13 -18q-25 -33 -35 -70t-10 -97v-116q0 -294 -238 -294q-59 0 -100 20.5t-61.5 53t-20.5 69.5q0 50 34 85.5t93 35.5q10 0 14.5 -3.5t4.5 -7.5t-14 -19t-24.5 -36
t-10.5 -53q0 -40 27.5 -66.5t74.5 -26.5q65 0 98 50t33 164v94q-78 -65 -176 -65z" />
    <glyph glyph-name="H" unicode="H" horiz-adv-x="779" 
d="M466 34l23 6q38 11 51 29t13 64v201h-327v-208q0 -43 12 -60t49 -28l21 -6l-11 -32h-245l-12 34l23 6q38 11 51 29t13 64v452q0 46 -13 64t-51 29l-23 6l12 34h219l13 -16l-13 -18q-25 -33 -35 -70t-10 -97v-122h327v190q0 46 -13 64t-51 29l-23 6l12 34h219l13 -16
l-13 -18q-25 -33 -35 -70t-10 -97v-391q0 -43 12 -60t49 -28l21 -6l-11 -32h-245z" />
    <glyph glyph-name="I" unicode="I" horiz-adv-x="353" 
d="M40 34l23 6q38 11 51 29t13 64v452q0 46 -13 64t-51 29l-23 6l12 34h219l13 -16l-13 -18q-25 -33 -35 -70t-10 -97v-391q0 -43 12 -60t49 -28l21 -6l-11 -32h-245z" />
    <glyph glyph-name="J" unicode="J" horiz-adv-x="469" 
d="M259 649q-13 18 -51 29l-23 6l12 34h219l13 -16l-13 -18q-25 -33 -35 -70t-10 -97v-281q0 -130 -55.5 -190t-153.5 -60q-59 0 -100 20.5t-61.5 53t-20.5 69.5q0 50 34 85.5t93 35.5q10 0 14.5 -3.5t4.5 -7.5t-14 -19t-24.5 -36t-10.5 -53q0 -40 24.5 -66.5t67.5 -26.5
q103 0 103 137v410q0 46 -13 64z" />
    <glyph glyph-name="K" unicode="K" horiz-adv-x="668" 
d="M40 34l23 6q38 11 51 29t13 64v452q0 46 -13 64t-51 29l-23 6l12 34h219l13 -16l-13 -18q-25 -33 -35 -70t-10 -97v-391q0 -43 12 -60t49 -28l21 -6l-11 -32h-245zM574.5 49q8.5 -8 20.5 -8q19 0 39 14l17 -29q-41 -40 -92 -40q-45 0 -76 24t-58 73l-119 218
q-11 19 -21 27.5t-30 17.5q-5 3 -5 11q0 9 4.5 16.5t15.5 7.5q16 0 24 -1l136 203q13 20 17 31.5t4 24.5q0 16 -13 45l-9 18l19 16h181l12 -34l-23 -6q-25 -7 -43 -18.5t-35 -35.5l-180 -260q43 -20 69 -65l128 -227q9 -15 17.5 -23z" />
    <glyph glyph-name="L" unicode="L" horiz-adv-x="550" 
d="M231 85q5 -16 18.5 -22t40.5 -6h87q36 0 56 7.5t31.5 26t21.5 55.5l6 23l34 -12v-171l-20 -11l-8 11q-11 14 -42 14h-400l-11 32l21 6q37 11 49 28t12 60v459q0 46 -13 64t-51 29l-23 6l12 34h219l13 -16l-13 -18q-25 -33 -35 -70t-10 -97v-384q0 -32 5 -48z" />
    <glyph glyph-name="M" unicode="M" horiz-adv-x="921" 
d="M827.5 90.5q15.5 -41.5 48.5 -74.5l-13 -16h-219l-12 34l23 6q32 10 44.5 25.5t12.5 46.5l-2 37l-29 417l-209 -494h-54l-209 494l-22 -308q-6 -70 -6 -98q0 -41 8.5 -69.5t27.5 -56.5l12 -18l-15 -16h-188l-11 34l23 6q39 12 53.5 30t17.5 63l27 396q1 13 3 36t2 41
q0 34 -12.5 49t-45.5 23l-23 6l11 34h182l206 -503l212 503h144l15 -16l-12 -18q-19 -28 -27.5 -56.5t-8.5 -69.5q0 -15 5 -90l20 -274q5 -62 20.5 -103.5z" />
    <glyph glyph-name="N" unicode="N" horiz-adv-x="779" 
d="M191 201q0 -60 10 -97t35 -70l13 -18l-13 -16h-190l-12 34l23 6q38 11 51 29t13 64v452q0 46 -13 64t-51 29l-23 6l12 34h161l382 -567v434q0 46 -13 64t-51 29l-23 6l12 34h190l13 -16l-13 -18q-25 -33 -35 -70t-10 -97v-429q0 -19 3 -31t11 -23l13 -18l-13 -16h-101
l-381 565v-364z" />
    <glyph glyph-name="O" unicode="O" horiz-adv-x="733" 
d="M72 548.5q37 84.5 111.5 134t182.5 49.5t182.5 -49.5t112 -134t37.5 -190.5t-37.5 -190t-112 -133t-182.5 -49t-182.5 49t-111.5 133t-37 190t37 190.5zM568.5 500.5q-20.5 73.5 -69.5 124t-128 50.5q-71 0 -122.5 -43.5t-78.5 -117.5t-27 -164q0 -87 25 -156t74.5 -109
t119.5 -40t121.5 41t78.5 111.5t27 157.5q0 72 -20.5 145.5z" />
    <glyph glyph-name="P" unicode="P" horiz-adv-x="596" 
d="M236 103.5q10 -36.5 35 -69.5l13 -18l-13 -16h-219l-12 34l23 6q38 10 51 29t13 64v494q0 13 -5 18.5t-17 5.5h-58l-12 37q43 17 113.5 30.5t135.5 13.5q148 0 220 -66.5t72 -171.5q0 -65 -26 -117.5t-80 -84t-134 -31.5q-37 0 -62.5 9t-25.5 26q0 10 4 17t12 7
q4 0 16.5 -3.5t32.5 -3.5q75 0 117 48t42 130q0 81 -44.5 133t-125.5 52q-76 0 -76 -46v-429q0 -61 10 -97.5z" />
    <glyph glyph-name="Q" unicode="Q" horiz-adv-x="733" 
d="M72 548.5q37 84.5 111.5 134t182.5 49.5t182.5 -49.5t112 -134t37.5 -190.5q0 -101 -34 -182.5t-100 -129.5l50 -111q18 -40 43 -58.5t62 -18.5q20 0 36 6.5t19 6.5q4 0 6.5 -3t2.5 -7q0 -36 -28 -59.5t-65 -23.5q-58 0 -96.5 38.5t-67.5 103.5l-39 85q-57 -19 -121 -19
q-108 0 -182.5 49t-111.5 133t-37 190t37 190.5zM568.5 500.5q-20.5 73.5 -69.5 124t-128 50.5q-71 0 -122.5 -43.5t-78.5 -117.5t-27 -164q0 -68 15 -125t45 -98q-2 7 -2 20q0 50 34 78.5t92 28.5q55 0 104.5 -31.5t90.5 -96.5q32 43 49.5 102t17.5 127q0 72 -20.5 145.5z
M278.5 67q34.5 -22 83.5 -22q52 0 96 25q-32 65 -71.5 95.5t-76.5 30.5q-29 0 -47.5 -17t-18.5 -46q0 -44 34.5 -66z" />
    <glyph glyph-name="R" unicode="R" horiz-adv-x="640" 
d="M529 -14q-49 0 -79 28t-59 89l-76 161q-9 20 -22.5 29t-45.5 21q-19 7 -19 23q0 10 4 17t12 7q4 0 16.5 -3.5t32.5 -3.5q75 0 117 42.5t42 113.5q0 73 -44.5 119.5t-125.5 46.5q-76 0 -76 -46v-429q0 -60 10 -96.5t35 -70.5l13 -18l-13 -16h-219l-12 34l23 6q38 10 51 29
t13 64v494q0 13 -5 18.5t-17 5.5h-58l-12 37q43 17 113.5 30.5t135.5 13.5q148 0 220 -61t72 -158q0 -74 -41 -129t-121 -74q22 -15 40 -49l93 -189q16 -31 38 -31q19 0 39 14l17 -29q-41 -40 -92 -40z" />
    <glyph glyph-name="S" unicode="S" horiz-adv-x="572" 
d="M385.5 72q35.5 30 35.5 83q0 43 -22 73t-54.5 49t-88.5 44q-64 29 -102.5 53t-65.5 64t-27 100q0 51 24.5 95.5t73.5 71.5t120 27q65 0 116.5 -18.5t80 -52t28.5 -76.5q0 -51 -30.5 -84t-76.5 -33q-21 0 -21 12q0 3 8.5 17t15 31.5t6.5 42.5q0 47 -35 76t-92 29
q-59 0 -91 -33.5t-32 -81.5q0 -37 21 -64t52 -45t86 -43q66 -29 107.5 -54.5t70.5 -68t29 -105.5q0 -89 -59.5 -142t-170.5 -53q-72 0 -128 20.5t-87.5 57t-31.5 83.5q0 51 32.5 84t81.5 33q11 0 16 -3.5t5 -8.5q0 -3 -9 -16.5t-16 -31.5t-7 -43q0 -53 40 -86t104 -33
q58 0 93.5 30z" />
    <glyph glyph-name="T" unicode="T" horiz-adv-x="595" 
d="M513.5 627.5q-11.5 18.5 -31.5 26t-56 7.5h-45q-21 0 -27.5 -14.5t-6.5 -61.5v-452q0 -46 13 -64t51 -29l23 -6l-12 -34h-219l-13 16l13 18q25 33 35 70t10 97v384q0 47 -6.5 61.5t-27.5 14.5h-45q-36 0 -56 -7.5t-31.5 -26t-21.5 -55.5l-6 -23l-34 12v178l16 13l18 -13
q28 -21 114 -21h259q86 0 114 21l18 13l16 -13v-178l-34 -12l-6 23q-10 37 -21.5 55.5z" />
    <glyph glyph-name="U" unicode="U" horiz-adv-x="739" 
d="M260 95q50 -46 126 -46t126 46t50 125v365q0 46 -13 64t-51 29l-23 6l12 34h190l13 -16l-13 -18q-25 -33 -35 -70t-10 -97v-297q0 -118 -72 -176t-187 -58q-117 0 -189.5 58t-72.5 176v365q0 46 -13 64t-51 29l-23 6l12 34h219l13 -16l-13 -18q-25 -33 -35 -70t-10 -97
v-297q0 -79 50 -125z" />
    <glyph glyph-name="V" unicode="V" horiz-adv-x="682" 
d="M290 0l-195 580q-15 46 -34 70t-56 52l13 16h225l12 -34l-23 -6q-24 -6 -34.5 -16t-10.5 -28q0 -16 11 -49l163 -502l140 435q19 60 19 93q-2 55 -45 67l-23 6l12 34h190l13 -16l-15 -18q-37 -44 -55 -100l-193 -584h-114z" />
    <glyph glyph-name="W" unicode="W" horiz-adv-x="1087" 
d="M695 0l-147 436l-144 -436h-114l-195 580q-15 46 -34 70t-56 52l13 16h225l12 -34l-23 -6q-24 -6 -34.5 -16t-10.5 -28q0 -16 11 -49l163 -502l149 465l-10 32q-15 46 -34 70t-56 52l13 16h225l12 -34l-23 -6q-24 -6 -34.5 -16t-10.5 -28q0 -16 11 -49l163 -502l140 435
q19 60 19 93q-2 55 -45 67l-23 6l12 34h190l13 -16l-15 -18q-37 -44 -55 -100l-193 -584h-114z" />
    <glyph glyph-name="X" unicode="X" horiz-adv-x="680" 
d="M456 583q13 20 17 31.5t4 24.5q0 16 -13 45l-9 18l19 16h184l12 -34l-23 -6q-25 -7 -43 -18.5t-35 -35.5l-175 -253l180 -255q26 -37 43.5 -58t43.5 -42l-13 -16h-237l-12 34l23 6q39 11 39 43q0 26 -22 59l-109 153l-106 -160q-13 -20 -17 -31.5t-4 -24.5q0 -16 13 -45
l9 -18l-19 -16h-184l-12 34l23 6q25 7 43 18.5t35 35.5l179 259l-171 243q-52 72 -91 106l13 16h237l12 -34l-23 -6q-39 -11 -39 -43q0 -26 22 -59l103 -147z" />
    <glyph glyph-name="Y" unicode="Y" horiz-adv-x="626" 
d="M439 584q12 23 12 41q0 20 -12.5 34t-29.5 19l-23 6l12 34h190l13 -16l-15 -18q-35 -42 -71 -106l-155 -275v-170q0 -45 14 -64t52 -29l23 -6l-12 -34h-219l-13 16l13 18q25 35 36 71.5t11 95.5v94l-160 281q-27 48 -48 75t-52 51l13 16h225l12 -34l-23 -6
q-24 -6 -34.5 -16t-10.5 -28q0 -11 14 -34.5t17 -28.5l108 -189z" />
    <glyph glyph-name="Z" unicode="Z" horiz-adv-x="590" 
d="M57 561v178l16 13l18 -13q28 -21 114 -21h365l-395 -661h226q36 0 56 7.5t31.5 26t21.5 55.5l6 23l34 -12v-171l-20 -11l-8 11q-11 14 -42 14h-460l397 661h-211q-36 0 -56 -7.5t-31.5 -26t-21.5 -55.5l-6 -23z" />
    <glyph glyph-name="bracketleft" unicode="[" horiz-adv-x="387" 
d="M360 774v-48l-80 -12q-30 -5 -42.5 -16t-12.5 -37v-660q0 -26 12.5 -37t42.5 -16l80 -12v-48h-234v886h234z" />
    <glyph glyph-name="backslash" unicode="\" horiz-adv-x="371" 
d="M300 -63l-300 844h72l299 -844h-71z" />
    <glyph glyph-name="bracketright" unicode="]" horiz-adv-x="387" 
d="M261 -112h-234v48l80 12q30 5 42.5 16t12.5 37v660q0 26 -12.5 37t-42.5 16l-80 12v48h234v-886z" />
    <glyph glyph-name="asciicircum" unicode="^" horiz-adv-x="621" 
d="M353 718l171 -320h-81l-134 255l-132 -255h-81l171 320h86z" />
    <glyph glyph-name="underscore" unicode="_" horiz-adv-x="355" 
d="M-19.5 -44q6.5 20 19.5 30h381q0 -21 -6 -40.5t-20 -29.5h-381q0 20 6.5 40z" />
    <glyph glyph-name="grave" unicode="`" horiz-adv-x="288" 
d="M223 569l-113 56q-30 15 -43 32.5t-13 39.5q0 21 11.5 37.5t30.5 25.5l156 -156z" />
    <glyph glyph-name="a" unicode="a" horiz-adv-x="604" 
d="M317 10q-43 -24 -93 -24q-48 0 -89 27.5t-65.5 82.5t-24.5 133q0 86 31.5 149.5t90 97.5t137.5 34q39 0 110 -13q60 -10 90 -12l11 -13l-12 -18q-7 -10 -10 -18.5t-3 -20.5v-327q0 -31 30 -31q25 0 50 18l19 -26q-26 -29 -56 -46t-55 -17q-41 0 -59 25t-18 81
q-41 -58 -84 -82zM182.5 108q32.5 -45 81.5 -45q40 0 75 22.5t62 68.5v270q-46 31 -98 31q-73 0 -113 -54.5t-40 -152.5q0 -95 32.5 -140z" />
    <glyph glyph-name="b" unicode="b" horiz-adv-x="590" 
d="M257 447.5q-17 -6.5 -20 -6.5q-6 0 -10.5 7t-4.5 15q0 12 9 18q46 29 101 29q62 0 110.5 -31t75.5 -86t27 -125q0 -80 -34 -144.5t-93 -101t-133 -36.5q-58 0 -108 17t-79 46v625q0 12 -4.5 17t-15.5 5h-44l-9 26q29 26 66 43t66 17q14 0 23 -9t9 -23v-676
q24 -17 48.5 -24.5t56.5 -7.5q67 0 106 55.5t39 150.5q0 60 -17.5 107t-48.5 73t-72 26q-27 0 -44 -6.5z" />
    <glyph glyph-name="c" unicode="c" horiz-adv-x="509" 
d="M444 106q8 0 16.5 -9t8.5 -19q0 -6 -3 -9q-35 -40 -81.5 -61.5t-98.5 -21.5q-69 0 -124 33.5t-86 93t-31 134.5q0 79 30 138.5t84.5 92t127.5 32.5q77 0 126.5 -37.5t49.5 -96.5q0 -43 -27.5 -70.5t-70.5 -27.5q-19 0 -19 11q0 3 7 14t12 27t5 41q0 40 -25.5 63.5
t-68.5 23.5q-57 0 -92 -56t-35 -147q0 -93 41.5 -147.5t112.5 -54.5q72 0 132 50q3 3 9 3z" />
    <glyph glyph-name="d" unicode="d" horiz-adv-x="604" 
d="M520 57q25 0 50 18l19 -26q-26 -29 -56 -46t-55 -17q-41 0 -59 25t-18 81q-41 -58 -84 -82t-93 -24q-48 0 -89 27.5t-65.5 82.5t-24.5 133q0 86 31.5 149.5t90 97.5t137.5 34q52 0 95 -13v177q0 12 -4.5 17t-15.5 5h-44l-9 26q29 26 66.5 43t65.5 17q14 0 23 -9t9 -23
v-662q0 -31 30 -31zM182.5 108q32.5 -45 81.5 -45q40 0 75 22.5t62 68.5v270q-46 31 -98 31q-73 0 -113 -54.5t-40 -152.5q0 -95 32.5 -140z" />
    <glyph glyph-name="e" unicode="e" horiz-adv-x="529" 
d="M385 9q-51 -23 -110 -23q-69 0 -121 32t-80.5 90t-28.5 134q0 80 32 140.5t90.5 94t136.5 33.5q55 0 93.5 -20.5t57.5 -54t19 -72.5q0 -42 -22.5 -81t-65.5 -63.5t-103 -24.5q-32 0 -71 12t-39 35q0 8 4.5 15t10.5 7q3 0 20 -6.5t44 -6.5q60 0 93.5 34t33.5 80
q0 39 -25 67.5t-70 28.5q-64 0 -100 -56.5t-36 -161.5q0 -89 38 -139.5t110 -50.5q88 0 146 57q4 4 9 4q8 0 17 -9.5t9 -19.5q0 -5 -4 -9q-37 -43 -88 -66z" />
    <glyph glyph-name="f" unicode="f" horiz-adv-x="334" 
d="M156 706q47 76 139 76q65 0 107 -31t42 -80q0 -43 -27.5 -70.5t-70.5 -27.5q-19 0 -19 11q0 3 7 14t12 27t5 41q0 32 -18 51.5t-49 19.5q-44 0 -64.5 -43.5t-20.5 -120.5v-76h140q0 -21 -6 -38t-17 -25h-117v-447q0 -104 -45.5 -164.5t-134.5 -60.5q-54 0 -89 27.5
t-35 74.5q0 38 28 64t70 26q19 0 19 -11q0 -3 -8 -13.5t-14 -24t-6 -34.5q0 -31 15.5 -48.5t39.5 -17.5q30 0 50 26.5t20 78.5v524h-88q0 27 4 35t20 12l64 16q0 133 47 209z" />
    <glyph glyph-name="g" unicode="g" horiz-adv-x="602" 
d="M387 -175q29 51 29 137v159q-41 -58 -84 -82t-93 -24q-48 0 -89 24.5t-65.5 72.5t-24.5 117q0 86 31.5 149.5t90 97.5t137.5 34q39 0 110 -13q60 -10 90 -12l11 -13l-12 -18q-7 -10 -10 -18.5t-3 -20.5v-437q0 -123 -59.5 -189.5t-162.5 -66.5q-55 0 -94 20.5t-58 53
t-19 69.5q0 50 34 85.5t93 35.5q10 0 14.5 -3.5t4.5 -7.5t-14 -19t-24.5 -36t-10.5 -53q0 -40 23.5 -66.5t63.5 -26.5q62 0 91 51zM197.5 130q32.5 -38 81.5 -38q40 0 75 22.5t62 68.5v241q-46 31 -98 31q-73 0 -113 -54.5t-40 -152.5q0 -80 32.5 -118z" />
    <glyph glyph-name="h" unicode="h" horiz-adv-x="639" 
d="M103.5 691q-4.5 5 -15.5 5h-44l-9 26q29 26 66.5 43t65.5 17q14 0 23 -9t9 -23v-389q26 65 78 107t109 42q73 0 103.5 -43t30.5 -139v-242q0 -34 30 -34q25 0 50 21l19 -26q-26 -29 -56 -46t-56 -17q-41 0 -59 25t-18 81v238q0 53 -19.5 78.5t-66.5 25.5q-43 0 -75.5 -34
t-51 -96t-18.5 -142q0 -47 7 -75t25 -54l12 -16l-12 -15h-175l-11 31l21 5q25 6 33.5 21.5t8.5 53.5v563q0 12 -4.5 17z" />
    <glyph glyph-name="i" unicode="i" horiz-adv-x="312" 
d="M113.5 700.5q21.5 23.5 39.5 23.5q19 0 41 -23t22 -43q0 -19 -22 -42t-41 -23q-17 0 -39 23t-22 42t21.5 42.5zM228 54q25 0 50 21l19 -26q-26 -29 -56 -46t-56 -17q-41 0 -59 25t-18 81v310q0 12 -4.5 17t-15.5 5h-44l-9 26q29 26 66 43t66 17q14 0 23 -9t9 -23l-1 -390
q0 -34 30 -34z" />
    <glyph glyph-name="j" unicode="j" horiz-adv-x="291" 
d="M108.5 700.5q21.5 23.5 39.5 23.5q19 0 41 -23t22 -43q0 -19 -22 -42t-41 -23q-17 0 -39 23t-22 42t21.5 42.5zM98.5 419q-4.5 5 -15.5 5h-44l-9 26q29 26 66.5 43t65.5 17q14 0 23 -9t9 -23v-531q0 -104 -45.5 -164.5t-135.5 -60.5q-54 0 -89 27.5t-35 74.5q0 38 28 64
t70 26q19 0 19 -11q0 -3 -8 -13.5t-14 -24t-6 -34.5q0 -31 15.5 -48.5t39.5 -17.5q30 0 50 26.5t20 78.5v532q0 12 -4.5 17z" />
    <glyph glyph-name="k" unicode="k" horiz-adv-x="584" 
d="M253 236q-19 5 -19 21q0 8 3.5 13.5t11.5 5.5q3 0 20 -4.5t44 -4.5q37 0 63 15t39 39t13 49q0 30 -17.5 50.5t-49.5 20.5q-49 0 -86 -35t-56.5 -99t-19.5 -147q0 -48 7 -76.5t25 -52.5l12 -16l-12 -15h-175l-11 31l21 5q25 6 33.5 21.5t8.5 53.5v563q0 12 -4.5 17
t-15.5 5h-44l-9 26q29 26 66.5 43t65.5 17q14 0 23 -9t9 -23v-389q25 66 75.5 107.5t105.5 41.5q66 0 102 -38t36 -93q0 -35 -17.5 -68.5t-51 -57t-79.5 -28.5l78 -148q8 -16 18 -22t24 -6q13 0 27 7t26 19l21 -26q-46 -63 -107 -63q-30 0 -50.5 12t-35 33t-35.5 61l-74 141
z" />
    <glyph glyph-name="l" unicode="l" horiz-adv-x="302" 
d="M218 54q25 0 50 21l19 -26q-26 -29 -56 -46t-56 -17q-41 0 -59 25t-18 81v582q0 12 -4.5 17t-15.5 5h-44l-9 26q29 26 66 43t66 17q14 0 23 -9t9 -23l-1 -662q0 -34 30 -34z" />
    <glyph glyph-name="m" unicode="m" horiz-adv-x="941" 
d="M211 85q7 -28 25 -54l12 -16l-12 -15h-175l-11 31l21 5q25 6 33.5 21.5t8.5 53.5v281q0 12 -4.5 17t-15.5 5h-44l-9 26q29 26 66.5 43t65.5 17q14 0 23 -9t9 -23v-107q26 66 76 107.5t105 41.5q61 0 92 -36t36 -113q26 66 76 107.5t105 41.5q67 0 97.5 -43t30.5 -137
v-242q0 -34 30 -34q23 0 50 21l19 -26q-26 -29 -56 -46t-56 -17q-41 0 -59 25t-18 81v238q0 102 -74 102q-42 0 -74 -32.5t-51 -91.5t-20 -136v-12q0 -52 8.5 -82.5t35.5 -62.5l-12 -15h-122v330q0 102 -74 102q-43 0 -75.5 -34t-51 -96t-18.5 -142q0 -47 7 -75z" />
    <glyph glyph-name="n" unicode="n" horiz-adv-x="644" 
d="M211 85q7 -28 25 -54l12 -16l-12 -15h-175l-11 31l21 5q25 6 33.5 21.5t8.5 53.5v281q0 12 -4.5 17t-15.5 5h-44l-9 26q29 26 66.5 43t65.5 17q14 0 23 -9t9 -23v-107q26 65 78 107t109 42q70 0 102 -43t32 -137v-242q0 -34 30 -34q23 0 50 21l19 -26q-26 -29 -56 -46
t-56 -17q-41 0 -59 25t-18 81v238q0 102 -86 102q-43 0 -75.5 -34t-51 -96t-18.5 -142q0 -47 7 -75z" />
    <glyph glyph-name="o" unicode="o" horiz-adv-x="578" 
d="M74.5 387q29.5 59 85 91t129.5 32t129 -32t85 -91t30 -139q0 -79 -30 -138.5t-85 -91.5t-129 -32t-129.5 32t-85 91.5t-29.5 138.5q0 80 29.5 139zM415 341q-13 49 -43.5 83t-79.5 34q-42 0 -74.5 -26.5t-50.5 -74.5t-18 -110q0 -95 37 -151t100 -56q41 0 73.5 25.5
t50.5 72t18 107.5q0 47 -13 96z" />
    <glyph glyph-name="p" unicode="p" horiz-adv-x="595" 
d="M337 510q62 0 110.5 -31t75.5 -86t27 -125q0 -80 -28.5 -144.5t-78.5 -101t-113 -36.5q-59 0 -100 27q-9 6 -9 18q0 10 3.5 17.5t11.5 7.5q4 0 22.5 -8t48.5 -8q39 0 70.5 27t49 74.5t17.5 106.5q0 57 -17.5 101.5t-49 69.5t-72.5 25q-61 0 -112 -39v-560
q0 -38 8.5 -53.5t33.5 -21.5l21 -5l-11 -31h-174l-12 15l12 16q18 26 25 54t7 75v487q0 16 -4.5 23t-16.5 10l-52 11v33q16 14 61 27t78 13q24 0 24 -46v-5q65 63 144 63z" />
    <glyph glyph-name="q" unicode="q" horiz-adv-x="589" 
d="M497 -190.5q5 -24.5 19 -44.5l10 -16l-12 -15h-186v33l31 14q24 11 33 26t9 47v238q-41 -58 -84 -82t-93 -24q-48 0 -89 27.5t-65.5 82.5t-24.5 133q0 86 31.5 149.5t90 97.5t137.5 34q40 0 111 -13q63 -10 91 -12l11 -13l-12 -18q-7 -12 -10 -20t-3 -19v-533
q0 -48 5 -72.5zM182.5 108q32.5 -45 81.5 -45q40 0 75 22.5t62 68.5v270q-46 31 -98 31q-73 0 -113 -54.5t-40 -152.5q0 -95 32.5 -140z" />
    <glyph glyph-name="r" unicode="r" horiz-adv-x="437" 
d="M210 361q17 67 52.5 108t77.5 41t69.5 -27.5t27.5 -74.5q0 -38 -28 -64t-70 -26q-19 0 -19 11q0 3 8.5 15t14 25t5.5 29q0 18 -9.5 28.5t-23.5 10.5q-24 0 -49.5 -28.5t-43.5 -92t-18 -160.5q0 -45 7 -72.5t25 -52.5l12 -16l-12 -15h-175l-11 31l21 5q25 6 33.5 21.5
t8.5 53.5v281q0 12 -4.5 17t-15.5 5h-44l-9 26q29 26 66.5 43t65.5 17q14 0 23 -9t9 -23v-107h6z" />
    <glyph glyph-name="s" unicode="s" horiz-adv-x="481" 
d="M308.5 57.5q26.5 22.5 26.5 58.5q0 32 -27.5 52t-81.5 43q-49 20 -81.5 39t-55.5 49.5t-23 75.5q0 60 51.5 97.5t130.5 37.5q71 0 118 -28t47 -75q0 -38 -23.5 -62.5t-60.5 -24.5q-21 0 -21 13q0 4 7.5 20.5t7.5 35.5q0 37 -25 55t-57 18q-41 0 -64.5 -20.5t-23.5 -52.5
q0 -37 29.5 -59.5t87.5 -46.5q48 -20 80 -37.5t54 -44.5t22 -65q0 -68 -54 -109t-144 -41q-76 0 -125 34t-49 91q0 34 23 56t60 22q21 0 21 -12q0 -3 -6 -18.5t-6 -37.5q0 -42 29.5 -64t65.5 -22q41 0 67.5 22.5z" />
    <glyph glyph-name="t" unicode="t" horiz-adv-x="341" 
d="M320 497q0 -21 -6 -38t-17 -25h-107v-322q0 -31 9 -44t29 -13q30 0 68 32l19 -26q-26 -34 -62 -54.5t-68 -20.5q-41 0 -63.5 25.5t-22.5 70.5v352h-88q0 27 4 35t20 12q53 14 75.5 45.5t32.5 81.5q3 16 10.5 20t36.5 4v-135h130z" />
    <glyph glyph-name="u" unicode="u" horiz-adv-x="632" 
d="M544 57q23 0 49 18l19 -26q-23 -28 -53.5 -45.5t-56.5 -17.5q-40 0 -58.5 23t-18.5 73q-23 -44 -68.5 -70t-100.5 -26q-72 0 -112.5 43.5t-40.5 122.5v250q0 22 -20 22h-44l-9 26q26 26 63.5 43t68.5 17q14 0 23 -9t9 -23v-303q0 -60 24.5 -91t71.5 -31q67 0 104.5 58
t37.5 160q0 74 -8.5 115.5t-30.5 79.5l-12 16l12 15l122 13v-422q0 -31 29 -31z" />
    <glyph glyph-name="v" unicode="v" horiz-adv-x="553" 
d="M373.5 122q32.5 71 32.5 172q0 48 -11 93t-33 80l-10 16l12 13l119 14q5 -62 5 -106q0 -133 -30 -227.5t-80.5 -142.5t-109.5 -48q-52 0 -83.5 19.5t-50.5 63t-30 121.5l-31 212q-2 13 -6 17.5t-14 4.5h-44l-9 26q26 26 62 43t64 17q27 0 32 -32l45 -312q9 -62 26 -88.5
t50 -26.5q62 0 94.5 71z" />
    <glyph glyph-name="w" unicode="w" horiz-adv-x="813" 
d="M336 85.5q25 34.5 38.5 91t13.5 118.5q0 48 -11 93t-33 80l-10 16l12 13l117 13q5 -62 5 -106q0 -46 -5 -98l21 -140q9 -62 27 -88.5t53 -26.5q32 0 57 34.5t38.5 91t13.5 118.5q0 48 -11 93t-33 80l-10 16l12 13l117 13q5 -62 5 -106q0 -133 -27 -227.5t-72 -142.5
t-97 -48q-58 0 -90.5 28.5t-50.5 97.5q-27 -62 -65.5 -94t-82.5 -32q-52 0 -83.5 19.5t-50.5 63t-30 121.5l-31 212q-2 13 -6 17.5t-14 4.5h-44l-9 26q26 26 62 43t64 17q27 0 32 -32l45 -312q9 -62 26 -88.5t50 -26.5q32 0 57 34.5z" />
    <glyph glyph-name="x" unicode="x" horiz-adv-x="553" 
d="M473 423q-114 -114 -153 -156l111 -190q9 -16 19 -22t23 -6q18 0 38 13l22 -30q-43 -46 -93 -46q-67 0 -107 70l-81 138q-88 -102 -88 -131q0 -16 19 -32l19 -16l-12 -15h-155l-11 21l22 22q136 136 185 188l-109 188q-9 16 -19 22t-23 6q-18 0 -38 -13l-22 30
q43 46 93 46q67 0 107 -70l78 -136q88 100 88 130q0 16 -19 32l-19 16l12 15h155l11 -21z" />
    <glyph glyph-name="y" unicode="y" horiz-adv-x="610" 
d="M197 -257.5q-39 20.5 -58 53t-19 69.5q0 50 34 85.5t93 35.5q10 0 14.5 -3.5t4.5 -7.5t-14 -19t-24.5 -36t-10.5 -53q0 -40 23.5 -66.5t63.5 -26.5q62 0 91 51t29 137v148q-23 -44 -69 -69.5t-101 -25.5q-71 0 -111 43.5t-40 122.5v222q0 12 -4.5 17t-15.5 5h-44l-9 26
q26 26 63.5 43t68.5 17q14 0 23 -9t9 -23v-275q0 -60 24 -91t70 -31q67 0 104.5 50.5t37.5 139.5q0 82 -7 122t-32 73l-12 16l12 15l122 13v-533q0 -123 -59.5 -189.5t-162.5 -66.5q-55 0 -94 20.5z" />
    <glyph glyph-name="z" unicode="z" horiz-adv-x="479" 
d="M313 58q38 0 53.5 8.5t21.5 33.5l12 53l31 -11v-154l-12 -12q-21 14 -46.5 19t-72.5 5h-256l-11 31l281 408h-150q-38 0 -53.5 -8.5t-21.5 -33.5l-12 -53l-31 11v154l12 12q21 -14 46.5 -19t72.5 -5h249q20 -17 20 -43l-27 -16l-263 -380h157z" />
    <glyph glyph-name="braceleft" unicode="{" horiz-adv-x="316" 
d="M212.5 7q25.5 -62 76.5 -74l-7 -45q-106 13 -156 86.5t-50 185.5q0 78 -16.5 111t-59.5 41v38q43 8 59.5 41t16.5 111q0 112 50 185.5t156 86.5l7 -45q-51 -12 -76.5 -74t-25.5 -153q0 -80 -28.5 -120t-81.5 -51q52 -10 81 -50.5t29 -120.5q0 -91 25.5 -153z" />
    <glyph glyph-name="bar" unicode="|" horiz-adv-x="351" 
d="M126 -82v826h99v-826h-99z" />
    <glyph glyph-name="braceright" unicode="}" horiz-adv-x="316" 
d="M158 280.5q29 40.5 81 50.5q-53 11 -81.5 51t-28.5 120q0 91 -25.5 153t-76.5 74l7 45q106 -13 156 -86.5t50 -185.5q0 -78 16.5 -111t59.5 -41v-38q-43 -8 -59.5 -41t-16.5 -111q0 -112 -50 -185.5t-156 -86.5l-7 45q51 12 76.5 74t25.5 153q0 80 29 120.5z" />
    <glyph glyph-name="asciitilde" unicode="~" horiz-adv-x="621" 
d="M421 355q-27 0 -51.5 -8t-59.5 -24t-60 -24.5t-54 -8.5q-58 0 -97 32v76q46 -32 101 -32q27 0 51.5 8t59.5 24q37 16 61 24t53 8q59 0 97 -32v-76q-47 33 -101 33z" />
    <glyph glyph-name="uni00A0" unicode="&#xa0;" horiz-adv-x="275" 
 />
    <glyph glyph-name="exclamdown" unicode="&#xa1;" horiz-adv-x="246" 
d="M162.5 403.5q-21.5 -23.5 -39.5 -23.5q-19 0 -41 23t-22 43q0 19 22 42t41 23q17 0 39 -23t22 -42t-21.5 -42.5zM60 -245q0 57 11 198t27 301q5 45 25 45t25 -45q16 -160 27 -301t11 -198q-22 -25 -63 -25q-39 0 -63 25z" />
    <glyph glyph-name="cent" unicode="&#xa2;" horiz-adv-x="486" 
d="M421 215q3 3 9 3q8 0 16.5 -9t8.5 -19q0 -6 -3 -9q-61 -70 -151 -81v-159q-9 -12 -26.5 -18t-36.5 -6v183q-58 8 -102 43t-68.5 90.5t-24.5 124.5q0 105 52.5 174.5t142.5 85.5v160q10 12 27.5 18t35.5 6v-181q71 -4 115.5 -40.5t44.5 -92.5q0 -43 -27.5 -70.5
t-70.5 -27.5q-19 0 -19 11q0 3 7 14t12 27t5 41q0 40 -25.5 63.5t-68.5 23.5q-57 0 -92 -58t-35 -152q0 -89 39 -142t104 -53q71 0 131 50z" />
    <glyph glyph-name="sterling" unicode="&#xa3;" horiz-adv-x="596" 
d="M243 638.5q-38 -37.5 -38 -142.5q0 -30 6 -63t7 -39l6 -29h217q0 -45 -23 -63h-188q0 -55 -17.5 -109.5t-53.5 -101.5h397q0 -27 -8 -52t-26 -39h-466l-25 43q54 37 85 93t31 111q0 23 -5 55h-112q0 46 23 63h74l-6 22q-11 44 -16.5 71t-5.5 53q0 100 59.5 160.5
t181.5 60.5q83 0 142.5 -36t59.5 -101q0 -46 -31 -76t-76 -30q-12 0 -16.5 2t-4.5 10q0 3 8.5 16t15 30t6.5 40q0 42 -31 65.5t-72 23.5q-60 0 -98 -37.5z" />
    <glyph glyph-name="currency" unicode="&#xa4;" horiz-adv-x="625" 
d="M49 88q-8 16 -8 31l99 100q-35 57 -35 128t35 128l-115 118q11 12 27 19.5t32 7.5l98 -99q52 40 128 40q77 0 131 -41l115 115q12 -11 20 -27t8 -32l-102 -103q34 -58 34 -126q0 -66 -34 -124l118 -119q-32 -28 -61 -28l-98 101q-49 -42 -131 -42q-76 0 -126 39
l-115 -114q-12 12 -20 28zM385.5 232q31.5 43 31.5 118t-27 116.5t-74 41.5q-50 0 -81 -44t-31 -119t26.5 -115.5t72.5 -40.5q51 0 82.5 43z" />
    <glyph glyph-name="yen" unicode="&#xa5;" horiz-adv-x="626" 
d="M524 578l-68 -120h123q0 -19 -6 -36t-18 -27h-134l-52 -92v-7h210q0 -19 -6 -36t-18 -27h-186v-100q0 -45 14 -64t52 -29l23 -6l-12 -34h-219l-13 16l13 18q25 35 36 71.5t11 95.5v32h-208q0 46 23 63h184l-56 99h-151q0 46 23 63h92l-67 118q-27 48 -48 75t-52 51l13 16
h225l12 -34l-23 -6q-24 -6 -34.5 -16t-10.5 -28q0 -11 14 -34.5t17 -28.5l108 -189l113 202q12 23 12 41q0 20 -12.5 34t-29.5 19l-23 6l12 34h190l13 -16l-15 -18q-35 -42 -71 -106z" />
    <glyph glyph-name="brokenbar" unicode="&#xa6;" horiz-adv-x="351" 
d="M126 453v291h99v-291h-99zM126 -82v292h99v-292h-99z" />
    <glyph glyph-name="section" unicode="&#xa7;" horiz-adv-x="439" 
d="M166 660q-28 -26 -28 -72q0 -36 20.5 -76t72.5 -102q88 -104 88 -188q0 -27 -7 -51l-154 185q-42 50 -64 100t-22 93q0 74 44.5 128t139.5 54q65 0 107 -31t42 -80q0 -43 -28 -70.5t-70 -27.5q-19 0 -19 11q0 3 7 14t12 27t5 41q0 32 -21.5 51.5t-54.5 19.5
q-42 0 -70 -26zM273 -185q28 26 28 72q0 36 -20.5 76t-72.5 102q-88 104 -88 188q0 27 7 51l154 -185q42 -50 64 -100t22 -93q0 -74 -44.5 -128t-139.5 -54q-65 0 -107 31t-42 80q0 43 28 70.5t70 27.5q19 0 19 -11q0 -3 -7 -14t-12 -27t-5 -41q0 -32 21.5 -51.5t54.5 -19.5
q42 0 70 26z" />
    <glyph glyph-name="dieresis" unicode="&#xa8;" horiz-adv-x="421" 
d="M75.5 700.5q21.5 23.5 39.5 23.5q19 0 41 -23t22 -43q0 -19 -22 -42t-41 -23q-17 0 -39 23t-22 42t21.5 42.5zM264.5 700.5q21.5 23.5 39.5 23.5q19 0 41 -23t22 -43q0 -19 -22 -42t-41 -23q-17 0 -39 23t-22 42t21.5 42.5z" />
    <glyph glyph-name="copyright" unicode="&#xa9;" horiz-adv-x="778" 
d="M139 642.5q39 66.5 105.5 105.5t144.5 39t144.5 -39t105.5 -105.5t39 -144.5t-39 -144.5t-105.5 -105.5t-144.5 -39t-144.5 39t-105.5 105.5t-39 144.5t39 144.5zM161.5 366.5q35.5 -60.5 96 -96t131.5 -35.5t131.5 35.5t96 96t35.5 131.5t-35.5 131.5t-96 96
t-131.5 35.5t-131.5 -35.5t-96 -96t-35.5 -131.5t35.5 -131.5zM394 666q-57 0 -83 -48.5t-26 -116.5t30.5 -113.5t81.5 -45.5q66 0 102 54l26 -23q-49 -75 -132 -75q-86 0 -131.5 57t-45.5 146q0 88 45.5 145t132.5 57q49 0 88 -24l9 18h25v-109q-4 -7 -14 -10.5t-20 -3.5
l-13 52q-29 40 -75 40z" />
    <glyph glyph-name="ordfeminine" unicode="&#xaa;" horiz-adv-x="398" 
d="M196 689q-54 0 -54 -76q-18 -15 -40 -15q-17 0 -28 10.5t-11 27.5q0 26 18 47.5t49 34.5t66 13q64 0 93.5 -31t29.5 -98v-165q0 -17 14 -17t36 15l19 -26q-21 -22 -43.5 -35t-41.5 -13q-26 0 -40 12.5t-18 40.5q-17 -25 -43.5 -39t-59.5 -14q-42 0 -69.5 25.5t-27.5 65.5
q0 51 39 80.5t106 29.5q33 0 54 -4v57q0 74 -48 74zM223 444.5q20 28.5 21 73.5q-11 4 -39 4q-38 0 -58.5 -15.5t-20.5 -44.5q0 -22 11.5 -34t33.5 -12q32 0 52 28.5z" />
    <glyph glyph-name="guillemotleft" unicode="&#xab;" horiz-adv-x="506" 
d="M206.5 83q-20.5 -9 -45.5 -11q-67 109 -89 149t-22 58q0 17 22.5 58.5t88.5 148.5q25 -2 45.5 -11t40.5 -35q-14 -25 -48.5 -64.5t-88.5 -96.5q114 -120 137 -161q-20 -26 -40.5 -35zM415.5 83q-20.5 -9 -45.5 -11q-67 109 -89 149t-22 58q0 17 22.5 58.5t88.5 148.5
q25 -2 45.5 -11t40.5 -35q-14 -25 -48.5 -64.5t-88.5 -96.5q114 -120 137 -161q-20 -26 -40.5 -35z" />
    <glyph glyph-name="logicalnot" unicode="&#xac;" horiz-adv-x="621" 
d="M99 395h423v-227h-68v151h-355v76z" />
    <glyph glyph-name="uni00AD" unicode="&#xad;" horiz-adv-x="600" 
d="M39.5 292q6.5 20 19.5 30l263 10q0 -21 -6 -40.5t-20 -29.5l-263 -10q0 20 6.5 40z" />
    <glyph glyph-name="registered" unicode="&#xae;" horiz-adv-x="778" 
d="M139 642.5q39 66.5 105.5 105.5t144.5 39t144.5 -39t105.5 -105.5t39 -144.5t-39 -144.5t-105.5 -105.5t-144.5 -39t-144.5 39t-105.5 105.5t-39 144.5t39 144.5zM161.5 366.5q35.5 -60.5 96 -96t131.5 -35.5t131.5 35.5t96 96t35.5 131.5t-35.5 131.5t-96 96
t-131.5 35.5t-131.5 -35.5t-96 -96t-35.5 -131.5t35.5 -131.5zM392.5 463.5q-7.5 4.5 -22.5 4.5h-29v-119l33 -11q0 -21 -15 -33h-116v24l24 13q9 5 9 16v294l-33 12q0 9 4 18t11 14h110q79 0 115 -29t36 -77q0 -34 -18 -63t-54 -44q17 -17 20 -24l61 -113l31 -11
q0 -20 -13 -30h-87l-9 10l4 7q5 12 5 18q0 4 -7 18l-47 90q-5 11 -12.5 15.5zM371 505q41 0 60.5 22.5t19.5 58.5q0 32 -20 51t-63 19q-27 0 -27 -16v-135h30z" />
    <glyph glyph-name="macron" unicode="&#xaf;" horiz-adv-x="408" 
d="M62.5 662.5q6.5 22.5 19.5 34.5h269q0 -24 -6 -46t-20 -34h-269q0 23 6.5 45.5z" />
    <glyph glyph-name="degree" unicode="&#xb0;" horiz-adv-x="435" 
d="M87.5 681q47.5 50 129.5 50t130 -50t48 -135q0 -84 -48 -134.5t-130 -50.5q-81 0 -129 50.5t-48 134.5q0 85 47.5 135zM285.5 648.5q-23.5 35.5 -63.5 35.5q-43 0 -70 -38t-27 -103q0 -64 23.5 -99.5t63.5 -35.5q43 0 70 38t27 103q0 64 -23.5 99.5z" />
    <glyph glyph-name="plusminus" unicode="&#xb1;" horiz-adv-x="621" 
d="M99 395h174v174h75v-174h174v-76h-174v-173h-75v173h-174v76zM99 75h423v-76h-423v76z" />
    <glyph glyph-name="uni00B2" unicode="&#xb2;" horiz-adv-x="388" 
d="M27 326q94 77 143 128t66.5 87.5t17.5 74.5q0 33 -19.5 51t-46.5 18t-47 -18t-20 -49q0 -11 4.5 -22t5.5 -13q7 -12 7 -19q0 -11 -22 -11q-32 0 -53 19.5t-21 49.5q0 53 43 81.5t104 28.5q72 0 113 -30.5t41 -86.5t-53.5 -119.5t-147.5 -139.5h213q0 -46 -26 -68h-283z
" />
    <glyph glyph-name="uni00B3" unicode="&#xb3;" horiz-adv-x="388" 
d="M82.5 308q-43.5 27 -43.5 75q0 30 21.5 49.5t52.5 19.5q14 0 18.5 -2t4.5 -12q-1 -1 -3 -4.5t-3 -6.5q-1 -2 -6 -12.5t-5 -26.5q0 -26 19.5 -41.5t46.5 -15.5q31 0 53 20t22 57q0 31 -19 56.5t-70 25.5q-19 0 -39 -5q-2 -1 -9 -1q-19 0 -19 17q0 12 6.5 16.5t34.5 9.5
q61 12 82 37.5t21 56.5t-19 48t-45 17q-22 0 -38 -14t-16 -40q0 -21 11 -40l6 -11q0 -13 -22 -13q-32 0 -53 19t-21 49q0 46 39 71t95 25q60 0 104.5 -28.5t44.5 -80.5q0 -68 -76 -104q43 -15 65.5 -45.5t22.5 -69.5q0 -59 -42.5 -91t-117.5 -32q-60 0 -103.5 27z" />
    <glyph glyph-name="acute" unicode="&#xb4;" horiz-adv-x="288" 
d="M249.5 734.5q11.5 -16.5 11.5 -37.5q0 -22 -13 -39.5t-43 -32.5l-113 -56l-29 35l156 156q19 -9 30.5 -25.5z" />
    <glyph glyph-name="uni00B5" unicode="&#xb5;" horiz-adv-x="614" 
d="M440 9.5q-19 23.5 -19 72.5q-20 -42 -62 -69t-87 -27q-52 0 -87 34v-229l-103 13l-12 13l12 18q8 12 11 23t3 28v495q0 15 -4.5 22.5t-17.5 10.5l-52 11v33q18 14 63.5 27t76.5 13q12 0 17.5 -11t5.5 -35v-277q0 -60 25.5 -91t75.5 -31q59 0 97 47t38 120v189
q-1 13 -3.5 22.5t-10.5 22.5l-12 18l12 13l104 13v-498l-12 -14q-40 0 -59 23.5z" />
    <glyph glyph-name="paragraph" unicode="&#xb6;" horiz-adv-x="616" 
d="M445.5 -148q44.5 54 44.5 128v656q0 11 3 19t10 20l12 18l-11 13q-35 3 -84 11q-46 8 -77 11.5t-65 3.5q-61 0 -109 -24t-75 -67t-27 -100q0 -54 25.5 -114.5t78.5 -122.5l160 -185q52 -60 72.5 -100.5t20.5 -77.5q0 -46 -28 -72t-70 -26q-33 0 -54.5 19.5t-21.5 51.5
q0 26 5.5 42t12 26.5t6.5 13.5q0 11 -19 11q-42 0 -70 -27.5t-28 -70.5q0 -49 42 -80t107 -31q95 0 139.5 54zM244 358q-52 61 -76 114t-24 95q0 51 31.5 80t73.5 29q74 0 111.5 -48t37.5 -131v-317z" />
    <glyph glyph-name="periodcentered" unicode="&#xb7;" horiz-adv-x="191" 
d="M54.5 363.5q21.5 23.5 39.5 23.5q19 0 41 -23t22 -43q0 -19 -22 -42t-41 -23q-17 0 -39 23t-22 42t21.5 42.5z" />
    <glyph glyph-name="cedilla" unicode="&#xb8;" horiz-adv-x="350" 
d="M209 -230.5q17 22.5 17 53.5q0 30 -17.5 52t-49.5 22q-27 0 -55 -17l-20 18l118 153l24 -22l-77 -99q17 4 38 4q48 0 80.5 -29t32.5 -84q0 -31 -18 -58t-49 -42.5t-69 -15.5q-44 0 -76.5 20.5t-32.5 56.5q0 26 18.5 42t45.5 16q8 0 12.5 -3t4.5 -7q0 -3 -7 -14t-7 -30
q0 -17 12 -28t29 -11q29 0 46 22.5z" />
    <glyph glyph-name="uni00B9" unicode="&#xb9;" horiz-adv-x="319" 
d="M213 363.5q5 -21.5 20 -38.5l11 -13l-13 -17h-155l-11 31l34 9q18 5 24 13t6 32v262l-59 -38q-18 4 -33 18.5t-23 32.5l175 80q22 -5 37 -31l-18 -11v-272q0 -36 5 -57.5z" />
    <glyph glyph-name="ordmasculine" unicode="&#xba;" horiz-adv-x="435" 
d="M87.5 681q47.5 50 129.5 50t130 -50t48 -135q0 -84 -48 -134.5t-130 -50.5q-81 0 -129 50.5t-48 134.5q0 85 47.5 135zM152.5 446q27.5 -38 69.5 -38q40 0 63.5 35.5t23.5 96.5q0 65 -27.5 105.5t-70.5 40.5q-40 0 -63 -37.5t-23 -102.5q0 -62 27.5 -100z" />
    <glyph glyph-name="guillemotright" unicode="&#xbb;" horiz-adv-x="506" 
d="M187 279q-54 57 -88.5 96.5t-48.5 64.5q20 26 40.5 35t45.5 11q66 -107 88.5 -148.5t22.5 -58.5q0 -18 -22 -58t-89 -149q-25 2 -45.5 11t-40.5 35q23 41 137 161zM396 279q-54 57 -88.5 96.5t-48.5 64.5q20 26 40.5 35t45.5 11q66 -107 88.5 -148.5t22.5 -58.5
q0 -18 -22 -58t-89 -149q-25 2 -45.5 11t-40.5 35q23 41 137 161z" />
    <glyph glyph-name="onequarter" unicode="&#xbc;" horiz-adv-x="843" 
d="M213 363.5q5 -21.5 20 -38.5l11 -13l-13 -17h-155l-11 31l34 9q18 5 24 13t6 32v262l-59 -38q-18 4 -33 18.5t-23 32.5l175 80q22 -5 37 -31l-18 -11v-272q0 -36 5 -57.5zM219 0l299 718h72l-300 -718h-71zM771 57q5 -15 16 -27l11 -13l-12 -17h-155l-12 31l34 9
q18 5 24 13t6 32v10h-212l142 341h51l17 -15l-124 -275h126v74q0 18 -2.5 28.5t-11.5 24.5l12 14l82 9v-150h55q0 -35 -20 -51h-34q2 -23 7 -38z" />
    <glyph glyph-name="onehalf" unicode="&#xbd;" horiz-adv-x="860" 
d="M213 363.5q5 -21.5 20 -38.5l11 -13l-13 -17h-155l-11 31l34 9q18 5 24 13t6 32v262l-59 -38q-18 4 -33 18.5t-23 32.5l175 80q22 -5 37 -31l-18 -11v-272q0 -36 5 -57.5zM219 0l299 718h72l-300 -718h-71zM507 38q94 77 143 128t66.5 87.5t17.5 74.5q0 33 -19.5 51
t-46.5 18t-47 -18t-20 -49q0 -11 4.5 -22t5.5 -13q7 -12 7 -19q0 -11 -22 -11q-32 0 -53 19.5t-21 49.5q0 53 43 81.5t104 28.5q72 0 113 -30.5t41 -86.5t-53.5 -119.5t-147.5 -139.5h213q0 -46 -26 -68h-283z" />
    <glyph glyph-name="threequarters" unicode="&#xbe;" horiz-adv-x="869" 
d="M58.5 308q-43.5 27 -43.5 75q0 30 21.5 49.5t52.5 19.5q14 0 18.5 -2t4.5 -12q-1 -1 -3 -4.5t-3 -6.5q-1 -2 -6 -12.5t-5 -26.5q0 -26 19.5 -41.5t46.5 -15.5q31 0 53 20t22 57q0 31 -19 56.5t-70 25.5q-19 0 -39 -5q-2 -1 -9 -1q-19 0 -19 17q0 12 6.5 16.5t34.5 9.5
q61 12 82 37.5t21 56.5t-19 48t-45 17q-22 0 -38 -14t-16 -40q0 -21 11 -40l6 -11q0 -13 -22 -13q-32 0 -53 19t-21 49q0 46 39 71t95 25q60 0 104.5 -28.5t44.5 -80.5q0 -68 -76 -104q43 -15 65.5 -45.5t22.5 -69.5q0 -59 -42.5 -91t-117.5 -32q-60 0 -103.5 27zM245 0
l299 718h72l-300 -718h-71zM797 57q5 -15 16 -27l11 -13l-12 -17h-155l-12 31l34 9q18 5 24 13t6 32v10h-212l142 341h51l17 -15l-124 -275h126v74q0 18 -2.5 28.5t-11.5 24.5l12 14l82 9v-150h55q0 -35 -20 -51h-34q2 -23 7 -38z" />
    <glyph glyph-name="questiondown" unicode="&#xbf;" horiz-adv-x="538" 
d="M344.5 403.5q-21.5 -23.5 -39.5 -23.5q-19 0 -41 23t-22 43q0 19 22 42t41 23q17 0 39 -23t22 -42t-21.5 -42.5zM262 212.5q18 21.5 26 49.5l5 19h19l61 -62q-82 -72 -125 -126.5t-56.5 -94t-13.5 -79.5q0 -61 33 -92.5t89 -31.5q43 0 68.5 23.5t25.5 63.5q0 26 -5.5 42
t-12 26.5t-6.5 13.5q0 11 19 11q43 0 70.5 -27.5t27.5 -70.5q0 -40 -27 -72t-75 -49.5t-109 -17.5q-58 0 -106.5 20.5t-77 60t-28.5 94.5q0 106 141 241q39 37 57 58.5z" />
    <glyph glyph-name="Agrave" unicode="&#xc0;" horiz-adv-x="706" 
d="M445 34l23 6q24 6 34.5 16t10.5 28q0 16 -11 49l-48 140h-231l-24 -73q-23 -69 -23 -105q0 -34 14 -61l9 -18l-19 -16h-184l-12 34l23 6q40 11 58 29t34 64l157 452q11 33 11 49q0 18 -10.5 28t-34.5 16l-23 6l12 34h193l201 -580q16 -46 35 -70t55 -52l-13 -16h-225z
M244 335h189l-96 280zM423 790l-113 56q-30 15 -43 32.5t-13 39.5q0 21 11.5 37.5t30.5 25.5l156 -156z" />
    <glyph glyph-name="Aacute" unicode="&#xc1;" horiz-adv-x="706" 
d="M445 34l23 6q24 6 34.5 16t10.5 28q0 16 -11 49l-48 140h-231l-24 -73q-23 -69 -23 -105q0 -34 14 -61l9 -18l-19 -16h-184l-12 34l23 6q40 11 58 29t34 64l157 452q11 33 11 49q0 18 -10.5 28t-34.5 16l-23 6l12 34h193l201 -580q16 -46 35 -70t55 -52l-13 -16h-225z
M244 335h189l-96 280zM440.5 955.5q11.5 -16.5 11.5 -37.5q0 -22 -13 -39.5t-43 -32.5l-113 -56l-29 35l156 156q19 -9 30.5 -25.5z" />
    <glyph glyph-name="Acircumflex" unicode="&#xc2;" horiz-adv-x="706" 
d="M445 34l23 6q24 6 34.5 16t10.5 28q0 16 -11 49l-48 140h-231l-24 -73q-23 -69 -23 -105q0 -34 14 -61l9 -18l-19 -16h-184l-12 34l23 6q40 11 58 29t34 64l157 452q11 33 11 49q0 18 -10.5 28t-34.5 16l-23 6l12 34h193l201 -580q16 -46 35 -70t55 -52l-13 -16h-225z
M244 335h189l-96 280zM422 919q37 -46 68 -101l-32 -28l-105 83l-104 -83l-33 28q32 56 68 101t56 57h27q18 -11 55 -57z" />
    <glyph glyph-name="Atilde" unicode="&#xc3;" horiz-adv-x="706" 
d="M445 34l23 6q24 6 34.5 16t10.5 28q0 16 -11 49l-48 140h-231l-24 -73q-23 -69 -23 -105q0 -34 14 -61l9 -18l-19 -16h-184l-12 34l23 6q40 11 58 29t34 64l157 452q11 33 11 49q0 18 -10.5 28t-34.5 16l-23 6l12 34h193l201 -580q16 -46 35 -70t55 -52l-13 -16h-225z
M244 335h189l-96 280zM448 842q-34 -26 -62 -26q-16 0 -29 5.5t-27 14.5q-13 8 -21 11.5t-18 3.5q-28 0 -67 -39l-35 31q33 45 66.5 71t62.5 26q15 0 26.5 -5t27.5 -14q14 -8 22 -12t18 -4q28 0 68 39l34 -31q-32 -45 -66 -71z" />
    <glyph glyph-name="Adieresis" unicode="&#xc4;" horiz-adv-x="706" 
d="M445 34l23 6q24 6 34.5 16t10.5 28q0 16 -11 49l-48 140h-231l-24 -73q-23 -69 -23 -105q0 -34 14 -61l9 -18l-19 -16h-184l-12 34l23 6q40 11 58 29t34 64l157 452q11 33 11 49q0 18 -10.5 28t-34.5 16l-23 6l12 34h193l201 -580q16 -46 35 -70t55 -52l-13 -16h-225z
M244 335h189l-96 280zM217.5 921.5q21.5 23.5 39.5 23.5q19 0 41 -23t22 -43q0 -19 -22 -42t-41 -23q-17 0 -39 23t-22 42t21.5 42.5zM406.5 921.5q21.5 23.5 39.5 23.5q19 0 41 -23t22 -43q0 -19 -22 -42t-41 -23q-17 0 -39 23t-22 42t21.5 42.5z" />
    <glyph glyph-name="Aring" unicode="&#xc5;" horiz-adv-x="706" 
d="M445 34l23 6q24 6 34.5 16t10.5 28q0 16 -11 49l-48 140h-231l-24 -73q-23 -69 -23 -105q0 -34 14 -61l9 -18l-19 -16h-184l-12 34l23 6q40 11 58 29t34 64l157 452q11 33 11 49q0 18 -10.5 28t-34.5 16l-23 6l12 34h193l201 -580q16 -46 35 -70t55 -52l-13 -16h-225z
M244 335h189l-96 280zM268 956q29 30 83 30q56 0 85.5 -30t29.5 -77t-29.5 -76.5t-85.5 -29.5q-54 0 -83 29.5t-29 76.5t29 77zM320 837.5q11 -16.5 31 -16.5q21 0 32.5 16.5t11.5 41.5t-11.5 41.5t-32.5 16.5q-20 0 -31 -16.5t-11 -41.5t11 -41.5z" />
    <glyph glyph-name="AE" unicode="&#xc6;" horiz-adv-x="964" 
d="M580 133q0 -32 5 -48t18.5 -22t40.5 -6h108q36 0 56 7.5t31.5 26t21.5 55.5l6 23l34 -12v-171l-20 -11l-8 11q-11 14 -42 14h-421l-11 32l21 6q37 11 49 28t12 60v180h-198l-83 -152q-14 -25 -17.5 -40.5t-3.5 -34.5q0 -16 13 -45l9 -18l-19 -16h-184l-12 34l23 6
q28 8 46 18.5t32 35.5l348 624h307q86 0 114 21l18 13l16 -13v-178l-34 -12l-6 23q-10 37 -21.5 55.5t-31.5 26t-56 7.5h-97q-27 0 -40.5 -6t-18.5 -22t-5 -48v-222h127q24 0 42.5 10.5t36.5 35.5l8 11l20 -11v-171l-34 -12l-6 23q-9 34 -31.5 45.5t-77.5 11.5h-85v-173z
M481 363v302l-166 -302h166z" />
    <glyph glyph-name="Ccedilla" unicode="&#xc7;" horiz-adv-x="617" 
d="M579.5 139.5q11.5 -9.5 11.5 -18.5q0 -3 -3 -8q-86 -127 -233 -127q-19 0 -29 1l-44 -57q17 4 38 4q48 0 80.5 -29t32.5 -84q0 -31 -18 -58t-49 -42.5t-69 -15.5q-44 0 -76.5 20.5t-32.5 56.5q0 26 18.5 42t45.5 16q8 0 12.5 -3t4.5 -7q0 -3 -7 -14t-7 -30q0 -17 12 -28
t29 -11q29 0 46 22.5t17 53.5q0 30 -17.5 52t-49.5 22q-27 0 -55 -17l-20 18l72 94q-124 22 -189 122t-65 244q0 106 36 190.5t108.5 134t178.5 49.5q65 0 116.5 -18.5t80 -52t28.5 -76.5q0 -51 -30.5 -84t-76.5 -33q-21 0 -21 12q0 3 8.5 17t15 31.5t6.5 42.5q0 47 -35 76
t-92 29q-74 0 -121 -46t-68 -118t-21 -154q0 -84 26.5 -153t75.5 -109.5t114 -40.5q64 0 111 23.5t77 66.5q3 4 7 4q9 0 20.5 -9.5z" />
    <glyph glyph-name="Egrave" unicode="&#xc8;" horiz-adv-x="610" 
d="M226 133q0 -32 5 -48t18.5 -22t40.5 -6h108q36 0 56 7.5t31.5 26t21.5 55.5l6 23l34 -12v-171l-20 -11l-8 11q-11 14 -42 14h-421l-11 32l21 6q37 11 49 28t12 60v391q0 60 -10 97t-35 70l-13 18l13 16h306q86 0 114 21l18 13l16 -13v-178l-34 -12l-6 23
q-10 37 -21.5 55.5t-31.5 26t-56 7.5h-97q-27 0 -40.5 -6t-18.5 -22t-5 -48v-192h127q24 0 42.5 10.5t36.5 35.5l8 11l20 -11v-171l-34 -12l-6 23q-9 34 -31.5 45.5t-77.5 11.5h-85v-203zM379 790l-113 56q-30 15 -43 32.5t-13 39.5q0 21 11.5 37.5t30.5 25.5l156 -156z" />
    <glyph glyph-name="Eacute" unicode="&#xc9;" horiz-adv-x="610" 
d="M226 133q0 -32 5 -48t18.5 -22t40.5 -6h108q36 0 56 7.5t31.5 26t21.5 55.5l6 23l34 -12v-171l-20 -11l-8 11q-11 14 -42 14h-421l-11 32l21 6q37 11 49 28t12 60v391q0 60 -10 97t-35 70l-13 18l13 16h306q86 0 114 21l18 13l16 -13v-178l-34 -12l-6 23
q-10 37 -21.5 55.5t-31.5 26t-56 7.5h-97q-27 0 -40.5 -6t-18.5 -22t-5 -48v-192h127q24 0 42.5 10.5t36.5 35.5l8 11l20 -11v-171l-34 -12l-6 23q-9 34 -31.5 45.5t-77.5 11.5h-85v-203zM426.5 955.5q11.5 -16.5 11.5 -37.5q0 -22 -13 -39.5t-43 -32.5l-113 -56l-29 35
l156 156q19 -9 30.5 -25.5z" />
    <glyph glyph-name="Ecircumflex" unicode="&#xca;" horiz-adv-x="610" 
d="M226 133q0 -32 5 -48t18.5 -22t40.5 -6h108q36 0 56 7.5t31.5 26t21.5 55.5l6 23l34 -12v-171l-20 -11l-8 11q-11 14 -42 14h-421l-11 32l21 6q37 11 49 28t12 60v391q0 60 -10 97t-35 70l-13 18l13 16h306q86 0 114 21l18 13l16 -13v-178l-34 -12l-6 23
q-10 37 -21.5 55.5t-31.5 26t-56 7.5h-97q-27 0 -40.5 -6t-18.5 -22t-5 -48v-192h127q24 0 42.5 10.5t36.5 35.5l8 11l20 -11v-171l-34 -12l-6 23q-9 34 -31.5 45.5t-77.5 11.5h-85v-203zM388 919q37 -46 68 -101l-32 -28l-105 83l-104 -83l-33 28q32 56 68 101t56 57h27
q18 -11 55 -57z" />
    <glyph glyph-name="Edieresis" unicode="&#xcb;" horiz-adv-x="610" 
d="M226 133q0 -32 5 -48t18.5 -22t40.5 -6h108q36 0 56 7.5t31.5 26t21.5 55.5l6 23l34 -12v-171l-20 -11l-8 11q-11 14 -42 14h-421l-11 32l21 6q37 11 49 28t12 60v391q0 60 -10 97t-35 70l-13 18l13 16h306q86 0 114 21l18 13l16 -13v-178l-34 -12l-6 23
q-10 37 -21.5 55.5t-31.5 26t-56 7.5h-97q-27 0 -40.5 -6t-18.5 -22t-5 -48v-192h127q24 0 42.5 10.5t36.5 35.5l8 11l20 -11v-171l-34 -12l-6 23q-9 34 -31.5 45.5t-77.5 11.5h-85v-203zM183.5 921.5q21.5 23.5 39.5 23.5q19 0 41 -23t22 -43q0 -19 -22 -42t-41 -23
q-17 0 -39 23t-22 42t21.5 42.5zM372.5 921.5q21.5 23.5 39.5 23.5q19 0 41 -23t22 -43q0 -19 -22 -42t-41 -23q-17 0 -39 23t-22 42t21.5 42.5z" />
    <glyph glyph-name="Igrave" unicode="&#xcc;" horiz-adv-x="353" 
d="M40 34l23 6q38 11 51 29t13 64v452q0 46 -13 64t-51 29l-23 6l12 34h219l13 -16l-13 -18q-25 -33 -35 -70t-10 -97v-391q0 -43 12 -60t49 -28l21 -6l-11 -32h-245zM246 790l-113 56q-30 15 -43 32.5t-13 39.5q0 21 11.5 37.5t30.5 25.5l156 -156z" />
    <glyph glyph-name="Iacute" unicode="&#xcd;" horiz-adv-x="353" 
d="M40 34l23 6q38 11 51 29t13 64v452q0 46 -13 64t-51 29l-23 6l12 34h219l13 -16l-13 -18q-25 -33 -35 -70t-10 -97v-391q0 -43 12 -60t49 -28l21 -6l-11 -32h-245zM273.5 955.5q11.5 -16.5 11.5 -37.5q0 -22 -13 -39.5t-43 -32.5l-113 -56l-29 35l156 156
q19 -9 30.5 -25.5z" />
    <glyph glyph-name="Icircumflex" unicode="&#xce;" horiz-adv-x="353" 
d="M40 34l23 6q38 11 51 29t13 64v452q0 46 -13 64t-51 29l-23 6l12 34h219l13 -16l-13 -18q-25 -33 -35 -70t-10 -97v-391q0 -43 12 -60t49 -28l21 -6l-11 -32h-245zM245 919q37 -46 68 -101l-32 -28l-105 83l-104 -83l-33 28q32 56 68 101t56 57h27q18 -11 55 -57z" />
    <glyph glyph-name="Idieresis" unicode="&#xcf;" horiz-adv-x="353" 
d="M40 34l23 6q38 11 51 29t13 64v452q0 46 -13 64t-51 29l-23 6l12 34h219l13 -16l-13 -18q-25 -33 -35 -70t-10 -97v-391q0 -43 12 -60t49 -28l21 -6l-11 -32h-245zM41.5 921.5q21.5 23.5 39.5 23.5q19 0 41 -23t22 -43q0 -19 -22 -42t-41 -23q-17 0 -39 23t-22 42
t21.5 42.5zM230.5 921.5q21.5 23.5 39.5 23.5q19 0 41 -23t22 -43q0 -19 -22 -42t-41 -23q-17 0 -39 23t-22 42t21.5 42.5z" />
    <glyph glyph-name="Eth" unicode="&#xd0;" horiz-adv-x="733" 
d="M606.5 628.5q91.5 -103.5 91.5 -270.5q0 -102 -37.5 -183t-112 -128t-182.5 -47h-314l-12 34l23 6q32 9 48 26.5t16 55.5v210h-117q0 46 23 63h94v232q0 13 -5 18.5t-17 5.5h-58l-12 37q48 17 124 30.5t147 13.5q209 0 300.5 -103.5zM589 360q0 84 -29 156t-88.5 116
t-147.5 44q-98 0 -98 -46v-235h195q0 -45 -23 -63h-172v-157q0 -71 29.5 -97.5t78.5 -26.5q255 0 255 309z" />
    <glyph glyph-name="Ntilde" unicode="&#xd1;" horiz-adv-x="779" 
d="M191 201q0 -60 10 -97t35 -70l13 -18l-13 -16h-190l-12 34l23 6q38 11 51 29t13 64v452q0 46 -13 64t-51 29l-23 6l12 34h161l382 -567v434q0 46 -13 64t-51 29l-23 6l12 34h190l13 -16l-13 -18q-25 -33 -35 -70t-10 -97v-429q0 -19 3 -31t11 -23l13 -18l-13 -16h-101
l-381 565v-364zM494 842q-34 -26 -62 -26q-16 0 -29 5.5t-27 14.5q-13 8 -21 11.5t-18 3.5q-28 0 -67 -39l-35 31q33 45 66.5 71t62.5 26q15 0 26.5 -5t27.5 -14q14 -8 22 -12t18 -4q28 0 68 39l34 -31q-32 -45 -66 -71z" />
    <glyph glyph-name="Ograve" unicode="&#xd2;" horiz-adv-x="733" 
d="M72 548.5q37 84.5 111.5 134t182.5 49.5t182.5 -49.5t112 -134t37.5 -190.5t-37.5 -190t-112 -133t-182.5 -49t-182.5 49t-111.5 133t-37 190t37 190.5zM568.5 500.5q-20.5 73.5 -69.5 124t-128 50.5q-71 0 -122.5 -43.5t-78.5 -117.5t-27 -164q0 -87 25 -156t74.5 -109
t119.5 -40t121.5 41t78.5 111.5t27 157.5q0 72 -20.5 145.5zM436 790l-113 56q-30 15 -43 32.5t-13 39.5q0 21 11.5 37.5t30.5 25.5l156 -156z" />
    <glyph glyph-name="Oacute" unicode="&#xd3;" horiz-adv-x="733" 
d="M72 548.5q37 84.5 111.5 134t182.5 49.5t182.5 -49.5t112 -134t37.5 -190.5t-37.5 -190t-112 -133t-182.5 -49t-182.5 49t-111.5 133t-37 190t37 190.5zM568.5 500.5q-20.5 73.5 -69.5 124t-128 50.5q-71 0 -122.5 -43.5t-78.5 -117.5t-27 -164q0 -87 25 -156t74.5 -109
t119.5 -40t121.5 41t78.5 111.5t27 157.5q0 72 -20.5 145.5zM453.5 955.5q11.5 -16.5 11.5 -37.5q0 -22 -13 -39.5t-43 -32.5l-113 -56l-29 35l156 156q19 -9 30.5 -25.5z" />
    <glyph glyph-name="Ocircumflex" unicode="&#xd4;" horiz-adv-x="733" 
d="M72 548.5q37 84.5 111.5 134t182.5 49.5t182.5 -49.5t112 -134t37.5 -190.5t-37.5 -190t-112 -133t-182.5 -49t-182.5 49t-111.5 133t-37 190t37 190.5zM568.5 500.5q-20.5 73.5 -69.5 124t-128 50.5q-71 0 -122.5 -43.5t-78.5 -117.5t-27 -164q0 -87 25 -156t74.5 -109
t119.5 -40t121.5 41t78.5 111.5t27 157.5q0 72 -20.5 145.5zM435 919q37 -46 68 -101l-32 -28l-105 83l-104 -83l-33 28q32 56 68 101t56 57h27q18 -11 55 -57z" />
    <glyph glyph-name="Otilde" unicode="&#xd5;" horiz-adv-x="733" 
d="M72 548.5q37 84.5 111.5 134t182.5 49.5t182.5 -49.5t112 -134t37.5 -190.5t-37.5 -190t-112 -133t-182.5 -49t-182.5 49t-111.5 133t-37 190t37 190.5zM568.5 500.5q-20.5 73.5 -69.5 124t-128 50.5q-71 0 -122.5 -43.5t-78.5 -117.5t-27 -164q0 -87 25 -156t74.5 -109
t119.5 -40t121.5 41t78.5 111.5t27 157.5q0 72 -20.5 145.5zM463 842q-34 -26 -62 -26q-16 0 -29 5.5t-27 14.5q-13 8 -21 11.5t-18 3.5q-28 0 -67 -39l-35 31q33 45 66.5 71t62.5 26q15 0 26.5 -5t27.5 -14q14 -8 22 -12t18 -4q28 0 68 39l34 -31q-32 -45 -66 -71z" />
    <glyph glyph-name="Odieresis" unicode="&#xd6;" horiz-adv-x="733" 
d="M72 548.5q37 84.5 111.5 134t182.5 49.5t182.5 -49.5t112 -134t37.5 -190.5t-37.5 -190t-112 -133t-182.5 -49t-182.5 49t-111.5 133t-37 190t37 190.5zM568.5 500.5q-20.5 73.5 -69.5 124t-128 50.5q-71 0 -122.5 -43.5t-78.5 -117.5t-27 -164q0 -87 25 -156t74.5 -109
t119.5 -40t121.5 41t78.5 111.5t27 157.5q0 72 -20.5 145.5zM231.5 921.5q21.5 23.5 39.5 23.5q19 0 41 -23t22 -43q0 -19 -22 -42t-41 -23q-17 0 -39 23t-22 42t21.5 42.5zM420.5 921.5q21.5 23.5 39.5 23.5q19 0 41 -23t22 -43q0 -19 -22 -42t-41 -23q-17 0 -39 23t-22 42
t21.5 42.5z" />
    <glyph glyph-name="multiply" unicode="&#xd7;" horiz-adv-x="621" 
d="M112 212l144 145l-144 145l54 54l144 -145l145 145l54 -54l-145 -145l145 -145l-54 -54l-145 145l-144 -145z" />
    <glyph glyph-name="Oslash" unicode="&#xd8;" horiz-adv-x="733" 
d="M653 564q45 -90 45 -206q0 -106 -37.5 -190t-112 -133t-182.5 -49q-47 0 -93 11l-21 -60h-71l29 83q-86 42 -130.5 131.5t-44.5 206.5q0 106 37 190.5t111.5 134t182.5 49.5q47 0 93 -11l21 60h72l-30 -83q86 -44 131 -134zM166.5 198q23.5 -68 68.5 -107l203 572
q-30 12 -67 12q-71 0 -122.5 -43.5t-78.5 -117.5t-27 -164q0 -84 23.5 -152zM483.5 86q51.5 41 78.5 111.5t27 157.5q0 75 -22 150.5t-70 120.5l-203 -570q33 -11 68 -11q70 0 121.5 41z" />
    <glyph glyph-name="Ugrave" unicode="&#xd9;" horiz-adv-x="739" 
d="M260 95q50 -46 126 -46t126 46t50 125v365q0 46 -13 64t-51 29l-23 6l12 34h190l13 -16l-13 -18q-25 -33 -35 -70t-10 -97v-297q0 -118 -72 -176t-187 -58q-117 0 -189.5 58t-72.5 176v365q0 46 -13 64t-51 29l-23 6l12 34h219l13 -16l-13 -18q-25 -33 -35 -70t-10 -97
v-297q0 -79 50 -125zM439 790l-113 56q-30 15 -43 32.5t-13 39.5q0 21 11.5 37.5t30.5 25.5l156 -156z" />
    <glyph glyph-name="Uacute" unicode="&#xda;" horiz-adv-x="739" 
d="M260 95q50 -46 126 -46t126 46t50 125v365q0 46 -13 64t-51 29l-23 6l12 34h190l13 -16l-13 -18q-25 -33 -35 -70t-10 -97v-297q0 -118 -72 -176t-187 -58q-117 0 -189.5 58t-72.5 176v365q0 46 -13 64t-51 29l-23 6l12 34h219l13 -16l-13 -18q-25 -33 -35 -70t-10 -97
v-297q0 -79 50 -125zM492.5 955.5q11.5 -16.5 11.5 -37.5q0 -22 -13 -39.5t-43 -32.5l-113 -56l-29 35l156 156q19 -9 30.5 -25.5z" />
    <glyph glyph-name="Ucircumflex" unicode="&#xdb;" horiz-adv-x="739" 
d="M260 95q50 -46 126 -46t126 46t50 125v365q0 46 -13 64t-51 29l-23 6l12 34h190l13 -16l-13 -18q-25 -33 -35 -70t-10 -97v-297q0 -118 -72 -176t-187 -58q-117 0 -189.5 58t-72.5 176v365q0 46 -13 64t-51 29l-23 6l12 34h219l13 -16l-13 -18q-25 -33 -35 -70t-10 -97
v-297q0 -79 50 -125zM455 919q37 -46 68 -101l-32 -28l-105 83l-104 -83l-33 28q32 56 68 101t56 57h27q18 -11 55 -57z" />
    <glyph glyph-name="Udieresis" unicode="&#xdc;" horiz-adv-x="739" 
d="M260 95q50 -46 126 -46t126 46t50 125v365q0 46 -13 64t-51 29l-23 6l12 34h190l13 -16l-13 -18q-25 -33 -35 -70t-10 -97v-297q0 -118 -72 -176t-187 -58q-117 0 -189.5 58t-72.5 176v365q0 46 -13 64t-51 29l-23 6l12 34h219l13 -16l-13 -18q-25 -33 -35 -70t-10 -97
v-297q0 -79 50 -125zM247.5 921.5q21.5 23.5 39.5 23.5q19 0 41 -23t22 -43q0 -19 -22 -42t-41 -23q-17 0 -39 23t-22 42t21.5 42.5zM436.5 921.5q21.5 23.5 39.5 23.5q19 0 41 -23t22 -43q0 -19 -22 -42t-41 -23q-17 0 -39 23t-22 42t21.5 42.5z" />
    <glyph glyph-name="Yacute" unicode="&#xdd;" horiz-adv-x="626" 
d="M439 584q12 23 12 41q0 20 -12.5 34t-29.5 19l-23 6l12 34h190l13 -16l-15 -18q-35 -42 -71 -106l-155 -275v-170q0 -45 14 -64t52 -29l23 -6l-12 -34h-219l-13 16l13 18q25 35 36 71.5t11 95.5v94l-160 281q-27 48 -48 75t-52 51l13 16h225l12 -34l-23 -6
q-24 -6 -34.5 -16t-10.5 -28q0 -11 14 -34.5t17 -28.5l108 -189zM447.5 955.5q11.5 -16.5 11.5 -37.5q0 -22 -13 -39.5t-43 -32.5l-113 -56l-29 35l156 156q19 -9 30.5 -25.5z" />
    <glyph glyph-name="Thorn" unicode="&#xde;" horiz-adv-x="596" 
d="M40 34l23 6q38 11 51 29t13 64v452q0 46 -13 64t-51 29l-23 6l12 34h219l13 -16l-13 -18q-18 -24 -28 -48t-14 -55q56 20 111 20q67 0 121 -31.5t84.5 -86t30.5 -120.5q0 -65 -26 -117.5t-80 -84t-134 -31.5q-37 0 -62.5 9t-25.5 26q0 10 4 17t12 7q4 0 16.5 -3.5
t32.5 -3.5q75 0 117 48t42 130q0 83 -41.5 135.5t-117.5 52.5q-87 0 -87 -50v-372q0 -43 12 -60t49 -28l21 -6l-11 -32h-245z" />
    <glyph glyph-name="germandbls" unicode="&#xdf;" horiz-adv-x="635" 
d="M501 56q28 20 28 61q0 38 -25.5 67t-73.5 54l-75 38q-41 26 -59.5 51.5t-18.5 67.5q0 25 15 50.5t45 63.5q36 47 53.5 78.5t17.5 66.5q0 41 -23.5 58.5t-58.5 17.5q-65 0 -96 -51t-31 -137v-341q0 -60 10 -97t35 -70l13 -18l-13 -16h-219l-12 34l23 6q38 11 51 29t13 64
v393q0 81 31.5 139t88 87.5t130.5 29.5q65 0 107 -33t42 -95q0 -34 -18 -61.5t-54 -65.5q-31 -34 -46 -56t-15 -47t12.5 -43.5t40.5 -32.5l71 -36q127 -65 127 -167q0 -43 -23 -79.5t-64.5 -58t-94.5 -21.5q-68 0 -115 25q-9 6 -9 20q0 10 3.5 17.5t11.5 7.5q7 0 20 -5
q43 -15 90 -15q37 0 65 20z" />
    <glyph glyph-name="agrave" unicode="&#xe0;" horiz-adv-x="604" 
d="M317 10q-43 -24 -93 -24q-48 0 -89 27.5t-65.5 82.5t-24.5 133q0 86 31.5 149.5t90 97.5t137.5 34q39 0 110 -13q60 -10 90 -12l11 -13l-12 -18q-7 -10 -10 -18.5t-3 -20.5v-327q0 -31 30 -31q25 0 50 18l19 -26q-26 -29 -56 -46t-55 -17q-41 0 -59 25t-18 81
q-41 -58 -84 -82zM182.5 108q32.5 -45 81.5 -45q40 0 75 22.5t62 68.5v270q-46 31 -98 31q-73 0 -113 -54.5t-40 -152.5q0 -95 32.5 -140zM372 569l-113 56q-30 15 -43 32.5t-13 39.5q0 21 11.5 37.5t30.5 25.5l156 -156z" />
    <glyph glyph-name="aacute" unicode="&#xe1;" horiz-adv-x="604" 
d="M317 10q-43 -24 -93 -24q-48 0 -89 27.5t-65.5 82.5t-24.5 133q0 86 31.5 149.5t90 97.5t137.5 34q39 0 110 -13q60 -10 90 -12l11 -13l-12 -18q-7 -10 -10 -18.5t-3 -20.5v-327q0 -31 30 -31q25 0 50 18l19 -26q-26 -29 -56 -46t-55 -17q-41 0 -59 25t-18 81
q-41 -58 -84 -82zM182.5 108q32.5 -45 81.5 -45q40 0 75 22.5t62 68.5v270q-46 31 -98 31q-73 0 -113 -54.5t-40 -152.5q0 -95 32.5 -140zM389.5 734.5q11.5 -16.5 11.5 -37.5q0 -22 -13 -39.5t-43 -32.5l-113 -56l-29 35l156 156q19 -9 30.5 -25.5z" />
    <glyph glyph-name="acircumflex" unicode="&#xe2;" horiz-adv-x="604" 
d="M317 10q-43 -24 -93 -24q-48 0 -89 27.5t-65.5 82.5t-24.5 133q0 86 31.5 149.5t90 97.5t137.5 34q39 0 110 -13q60 -10 90 -12l11 -13l-12 -18q-7 -10 -10 -18.5t-3 -20.5v-327q0 -31 30 -31q25 0 50 18l19 -26q-26 -29 -56 -46t-55 -17q-41 0 -59 25t-18 81
q-41 -58 -84 -82zM182.5 108q32.5 -45 81.5 -45q40 0 75 22.5t62 68.5v270q-46 31 -98 31q-73 0 -113 -54.5t-40 -152.5q0 -95 32.5 -140zM371 698q37 -46 68 -101l-32 -28l-105 83l-104 -83l-33 28q32 56 68 101t56 57h27q18 -11 55 -57z" />
    <glyph glyph-name="atilde" unicode="&#xe3;" horiz-adv-x="604" 
d="M317 10q-43 -24 -93 -24q-48 0 -89 27.5t-65.5 82.5t-24.5 133q0 86 31.5 149.5t90 97.5t137.5 34q39 0 110 -13q60 -10 90 -12l11 -13l-12 -18q-7 -10 -10 -18.5t-3 -20.5v-327q0 -31 30 -31q25 0 50 18l19 -26q-26 -29 -56 -46t-55 -17q-41 0 -59 25t-18 81
q-41 -58 -84 -82zM182.5 108q32.5 -45 81.5 -45q40 0 75 22.5t62 68.5v270q-46 31 -98 31q-73 0 -113 -54.5t-40 -152.5q0 -95 32.5 -140zM398 621q-34 -26 -62 -26q-16 0 -29 5.5t-27 14.5q-13 8 -21 11.5t-18 3.5q-28 0 -67 -39l-35 31q33 45 66.5 71t62.5 26
q15 0 26.5 -5t27.5 -14q14 -8 22 -12t18 -4q28 0 68 39l34 -31q-32 -45 -66 -71z" />
    <glyph glyph-name="adieresis" unicode="&#xe4;" horiz-adv-x="604" 
d="M317 10q-43 -24 -93 -24q-48 0 -89 27.5t-65.5 82.5t-24.5 133q0 86 31.5 149.5t90 97.5t137.5 34q39 0 110 -13q60 -10 90 -12l11 -13l-12 -18q-7 -10 -10 -18.5t-3 -20.5v-327q0 -31 30 -31q25 0 50 18l19 -26q-26 -29 -56 -46t-55 -17q-41 0 -59 25t-18 81
q-41 -58 -84 -82zM182.5 108q32.5 -45 81.5 -45q40 0 75 22.5t62 68.5v270q-46 31 -98 31q-73 0 -113 -54.5t-40 -152.5q0 -95 32.5 -140zM166.5 700.5q21.5 23.5 39.5 23.5q19 0 41 -23t22 -43q0 -19 -22 -42t-41 -23q-17 0 -39 23t-22 42t21.5 42.5zM355.5 700.5
q21.5 23.5 39.5 23.5q19 0 41 -23t22 -43q0 -19 -22 -42t-41 -23q-17 0 -39 23t-22 42t21.5 42.5z" />
    <glyph glyph-name="aring" unicode="&#xe5;" horiz-adv-x="604" 
d="M317 10q-43 -24 -93 -24q-48 0 -89 27.5t-65.5 82.5t-24.5 133q0 86 31.5 149.5t90 97.5t137.5 34q39 0 110 -13q60 -10 90 -12l11 -13l-12 -18q-7 -10 -10 -18.5t-3 -20.5v-327q0 -31 30 -31q25 0 50 18l19 -26q-26 -29 -56 -46t-55 -17q-41 0 -59 25t-18 81
q-41 -58 -84 -82zM182.5 108q32.5 -45 81.5 -45q40 0 75 22.5t62 68.5v270q-46 31 -98 31q-73 0 -113 -54.5t-40 -152.5q0 -95 32.5 -140zM217 735q29 30 83 30q56 0 85.5 -30t29.5 -77t-29.5 -76.5t-85.5 -29.5q-54 0 -83 29.5t-29 76.5t29 77zM269 616.5
q11 -16.5 31 -16.5q21 0 32.5 16.5t11.5 41.5t-11.5 41.5t-32.5 16.5q-20 0 -31 -16.5t-11 -41.5t11 -41.5z" />
    <glyph glyph-name="ae" unicode="&#xe6;" horiz-adv-x="865" 
d="M359.5 486q47.5 -24 77.5 -67q34 44 86 67.5t117 23.5q55 0 93.5 -20.5t57.5 -54t19 -72.5q0 -42 -22.5 -81t-65.5 -63.5t-103 -24.5q-32 0 -71 12t-39 35q0 8 4.5 15t10.5 7q3 0 20 -6.5t44 -6.5q60 0 93.5 34t33.5 80q0 39 -25 67.5t-70 28.5q-64 0 -100 -56.5
t-36 -161.5q0 -89 38 -139.5t110 -50.5q88 0 146 57q4 4 9 4q8 0 17 -9.5t9 -19.5q0 -5 -4 -9q-37 -43 -88 -66t-110 -23q-69 0 -121 31.5t-80 88.5q-26 -57 -76 -88.5t-119 -31.5q-55 0 -93.5 20.5t-57.5 54t-19 72.5q0 44 22.5 83.5t65.5 64.5t103 25q35 0 77.5 -12
t42.5 -35q0 -8 -4.5 -15t-10.5 -7q-4 0 -23.5 6.5t-50.5 6.5q-60 0 -93.5 -35t-33.5 -83q0 -38 25 -65t70 -27q69 0 107.5 55.5t38.5 158.5q0 89 -38 139.5t-110 50.5q-53 0 -82 -11t-45.5 -22.5t-20.5 -11.5q-8 0 -17 9.5t-9 19.5q0 11 26.5 31t71 35.5t97.5 15.5
q58 0 105.5 -24z" />
    <glyph glyph-name="ccedilla" unicode="&#xe7;" horiz-adv-x="509" 
d="M460.5 97q8.5 -9 8.5 -19q0 -6 -3 -9q-35 -40 -81.5 -61.5t-98.5 -21.5q-17 0 -25 1l-44 -57q17 4 38 4q48 0 80.5 -29t32.5 -84q0 -31 -18 -58t-49 -42.5t-69 -15.5q-44 0 -76.5 20.5t-32.5 56.5q0 26 18.5 42t45.5 16q8 0 12.5 -3t4.5 -7q0 -3 -7 -14t-7 -30
q0 -17 12 -28t29 -11q29 0 46 22.5t17 53.5q0 30 -17.5 52t-49.5 22q-27 0 -55 -17l-20 18l73 95q-81 20 -130.5 89.5t-49.5 164.5q0 79 30 138.5t84.5 92t127.5 32.5q77 0 126.5 -37.5t49.5 -96.5q0 -43 -27.5 -70.5t-70.5 -27.5q-19 0 -19 11q0 3 7 14t12 27t5 41
q0 40 -25.5 63.5t-68.5 23.5q-57 0 -92 -56t-35 -147q0 -93 41.5 -147.5t112.5 -54.5q72 0 132 50q3 3 9 3q8 0 16.5 -9z" />
    <glyph glyph-name="egrave" unicode="&#xe8;" horiz-adv-x="529" 
d="M385 9q-51 -23 -110 -23q-69 0 -121 32t-80.5 90t-28.5 134q0 80 32 140.5t90.5 94t136.5 33.5q55 0 93.5 -20.5t57.5 -54t19 -72.5q0 -42 -22.5 -81t-65.5 -63.5t-103 -24.5q-32 0 -71 12t-39 35q0 8 4.5 15t10.5 7q3 0 20 -6.5t44 -6.5q60 0 93.5 34t33.5 80
q0 39 -25 67.5t-70 28.5q-64 0 -100 -56.5t-36 -161.5q0 -89 38 -139.5t110 -50.5q88 0 146 57q4 4 9 4q8 0 17 -9.5t9 -19.5q0 -5 -4 -9q-37 -43 -88 -66zM334 569l-113 56q-30 15 -43 32.5t-13 39.5q0 21 11.5 37.5t30.5 25.5l156 -156z" />
    <glyph glyph-name="eacute" unicode="&#xe9;" horiz-adv-x="529" 
d="M385 9q-51 -23 -110 -23q-69 0 -121 32t-80.5 90t-28.5 134q0 80 32 140.5t90.5 94t136.5 33.5q55 0 93.5 -20.5t57.5 -54t19 -72.5q0 -42 -22.5 -81t-65.5 -63.5t-103 -24.5q-32 0 -71 12t-39 35q0 8 4.5 15t10.5 7q3 0 20 -6.5t44 -6.5q60 0 93.5 34t33.5 80
q0 39 -25 67.5t-70 28.5q-64 0 -100 -56.5t-36 -161.5q0 -89 38 -139.5t110 -50.5q88 0 146 57q4 4 9 4q8 0 17 -9.5t9 -19.5q0 -5 -4 -9q-37 -43 -88 -66zM351.5 734.5q11.5 -16.5 11.5 -37.5q0 -22 -13 -39.5t-43 -32.5l-113 -56l-29 35l156 156q19 -9 30.5 -25.5z" />
    <glyph glyph-name="ecircumflex" unicode="&#xea;" horiz-adv-x="529" 
d="M385 9q-51 -23 -110 -23q-69 0 -121 32t-80.5 90t-28.5 134q0 80 32 140.5t90.5 94t136.5 33.5q55 0 93.5 -20.5t57.5 -54t19 -72.5q0 -42 -22.5 -81t-65.5 -63.5t-103 -24.5q-32 0 -71 12t-39 35q0 8 4.5 15t10.5 7q3 0 20 -6.5t44 -6.5q60 0 93.5 34t33.5 80
q0 39 -25 67.5t-70 28.5q-64 0 -100 -56.5t-36 -161.5q0 -89 38 -139.5t110 -50.5q88 0 146 57q4 4 9 4q8 0 17 -9.5t9 -19.5q0 -5 -4 -9q-37 -43 -88 -66zM333 698q37 -46 68 -101l-32 -28l-105 83l-104 -83l-33 28q32 56 68 101t56 57h27q18 -11 55 -57z" />
    <glyph glyph-name="edieresis" unicode="&#xeb;" horiz-adv-x="529" 
d="M385 9q-51 -23 -110 -23q-69 0 -121 32t-80.5 90t-28.5 134q0 80 32 140.5t90.5 94t136.5 33.5q55 0 93.5 -20.5t57.5 -54t19 -72.5q0 -42 -22.5 -81t-65.5 -63.5t-103 -24.5q-32 0 -71 12t-39 35q0 8 4.5 15t10.5 7q3 0 20 -6.5t44 -6.5q60 0 93.5 34t33.5 80
q0 39 -25 67.5t-70 28.5q-64 0 -100 -56.5t-36 -161.5q0 -89 38 -139.5t110 -50.5q88 0 146 57q4 4 9 4q8 0 17 -9.5t9 -19.5q0 -5 -4 -9q-37 -43 -88 -66zM129.5 700.5q21.5 23.5 39.5 23.5q19 0 41 -23t22 -43q0 -19 -22 -42t-41 -23q-17 0 -39 23t-22 42t21.5 42.5z
M318.5 700.5q21.5 23.5 39.5 23.5q19 0 41 -23t22 -43q0 -19 -22 -42t-41 -23q-17 0 -39 23t-22 42t21.5 42.5z" />
    <glyph glyph-name="igrave" unicode="&#xec;" horiz-adv-x="312" 
d="M228 54q25 0 50 21l19 -26q-26 -29 -56 -46t-56 -17q-41 0 -59 25t-18 81v310q0 12 -4.5 17t-15.5 5h-44l-9 26q29 26 66 43t66 17q14 0 23 -9t9 -23l-1 -390q0 -34 30 -34zM226 569l-113 56q-30 15 -43 32.5t-13 39.5q0 21 11.5 37.5t30.5 25.5l156 -156z" />
    <glyph glyph-name="iacute" unicode="&#xed;" horiz-adv-x="312" 
d="M228 54q25 0 50 21l19 -26q-26 -29 -56 -46t-56 -17q-41 0 -59 25t-18 81v310q0 12 -4.5 17t-15.5 5h-44l-9 26q29 26 66 43t66 17q14 0 23 -9t9 -23l-1 -390q0 -34 30 -34zM243.5 734.5q11.5 -16.5 11.5 -37.5q0 -22 -13 -39.5t-43 -32.5l-113 -56l-29 35l156 156
q19 -9 30.5 -25.5z" />
    <glyph glyph-name="icircumflex" unicode="&#xee;" horiz-adv-x="312" 
d="M228 54q25 0 50 21l19 -26q-26 -29 -56 -46t-56 -17q-41 0 -59 25t-18 81v310q0 12 -4.5 17t-15.5 5h-44l-9 26q29 26 66 43t66 17q14 0 23 -9t9 -23l-1 -390q0 -34 30 -34zM225 698q37 -46 68 -101l-32 -28l-105 83l-104 -83l-33 28q32 56 68 101t56 57h27
q18 -11 55 -57z" />
    <glyph glyph-name="idieresis" unicode="&#xef;" horiz-adv-x="312" 
d="M228 54q25 0 50 21l19 -26q-26 -29 -56 -46t-56 -17q-41 0 -59 25t-18 81v310q0 12 -4.5 17t-15.5 5h-44l-9 26q29 26 66 43t66 17q14 0 23 -9t9 -23l-1 -390q0 -34 30 -34zM21.5 700.5q21.5 23.5 39.5 23.5q19 0 41 -23t22 -43q0 -19 -22 -42t-41 -23q-17 0 -39 23
t-22 42t21.5 42.5zM210.5 700.5q21.5 23.5 39.5 23.5q19 0 41 -23t22 -43q0 -19 -22 -42t-41 -23q-17 0 -39 23t-22 42t21.5 42.5z" />
    <glyph glyph-name="eth" unicode="&#xf0;" horiz-adv-x="584" 
d="M555 693.5q-4 -16.5 -17 -23.5l-83 -41q44 -86 65 -194.5t21 -196.5q0 -76 -30.5 -133t-87 -88t-131.5 -31q-76 0 -132 31t-86.5 88t-30.5 133q0 116 67 184t182 68q85 0 139 -60q-18 96 -46 164l-99 -50q0 40 4 57.5t17 23.5l51 25q-26 45 -57 70t-65 25
q-36 0 -56.5 -23.5t-20.5 -57.5q0 -30 9.5 -48.5t21.5 -31t12 -15.5q0 -10 -16 -10q-52 0 -82 31.5t-30 74.5q0 32 18 61t55 46.5t90 17.5q109 0 186 -107l136 68q0 -41 -4 -57.5zM409 91q39 51 39 138q0 61 -20 108.5t-56.5 74t-82.5 26.5q-65 0 -103.5 -54t-38.5 -146
q0 -59 20 -104t56 -69.5t81 -24.5q66 0 105 51z" />
    <glyph glyph-name="ntilde" unicode="&#xf1;" horiz-adv-x="644" 
d="M211 85q7 -28 25 -54l12 -16l-12 -15h-175l-11 31l21 5q25 6 33.5 21.5t8.5 53.5v281q0 12 -4.5 17t-15.5 5h-44l-9 26q29 26 66.5 43t65.5 17q14 0 23 -9t9 -23v-107q26 65 78 107t109 42q70 0 102 -43t32 -137v-242q0 -34 30 -34q23 0 50 21l19 -26q-26 -29 -56 -46
t-56 -17q-41 0 -59 25t-18 81v238q0 102 -86 102q-43 0 -75.5 -34t-51 -96t-18.5 -142q0 -47 7 -75zM418 621q-34 -26 -62 -26q-16 0 -29 5.5t-27 14.5q-13 8 -21 11.5t-18 3.5q-28 0 -67 -39l-35 31q33 45 66.5 71t62.5 26q15 0 26.5 -5t27.5 -14q14 -8 22 -12t18 -4
q28 0 68 39l34 -31q-32 -45 -66 -71z" />
    <glyph glyph-name="ograve" unicode="&#xf2;" horiz-adv-x="578" 
d="M74.5 387q29.5 59 85 91t129.5 32t129 -32t85 -91t30 -139q0 -79 -30 -138.5t-85 -91.5t-129 -32t-129.5 32t-85 91.5t-29.5 138.5q0 80 29.5 139zM415 341q-13 49 -43.5 83t-79.5 34q-42 0 -74.5 -26.5t-50.5 -74.5t-18 -110q0 -95 37 -151t100 -56q41 0 73.5 25.5
t50.5 72t18 107.5q0 47 -13 96zM353 569l-113 56q-30 15 -43 32.5t-13 39.5q0 21 11.5 37.5t30.5 25.5l156 -156z" />
    <glyph glyph-name="oacute" unicode="&#xf3;" horiz-adv-x="578" 
d="M74.5 387q29.5 59 85 91t129.5 32t129 -32t85 -91t30 -139q0 -79 -30 -138.5t-85 -91.5t-129 -32t-129.5 32t-85 91.5t-29.5 138.5q0 80 29.5 139zM415 341q-13 49 -43.5 83t-79.5 34q-42 0 -74.5 -26.5t-50.5 -74.5t-18 -110q0 -95 37 -151t100 -56q41 0 73.5 25.5
t50.5 72t18 107.5q0 47 -13 96zM397.5 734.5q11.5 -16.5 11.5 -37.5q0 -22 -13 -39.5t-43 -32.5l-113 -56l-29 35l156 156q19 -9 30.5 -25.5z" />
    <glyph glyph-name="ocircumflex" unicode="&#xf4;" horiz-adv-x="578" 
d="M74.5 387q29.5 59 85 91t129.5 32t129 -32t85 -91t30 -139q0 -79 -30 -138.5t-85 -91.5t-129 -32t-129.5 32t-85 91.5t-29.5 138.5q0 80 29.5 139zM415 341q-13 49 -43.5 83t-79.5 34q-42 0 -74.5 -26.5t-50.5 -74.5t-18 -110q0 -95 37 -151t100 -56q41 0 73.5 25.5
t50.5 72t18 107.5q0 47 -13 96zM360 698q37 -46 68 -101l-32 -28l-105 83l-104 -83l-33 28q32 56 68 101t56 57h27q18 -11 55 -57z" />
    <glyph glyph-name="otilde" unicode="&#xf5;" horiz-adv-x="578" 
d="M74.5 387q29.5 59 85 91t129.5 32t129 -32t85 -91t30 -139q0 -79 -30 -138.5t-85 -91.5t-129 -32t-129.5 32t-85 91.5t-29.5 138.5q0 80 29.5 139zM415 341q-13 49 -43.5 83t-79.5 34q-42 0 -74.5 -26.5t-50.5 -74.5t-18 -110q0 -95 37 -151t100 -56q41 0 73.5 25.5
t50.5 72t18 107.5q0 47 -13 96zM388 621q-34 -26 -62 -26q-16 0 -29 5.5t-27 14.5q-13 8 -21 11.5t-18 3.5q-28 0 -67 -39l-35 31q33 45 66.5 71t62.5 26q15 0 26.5 -5t27.5 -14q14 -8 22 -12t18 -4q28 0 68 39l34 -31q-32 -45 -66 -71z" />
    <glyph glyph-name="odieresis" unicode="&#xf6;" horiz-adv-x="578" 
d="M74.5 387q29.5 59 85 91t129.5 32t129 -32t85 -91t30 -139q0 -79 -30 -138.5t-85 -91.5t-129 -32t-129.5 32t-85 91.5t-29.5 138.5q0 80 29.5 139zM415 341q-13 49 -43.5 83t-79.5 34q-42 0 -74.5 -26.5t-50.5 -74.5t-18 -110q0 -95 37 -151t100 -56q41 0 73.5 25.5
t50.5 72t18 107.5q0 47 -13 96zM156.5 700.5q21.5 23.5 39.5 23.5q19 0 41 -23t22 -43q0 -19 -22 -42t-41 -23q-17 0 -39 23t-22 42t21.5 42.5zM345.5 700.5q21.5 23.5 39.5 23.5q19 0 41 -23t22 -43q0 -19 -22 -42t-41 -23q-17 0 -39 23t-22 42t21.5 42.5z" />
    <glyph glyph-name="divide" unicode="&#xf7;" horiz-adv-x="621" 
d="M99 395h423v-76h-423v76zM269.5 565.5q21.5 23.5 39.5 23.5q19 0 41 -23t22 -43q0 -19 -22 -42t-41 -23q-17 0 -39 23t-22 42t21.5 42.5zM269.5 232.5q21.5 23.5 39.5 23.5q19 0 41 -23t22 -43q0 -19 -22 -42t-41 -23q-17 0 -39 23t-22 42t21.5 42.5z" />
    <glyph glyph-name="oslash" unicode="&#xf8;" horiz-adv-x="578" 
d="M499 395q34 -61 34 -147q0 -79 -30 -138.5t-85 -91.5t-129 -32q-32 0 -62 6l-21 -60h-53l27 76q-64 29 -99.5 91.5t-35.5 148.5q0 80 29.5 139t85 91t129.5 32q37 0 66 -7l22 62h54l-28 -79q62 -30 96 -91zM163 146q14 -44 40 -71l133 374q-19 9 -44 9q-42 0 -74.5 -26.5
t-50.5 -74.5t-18 -110q0 -57 14 -101zM359.5 65.5q32.5 25.5 50.5 72t18 107.5q0 46 -12 93t-38 78l-131 -369q17 -7 39 -7q41 0 73.5 25.5z" />
    <glyph glyph-name="ugrave" unicode="&#xf9;" horiz-adv-x="614" 
d="M544 57q23 0 49 18l19 -26q-23 -28 -53.5 -45.5t-56.5 -17.5q-40 0 -58.5 23t-18.5 73q-23 -44 -68.5 -70t-100.5 -26q-72 0 -112.5 43.5t-40.5 122.5v250q0 22 -20 22h-44l-9 26q26 26 63.5 43t68.5 17q14 0 23 -9t9 -23v-303q0 -60 24.5 -91t71.5 -31q67 0 104.5 58
t37.5 160q0 74 -8.5 115.5t-30.5 79.5l-12 16l12 15l122 13v-422q0 -31 29 -31zM368 569l-113 56q-30 15 -43 32.5t-13 39.5q0 21 11.5 37.5t30.5 25.5l156 -156z" />
    <glyph glyph-name="uacute" unicode="&#xfa;" horiz-adv-x="614" 
d="M544 57q23 0 49 18l19 -26q-23 -28 -53.5 -45.5t-56.5 -17.5q-40 0 -58.5 23t-18.5 73q-23 -44 -68.5 -70t-100.5 -26q-72 0 -112.5 43.5t-40.5 122.5v250q0 22 -20 22h-44l-9 26q26 26 63.5 43t68.5 17q14 0 23 -9t9 -23v-303q0 -60 24.5 -91t71.5 -31q67 0 104.5 58
t37.5 160q0 74 -8.5 115.5t-30.5 79.5l-12 16l12 15l122 13v-422q0 -31 29 -31zM422.5 734.5q11.5 -16.5 11.5 -37.5q0 -22 -13 -39.5t-43 -32.5l-113 -56l-29 35l156 156q19 -9 30.5 -25.5z" />
    <glyph glyph-name="ucircumflex" unicode="&#xfb;" horiz-adv-x="614" 
d="M544 57q23 0 49 18l19 -26q-23 -28 -53.5 -45.5t-56.5 -17.5q-40 0 -58.5 23t-18.5 73q-23 -44 -68.5 -70t-100.5 -26q-72 0 -112.5 43.5t-40.5 122.5v250q0 22 -20 22h-44l-9 26q26 26 63.5 43t68.5 17q14 0 23 -9t9 -23v-303q0 -60 24.5 -91t71.5 -31q67 0 104.5 58
t37.5 160q0 74 -8.5 115.5t-30.5 79.5l-12 16l12 15l122 13v-422q0 -31 29 -31zM376 698q37 -46 68 -101l-32 -28l-105 83l-104 -83l-33 28q32 56 68 101t56 57h27q18 -11 55 -57z" />
    <glyph glyph-name="udieresis" unicode="&#xfc;" horiz-adv-x="614" 
d="M544 57q23 0 49 18l19 -26q-23 -28 -53.5 -45.5t-56.5 -17.5q-40 0 -58.5 23t-18.5 73q-23 -44 -68.5 -70t-100.5 -26q-72 0 -112.5 43.5t-40.5 122.5v250q0 22 -20 22h-44l-9 26q26 26 63.5 43t68.5 17q14 0 23 -9t9 -23v-303q0 -60 24.5 -91t71.5 -31q67 0 104.5 58
t37.5 160q0 74 -8.5 115.5t-30.5 79.5l-12 16l12 15l122 13v-422q0 -31 29 -31zM171.5 700.5q21.5 23.5 39.5 23.5q19 0 41 -23t22 -43q0 -19 -22 -42t-41 -23q-17 0 -39 23t-22 42t21.5 42.5zM360.5 700.5q21.5 23.5 39.5 23.5q19 0 41 -23t22 -43q0 -19 -22 -42t-41 -23
q-17 0 -39 23t-22 42t21.5 42.5z" />
    <glyph glyph-name="yacute" unicode="&#xfd;" horiz-adv-x="610" 
d="M197 -257.5q-39 20.5 -58 53t-19 69.5q0 50 34 85.5t93 35.5q10 0 14.5 -3.5t4.5 -7.5t-14 -19t-24.5 -36t-10.5 -53q0 -40 23.5 -66.5t63.5 -26.5q62 0 91 51t29 137v148q-23 -44 -69 -69.5t-101 -25.5q-71 0 -111 43.5t-40 122.5v222q0 12 -4.5 17t-15.5 5h-44l-9 26
q26 26 63.5 43t68.5 17q14 0 23 -9t9 -23v-275q0 -60 24 -91t70 -31q67 0 104.5 50.5t37.5 139.5q0 82 -7 122t-32 73l-12 16l12 15l122 13v-533q0 -123 -59.5 -189.5t-162.5 -66.5q-55 0 -94 20.5zM422.5 734.5q11.5 -16.5 11.5 -37.5q0 -22 -13 -39.5t-43 -32.5l-113 -56
l-29 35l156 156q19 -9 30.5 -25.5z" />
    <glyph glyph-name="thorn" unicode="&#xfe;" horiz-adv-x="595" 
d="M337 510q62 0 110.5 -31t75.5 -86t27 -125q0 -80 -28.5 -144.5t-78.5 -101t-113 -36.5q-59 0 -100 27q-9 6 -9 18q0 10 3.5 17.5t11.5 7.5q4 0 22.5 -8t48.5 -8q39 0 70.5 27t49 74.5t17.5 106.5q0 57 -17.5 101.5t-49 69.5t-72.5 25q-61 0 -112 -39v-560
q0 -38 8.5 -53.5t33.5 -21.5l21 -5l-11 -31h-174l-12 15l12 16q18 26 25 54t7 75v771q0 16 -4.5 23t-16.5 10l-52 11v33q16 14 61 27t78 13q24 0 24 -46v-289q65 63 144 63z" />
    <glyph glyph-name="ydieresis" unicode="&#xff;" horiz-adv-x="610" 
d="M197 -257.5q-39 20.5 -58 53t-19 69.5q0 50 34 85.5t93 35.5q10 0 14.5 -3.5t4.5 -7.5t-14 -19t-24.5 -36t-10.5 -53q0 -40 23.5 -66.5t63.5 -26.5q62 0 91 51t29 137v148q-23 -44 -69 -69.5t-101 -25.5q-71 0 -111 43.5t-40 122.5v222q0 12 -4.5 17t-15.5 5h-44l-9 26
q26 26 63.5 43t68.5 17q14 0 23 -9t9 -23v-275q0 -60 24 -91t70 -31q67 0 104.5 50.5t37.5 139.5q0 82 -7 122t-32 73l-12 16l12 15l122 13v-533q0 -123 -59.5 -189.5t-162.5 -66.5q-55 0 -94 20.5zM169.5 700.5q21.5 23.5 39.5 23.5q19 0 41 -23t22 -43q0 -19 -22 -42
t-41 -23q-17 0 -39 23t-22 42t21.5 42.5zM358.5 700.5q21.5 23.5 39.5 23.5q19 0 41 -23t22 -43q0 -19 -22 -42t-41 -23q-17 0 -39 23t-22 42t21.5 42.5z" />
    <glyph glyph-name="dotlessi" unicode="&#x131;" horiz-adv-x="312" 
d="M228 54q25 0 50 21l19 -26q-26 -29 -56 -46t-56 -17q-41 0 -59 25t-18 81v310q0 12 -4.5 17t-15.5 5h-44l-9 26q29 26 66 43t66 17q14 0 23 -9t9 -23l-1 -390q0 -34 30 -34z" />
    <glyph glyph-name="Lslash" unicode="&#x141;" horiz-adv-x="550" 
d="M526 157v-171l-20 -11l-8 11q-11 14 -42 14h-400l-11 32l21 6q37 11 49 28t12 60v169l-102 -51q0 44 4.5 63.5t19.5 26.5l78 39v212q0 46 -13 64t-51 29l-23 6l12 34h219l13 -16l-13 -18q-25 -33 -35 -70t-10 -97v-94l103 51q0 -44 -4.5 -63.5t-19.5 -26.5l-79 -39v-212
q0 -32 5 -48t18.5 -22t40.5 -6h87q36 0 56 7.5t31.5 26t21.5 55.5l6 23z" />
    <glyph glyph-name="lslash" unicode="&#x142;" horiz-adv-x="302" 
d="M268 75l19 -26q-26 -29 -56 -46t-56 -17q-41 0 -59 25t-18 81v204l-103 -52q0 44 4.5 63.5t19.5 26.5l79 40v300q0 12 -4.5 17t-15.5 5h-44l-9 26q29 26 66 43t66 17q14 0 23 -9t9 -23l-1 -331l111 55q0 -44 -4.5 -63.5t-19.5 -26.5l-87 -43v-253q0 -34 30 -34
q25 0 50 21z" />
    <glyph glyph-name="OE" unicode="&#x152;" horiz-adv-x="956" 
d="M848 739l18 13l16 -13v-178l-34 -12l-6 23q-10 37 -21.5 55.5t-31.5 26t-56 7.5h-97q-27 0 -40.5 -6t-18.5 -22t-5 -48v-192h127q24 0 42.5 10.5t36.5 35.5l8 11l20 -11v-171l-34 -12l-6 23q-9 34 -31.5 45.5t-77.5 11.5h-85v-203q0 -32 5 -48t18.5 -22t40.5 -6h108
q36 0 56 7.5t31.5 26t21.5 55.5l6 23l34 -12v-171l-20 -11l-8 11q-11 14 -42 14h-457q-108 0 -182.5 47t-111.5 128t-37 183t37 183.5t111.5 129t182.5 47.5h368q86 0 114 21zM473 70v563q-54 41 -118 41q-75 0 -122.5 -45.5t-68.5 -117t-21 -153.5q0 -87 28 -158.5
t80.5 -113t123.5 -41.5q54 0 98 25z" />
    <glyph glyph-name="oe" unicode="&#x153;" horiz-adv-x="914" 
d="M853 103.5q9 -9.5 9 -19.5q0 -5 -4 -9q-89 -89 -198 -89q-58 0 -103.5 22.5t-76.5 63.5q-33 -42 -81.5 -64t-109.5 -22q-74 0 -129.5 32t-85 91.5t-29.5 138.5q0 80 29.5 139t85 91t129.5 32q64 0 113.5 -23.5t82.5 -68.5q34 44 86.5 68t117.5 24q55 0 93.5 -20.5
t57.5 -54t19 -72.5q0 -42 -22.5 -81t-65.5 -63.5t-103 -24.5q-32 0 -71 12t-39 35q0 8 4.5 15t10.5 7q3 0 20 -6.5t44 -6.5q60 0 93.5 34t33.5 80q0 39 -25 67.5t-70 28.5q-64 0 -100 -56.5t-36 -161.5q0 -89 38 -139.5t110 -50.5q89 0 146 57q4 4 9 4q8 0 17 -9.5z
M359.5 65.5q32.5 25.5 50.5 72t18 107.5q0 47 -13 96t-43.5 83t-79.5 34q-42 0 -74.5 -26.5t-50.5 -74.5t-18 -110q0 -95 37 -151t100 -56q41 0 73.5 25.5z" />
    <glyph glyph-name="Scaron" unicode="&#x160;" horiz-adv-x="572" 
d="M385.5 72q35.5 30 35.5 83q0 43 -22 73t-54.5 49t-88.5 44q-64 29 -102.5 53t-65.5 64t-27 100q0 51 24.5 95.5t73.5 71.5t120 27q65 0 116.5 -18.5t80 -52t28.5 -76.5q0 -51 -30.5 -84t-76.5 -33q-21 0 -21 12q0 3 8.5 17t15 31.5t6.5 42.5q0 47 -35 76t-92 29
q-59 0 -91 -33.5t-32 -81.5q0 -37 21 -64t52 -45t86 -43q66 -29 107.5 -54.5t70.5 -68t29 -105.5q0 -89 -59.5 -142t-170.5 -53q-72 0 -128 20.5t-87.5 57t-31.5 83.5q0 51 32.5 84t81.5 33q11 0 16 -3.5t5 -8.5q0 -3 -9 -16.5t-16 -31.5t-7 -43q0 -53 40 -86t104 -33
q58 0 93.5 30zM223 856q-36 45 -68 101l33 28l104 -84l105 84l32 -28q-31 -55 -68 -101t-55 -57h-27q-20 12 -56 57z" />
    <glyph glyph-name="scaron" unicode="&#x161;" horiz-adv-x="463" 
d="M308.5 57.5q26.5 22.5 26.5 58.5q0 32 -27.5 52t-81.5 43q-49 20 -81.5 39t-55.5 49.5t-23 75.5q0 60 51.5 97.5t130.5 37.5q71 0 118 -28t47 -75q0 -38 -23.5 -62.5t-60.5 -24.5q-21 0 -21 13q0 4 7.5 20.5t7.5 35.5q0 37 -25 55t-57 18q-41 0 -64.5 -20.5t-23.5 -52.5
q0 -37 29.5 -59.5t87.5 -46.5q48 -20 80 -37.5t54 -44.5t22 -65q0 -68 -54 -109t-144 -41q-76 0 -125 34t-49 91q0 34 23 56t60 22q21 0 21 -12q0 -3 -6 -18.5t-6 -37.5q0 -42 29.5 -64t65.5 -22q41 0 67.5 22.5zM162 635q-36 45 -68 101l33 28l104 -84l105 84l32 -28
q-31 -55 -68 -101t-55 -57h-27q-20 12 -56 57z" />
    <glyph glyph-name="Ydieresis" unicode="&#x178;" horiz-adv-x="626" 
d="M439 584q12 23 12 41q0 20 -12.5 34t-29.5 19l-23 6l12 34h190l13 -16l-15 -18q-35 -42 -71 -106l-155 -275v-170q0 -45 14 -64t52 -29l23 -6l-12 -34h-219l-13 16l13 18q25 35 36 71.5t11 95.5v94l-160 281q-27 48 -48 75t-52 51l13 16h225l12 -34l-23 -6
q-24 -6 -34.5 -16t-10.5 -28q0 -11 14 -34.5t17 -28.5l108 -189zM204.5 921.5q21.5 23.5 39.5 23.5q19 0 41 -23t22 -43q0 -19 -22 -42t-41 -23q-17 0 -39 23t-22 42t21.5 42.5zM393.5 921.5q21.5 23.5 39.5 23.5q19 0 41 -23t22 -43q0 -19 -22 -42t-41 -23q-17 0 -39 23
t-22 42t21.5 42.5z" />
    <glyph glyph-name="Zcaron" unicode="&#x17d;" horiz-adv-x="590" 
d="M57 561v178l16 13l18 -13q28 -21 114 -21h365l-395 -661h226q36 0 56 7.5t31.5 26t21.5 55.5l6 23l34 -12v-171l-20 -11l-8 11q-11 14 -42 14h-460l397 661h-211q-36 0 -56 -7.5t-31.5 -26t-21.5 -55.5l-6 -23zM244 856q-36 45 -68 101l33 28l104 -84l105 84l32 -28
q-31 -55 -68 -101t-55 -57h-27q-20 12 -56 57z" />
    <glyph glyph-name="zcaron" unicode="&#x17e;" horiz-adv-x="479" 
d="M313 58q38 0 53.5 8.5t21.5 33.5l12 53l31 -11v-154l-12 -12q-21 14 -46.5 19t-72.5 5h-256l-11 31l281 408h-150q-38 0 -53.5 -8.5t-21.5 -33.5l-12 -53l-31 11v154l12 12q21 -14 46.5 -19t72.5 -5h249q20 -17 20 -43l-27 -16l-263 -380h157zM176 635q-36 45 -68 101
l33 28l104 -84l105 84l32 -28q-31 -55 -68 -101t-55 -57h-27q-20 12 -56 57z" />
    <glyph glyph-name="florin" unicode="&#x192;" horiz-adv-x="464" 
d="M413 365q0 -45 -23 -63h-165v-315q0 -104 -45.5 -164.5t-134.5 -60.5q-54 0 -89 27.5t-35 74.5q0 38 28 64t70 26q19 0 19 -11q0 -3 -8 -13.5t-14 -24t-6 -34.5q0 -31 15.5 -48.5t39.5 -17.5q30 0 50 26.5t20 78.5v392h-133q0 46 23 63h110v18q0 161 58.5 255t171.5 94
q65 0 107 -31t42 -80q0 -43 -28 -70.5t-70 -27.5q-19 0 -19 11q0 3 7.5 14t13.5 27t6 41q0 30 -20.5 48t-56.5 18q-63 0 -92.5 -62t-29.5 -171v-84h188z" />
    <glyph glyph-name="circumflex" unicode="&#x2c6;" horiz-adv-x="374" 
d="M256 698q37 -46 68 -101l-32 -28l-105 83l-104 -83l-33 28q32 56 68 101t56 57h27q18 -11 55 -57z" />
    <glyph glyph-name="caron" unicode="&#x2c7;" horiz-adv-x="374" 
d="M118 635q-36 45 -68 101l33 28l104 -84l105 84l32 -28q-31 -55 -68 -101t-55 -57h-27q-20 12 -56 57z" />
    <glyph glyph-name="breve" unicode="&#x2d8;" horiz-adv-x="343" 
d="M81.5 616q-34.5 36 -34.5 104h55q0 -29 20 -46.5t50 -17.5q29 0 49 17.5t20 46.5h55q0 -68 -34.5 -104t-89.5 -36q-56 0 -90.5 36z" />
    <glyph glyph-name="dotaccent" unicode="&#x2d9;" horiz-adv-x="324" 
d="M121.5 700.5q21.5 23.5 39.5 23.5q19 0 41 -23t22 -43q0 -19 -22 -42t-41 -23q-17 0 -39 23t-22 42t21.5 42.5z" />
    <glyph glyph-name="ring" unicode="&#x2da;" horiz-adv-x="317" 
d="M74 735q29 30 83 30q56 0 85.5 -30t29.5 -77t-29.5 -76.5t-85.5 -29.5q-54 0 -83 29.5t-29 76.5t29 77zM126 616.5q11 -16.5 31 -16.5q21 0 32.5 16.5t11.5 41.5t-11.5 41.5t-32.5 16.5q-20 0 -31 -16.5t-11 -41.5t11 -41.5z" />
    <glyph glyph-name="ogonek" unicode="&#x2db;" horiz-adv-x="388" 
d="M139.5 -82.5q-35.5 -44.5 -35.5 -81.5q0 -32 17 -48.5t44 -16.5q34 0 73 24t71 67l34 -31q-44 -63 -95.5 -94.5t-103.5 -31.5q-51 0 -85.5 30.5t-34.5 83.5q0 58 47.5 110t152.5 122l26 -39q-75 -50 -110.5 -94.5z" />
    <glyph glyph-name="tilde" unicode="&#x2dc;" horiz-adv-x="408" 
d="M300 621q-34 -26 -62 -26q-16 0 -29 5.5t-27 14.5q-13 8 -21 11.5t-18 3.5q-28 0 -67 -39l-35 31q33 45 66.5 71t62.5 26q15 0 26.5 -5t27.5 -14q14 -8 22 -12t18 -4q28 0 68 39l34 -31q-32 -45 -66 -71z" />
    <glyph glyph-name="hungarumlaut" unicode="&#x2dd;" horiz-adv-x="531" 
d="M249.5 734.5q11.5 -16.5 11.5 -37.5q0 -22 -13 -39.5t-43 -32.5l-113 -56l-29 35l156 156q19 -9 30.5 -25.5zM456.5 734.5q11.5 -16.5 11.5 -37.5q0 -22 -13 -39.5t-43 -32.5l-113 -56l-29 35l156 156q19 -9 30.5 -25.5z" />
    <glyph glyph-name="gravecomb" unicode="&#x300;" 
d="M-65 569l-113 56q-30 15 -43 32.5t-13 39.5q0 21 11.5 37.5t30.5 25.5l156 -156z" />
    <glyph glyph-name="acutecomb" unicode="&#x301;" 
d="M-38.5 734.5q11.5 -16.5 11.5 -37.5q0 -22 -13 -39.5t-43 -32.5l-113 -56l-29 35l156 156q19 -9 30.5 -25.5z" />
    <glyph glyph-name="uni0302" unicode="&#x302;" 
d="M-118 698q37 -46 68 -101l-32 -28l-105 83l-104 -83l-33 28q32 56 68 101t56 57h27q18 -11 55 -57z" />
    <glyph glyph-name="tildecomb" unicode="&#x303;" 
d="M-108 621q-34 -26 -62 -26q-16 0 -29 5.5t-27 14.5q-13 8 -21 11.5t-18 3.5q-28 0 -67 -39l-35 31q33 45 66.5 71t62.5 26q15 0 26.5 -5t27.5 -14q14 -8 22 -12t18 -4q28 0 68 39l34 -31q-32 -45 -66 -71z" />
    <glyph glyph-name="uni0304" unicode="&#x304;" 
d="M-345.5 662.5q6.5 22.5 19.5 34.5h269q0 -24 -6 -46t-20 -34h-269q0 23 6.5 45.5z" />
    <glyph glyph-name="uni0306" unicode="&#x306;" 
d="M-261.5 616q-34.5 36 -34.5 104h55q0 -29 20 -46.5t50 -17.5q29 0 49 17.5t20 46.5h55q0 -68 -34.5 -104t-89.5 -36q-56 0 -90.5 36z" />
    <glyph glyph-name="uni0307" unicode="&#x307;" 
d="M-202.5 700.5q21.5 23.5 39.5 23.5q19 0 41 -23t22 -43q0 -19 -22 -42t-41 -23q-17 0 -39 23t-22 42t21.5 42.5z" />
    <glyph glyph-name="uni0308" unicode="&#x308;" 
d="M-345.5 700.5q21.5 23.5 39.5 23.5q19 0 41 -23t22 -43q0 -19 -22 -42t-41 -23q-17 0 -39 23t-22 42t21.5 42.5zM-156.5 700.5q21.5 23.5 39.5 23.5q19 0 41 -23t22 -43q0 -19 -22 -42t-41 -23q-17 0 -39 23t-22 42t21.5 42.5z" />
    <glyph glyph-name="uni030A" unicode="&#x30a;" 
d="M-243 735q29 30 83 30q56 0 85.5 -30t29.5 -77t-29.5 -76.5t-85.5 -29.5q-54 0 -83 29.5t-29 76.5t29 77zM-191 616.5q11 -16.5 31 -16.5q21 0 32.5 16.5t11.5 41.5t-11.5 41.5t-32.5 16.5q-20 0 -31 -16.5t-11 -41.5t11 -41.5z" />
    <glyph glyph-name="uni030B" unicode="&#x30b;" 
d="M-281.5 734.5q11.5 -16.5 11.5 -37.5q0 -22 -13 -39.5t-43 -32.5l-113 -56l-29 35l156 156q19 -9 30.5 -25.5zM-74.5 734.5q11.5 -16.5 11.5 -37.5q0 -22 -13 -39.5t-43 -32.5l-113 -56l-29 35l156 156q19 -9 30.5 -25.5z" />
    <glyph glyph-name="uni030C" unicode="&#x30c;" 
d="M-256 635q-36 45 -68 101l33 28l104 -84l105 84l32 -28q-31 -55 -68 -101t-55 -57h-27q-20 12 -56 57z" />
    <glyph glyph-name="uni0327" unicode="&#x327;" 
d="M-141 -230.5q17 22.5 17 53.5q0 30 -17.5 52t-49.5 22q-27 0 -55 -17l-20 18l118 153l24 -22l-77 -99q17 4 38 4q48 0 80.5 -29t32.5 -84q0 -31 -18 -58t-49 -42.5t-69 -15.5q-44 0 -76.5 20.5t-32.5 56.5q0 26 18.5 42t45.5 16q8 0 12.5 -3t4.5 -7q0 -3 -7 -14t-7 -30
q0 -17 12 -28t29 -11q29 0 46 22.5z" />
    <glyph glyph-name="uni0328" unicode="&#x328;" 
d="M-248.5 -82.5q-35.5 -44.5 -35.5 -81.5q0 -32 17 -48.5t44 -16.5q34 0 73 24t71 67l34 -31q-44 -63 -95.5 -94.5t-103.5 -31.5q-51 0 -85.5 30.5t-34.5 83.5q0 58 47.5 110t152.5 122l26 -39q-75 -50 -110.5 -94.5z" />
    <glyph glyph-name="uni0335" unicode="&#x335;" 
d="M-353 372h284q0 -40 -20 -56h-284q0 41 20 56z" />
    <glyph glyph-name="pi" unicode="&#x3c0;" horiz-adv-x="636" 
d="M31 332q-11 5 -13 15q33 69 56 100t46.5 40.5t64.5 9.5h441l-8 -52l-54 -8q-24 -4 -35.5 -12.5t-14.5 -24.5q-26 -142 -40.5 -228.5t-14.5 -94.5q0 -31 27 -31q26 0 71 22l10 -35q-79 -47 -134 -47q-37 0 -52 17.5t-15 51.5q0 24 6 55l55 313h-168l-49 -275
q-7 -39 -7 -66q0 -28 10 -51l7 -16l-15 -15h-169l6 33l33 14q22 9 30 22t14 48l55 306h-44l-73 -96q-15 0 -26 5z" />
    <glyph glyph-name="uni0400" unicode="&#x400;" horiz-adv-x="610" 
d="M226 133q0 -32 5 -48t18.5 -22t40.5 -6h108q36 0 56 7.5t31.5 26t21.5 55.5l6 23l34 -12v-171l-20 -11l-8 11q-11 14 -42 14h-421l-11 32l21 6q37 11 49 28t12 60v391q0 60 -10 97t-35 70l-13 18l13 16h306q86 0 114 21l18 13l16 -13v-178l-34 -12l-6 23
q-10 37 -21.5 55.5t-31.5 26t-56 7.5h-97q-27 0 -40.5 -6t-18.5 -22t-5 -48v-192h127q24 0 42.5 10.5t36.5 35.5l8 11l20 -11v-171l-34 -12l-6 23q-9 34 -31.5 45.5t-77.5 11.5h-85v-203zM353 790l-113 56q-30 15 -43 32.5t-13 39.5q0 21 11.5 37.5t30.5 25.5l156 -156z" />
    <glyph glyph-name="uni0401" unicode="&#x401;" horiz-adv-x="610" 
d="M226 133q0 -32 5 -48t18.5 -22t40.5 -6h108q36 0 56 7.5t31.5 26t21.5 55.5l6 23l34 -12v-171l-20 -11l-8 11q-11 14 -42 14h-421l-11 32l21 6q37 11 49 28t12 60v391q0 60 -10 97t-35 70l-13 18l13 16h306q86 0 114 21l18 13l16 -13v-178l-34 -12l-6 23
q-10 37 -21.5 55.5t-31.5 26t-56 7.5h-97q-27 0 -40.5 -6t-18.5 -22t-5 -48v-192h127q24 0 42.5 10.5t36.5 35.5l8 11l20 -11v-171l-34 -12l-6 23q-9 34 -31.5 45.5t-77.5 11.5h-85v-203zM197.5 921.5q21.5 23.5 39.5 23.5q19 0 41 -23t22 -43q0 -19 -22 -42t-41 -23
q-17 0 -39 23t-22 42t21.5 42.5zM386.5 921.5q21.5 23.5 39.5 23.5q19 0 41 -23t22 -43q0 -19 -22 -42t-41 -23q-17 0 -39 23t-22 42t21.5 42.5z" />
    <glyph glyph-name="uni0402" unicode="&#x402;" horiz-adv-x="760" 
d="M714 79.5q-26 -63.5 -70.5 -100.5t-95.5 -37q-34 0 -53.5 17.5t-19.5 40.5q0 11 4 16.5t10 5.5t20 -8t27 -8q22 0 44.5 22.5t37 67t14.5 108.5q0 91 -37 137.5t-107 46.5q-60 0 -141 -27v-228q0 -47 6.5 -64t25.5 -29l24 -6l-12 -34h-187l-12 16l12 18q25 33 35 69.5
t10 97.5v384q0 33 -2.5 48.5t-9.5 22t-22 6.5h-46q-36 0 -55.5 -7.5t-31.5 -26t-22 -56.5l-5 -23l-35 12v177l18 13l17 -13q15 -11 42 -15.5t71 -4.5h261q44 0 71.5 4.5t41.5 15.5l18 13l17 -13v-177l-35 -12l-5 23q-10 38 -22 56.5t-31.5 26t-55.5 7.5h-46q-21 0 -28 -15.5
t-7 -61.5v-166q94 39 175 39q100 0 159 -61t59 -180q0 -74 -26 -137.5z" />
    <glyph glyph-name="uni0403" unicode="&#x403;" horiz-adv-x="509" 
d="M461 738l19 13l16 -13v-177l-35 -12l-5 23q-8 37 -20 56t-32 26.5t-57 7.5h-86q-27 0 -40.5 -6.5t-18.5 -22.5t-5 -48v-452q0 -32 5.5 -49.5t18.5 -26.5t40 -17l24 -6l-12 -34h-220l-13 16l13 18q25 34 35.5 70.5t10.5 96.5v316q0 59 -10.5 96.5t-35.5 70.5l-13 18l13 16
h295q84 0 113 20zM434.5 955.5q11.5 -16.5 11.5 -37.5q0 -22 -13 -39.5t-43 -32.5l-113 -56l-29 35l156 156q19 -9 30.5 -25.5z" />
    <glyph glyph-name="uni0404" unicode="&#x404;" horiz-adv-x="616" 
d="M552 501.5q-30 -32.5 -76 -32.5q-22 0 -22 12q0 3 9 17t15.5 31.5t6.5 41.5q0 47 -35 76.5t-92 29.5q-102 0 -153.5 -85t-57.5 -207h314q0 -44 -24 -63h-289q6 -76 33.5 -136.5t74.5 -95.5t107 -35q64 0 112 24t77 65q3 5 6 5q10 0 21 -9t11 -19l-2 -9
q-89 -126 -234 -126q-104 0 -176 49t-107.5 133.5t-35.5 189.5q0 106 36 191t108.5 134t178.5 49q65 0 116 -18.5t79.5 -52t28.5 -76.5q0 -51 -30 -83.5z" />
    <glyph glyph-name="uni0405" unicode="&#x405;" horiz-adv-x="572" 
d="M385.5 72q35.5 30 35.5 83q0 43 -22 73t-54.5 49t-88.5 44q-64 29 -102.5 53t-65.5 64t-27 100q0 51 24.5 95.5t73.5 71.5t120 27q65 0 116.5 -18.5t80 -52t28.5 -76.5q0 -51 -30.5 -84t-76.5 -33q-21 0 -21 12q0 3 8.5 17t15 31.5t6.5 42.5q0 47 -35 76t-92 29
q-59 0 -91 -33.5t-32 -81.5q0 -37 21 -64t52 -45t86 -43q66 -29 107.5 -54.5t70.5 -68t29 -105.5q0 -89 -59.5 -142t-170.5 -53q-72 0 -128 20.5t-87.5 57t-31.5 83.5q0 51 32.5 84t81.5 33q11 0 16 -3.5t5 -8.5q0 -3 -9 -16.5t-16 -31.5t-7 -43q0 -53 40 -86t104 -33
q58 0 93.5 30z" />
    <glyph glyph-name="uni0406" unicode="&#x406;" horiz-adv-x="353" 
d="M40 34l23 6q38 11 51 29t13 64v452q0 46 -13 64t-51 29l-23 6l12 34h219l13 -16l-13 -18q-25 -33 -35 -70t-10 -97v-391q0 -43 12 -60t49 -28l21 -6l-11 -32h-245z" />
    <glyph glyph-name="uni0407" unicode="&#x407;" horiz-adv-x="353" 
d="M40 34l23 6q38 11 51 29t13 64v452q0 46 -13 64t-51 29l-23 6l12 34h219l13 -16l-13 -18q-25 -33 -35 -70t-10 -97v-391q0 -43 12 -60t49 -28l21 -6l-11 -32h-245zM41.5 921.5q21.5 23.5 39.5 23.5q19 0 41 -23t22 -43q0 -19 -22 -42t-41 -23q-17 0 -39 23t-22 42
t21.5 42.5zM230.5 921.5q21.5 23.5 39.5 23.5q19 0 41 -23t22 -43q0 -19 -22 -42t-41 -23q-17 0 -39 23t-22 42t21.5 42.5z" />
    <glyph glyph-name="uni0408" unicode="&#x408;" horiz-adv-x="469" 
d="M259 649q-13 18 -51 29l-23 6l12 34h219l13 -16l-13 -18q-25 -33 -35 -70t-10 -97v-281q0 -130 -55.5 -190t-153.5 -60q-59 0 -100 20.5t-61.5 53t-20.5 69.5q0 50 34 85.5t93 35.5q10 0 14.5 -3.5t4.5 -7.5t-14 -19t-24.5 -36t-10.5 -53q0 -40 24.5 -66.5t67.5 -26.5
q103 0 103 137v410q0 46 -13 64z" />
    <glyph glyph-name="uni0409" unicode="&#x409;" horiz-adv-x="961" 
d="M823.5 390.5q55.5 -28.5 85.5 -76t30 -104.5q0 -98 -61.5 -154t-196.5 -56h-281l-12 34l24 6q38 10 51 28.5t13 64.5v452q0 32 -5 48t-18.5 22.5t-40.5 6.5h-29q-30 0 -45 -8.5t-17 -31.5q-21 -254 -53 -392.5t-75 -191t-105 -52.5q-44 0 -74 26t-30 74q0 29 14 45.5
t34 16.5q12 0 19.5 -8.5t12.5 -27.5q10 -47 39 -47q38 0 65 51.5t47.5 164t38.5 303.5q7 82 -71 95l-24 5l13 34h448l13 -16l-13 -18q-25 -33 -35 -70t-10 -97v-334q0 -82 32.5 -106.5t78.5 -24.5q70 0 110 45t40 118q0 43 -20 78.5t-56.5 56t-83.5 20.5q-27 0 -44 -4.5
t-21 -4.5q-14 0 -14 23q0 18 28 26.5t69 8.5q74 0 129.5 -28.5z" />
    <glyph glyph-name="uni040A" unicode="&#x40a;" horiz-adv-x="1040" 
d="M685 76.5q33 -24.5 80 -24.5q70 0 109.5 45t39.5 118q0 43 -20 78.5t-56.5 56t-83.5 20.5q-26 0 -44 -4.5t-22 -4.5q-13 0 -13 23q0 18 28 26.5t69 8.5q74 0 130 -28.5t86 -76.5t30 -104q0 -98 -62.5 -154t-198.5 -56h-278l-12 34l22 6q39 10 52 28.5t13 64.5v201h-327
v-208q0 -43 12 -60t48 -28l21 -6l-10 -32h-246l-12 34l24 6q27 8 40 17t18.5 26.5t5.5 49.5v452q0 46 -13 64t-51 29l-24 6l12 34h220l13 -16l-13 -18q-25 -33 -35 -70t-10 -97v-122h327v190q0 45 -13.5 64t-51.5 29l-22 6l12 34h218l15 -16l-15 -18q-24 -35 -34.5 -72
t-10.5 -95v-334q0 -82 33 -106.5z" />
    <glyph glyph-name="uni040B" unicode="&#x40b;" horiz-adv-x="769" 
d="M330.5 83.5q5.5 -17.5 19 -26.5t40.5 -17l24 -6l-12 -34h-220l-12 16l12 18q25 33 35 69.5t10 97.5v384q0 33 -2.5 48.5t-9.5 22t-22 6.5h-24q-37 0 -57 -7.5t-31.5 -26t-20.5 -56.5l-5 -23l-35 12v177l18 13l17 -13q15 -11 42 -15.5t71 -4.5h261q84 0 113 20l17 13
l18 -13v-177l-35 -12l-5 23q-9 37 -20.5 56t-32 26.5t-56.5 7.5h-68q-21 0 -28 -15.5t-7 -61.5v-198q48 34 92 51.5t105 17.5q86 0 130 -39t44 -117v-125q0 -60 6.5 -89t23.5 -53l13 -17l-13 -17l-127 -14v288q0 58 -29.5 84.5t-88.5 26.5q-54 0 -87.5 -18t-68.5 -51v-182
q0 -32 5.5 -49.5z" />
    <glyph glyph-name="uni040C" unicode="&#x40c;" horiz-adv-x="660" 
d="M214 66q12 -17 48 -28l21 -6l-10 -32h-246l-12 34l24 6q27 8 40 17t18.5 26.5t5.5 49.5v452q0 46 -13 64t-51 29l-24 6l12 34h220l13 -16l-13 -18q-25 -33 -35 -70t-10 -97v-391q0 -43 12 -60zM650 26q-39 -40 -96 -40q-46 0 -77.5 24.5t-55.5 73.5l-91 182
q-16 31 -40 49.5t-60 30.5q-2 1 -3.5 4.5t-1.5 6.5q0 24 21 24h23l163 208q19 24 19 53q0 25 -14 44l-11 16l18 16h172l12 -34l-24 -6q-22 -5 -40.5 -17.5t-37.5 -36.5l-202 -258q48 -8 80.5 -34t57.5 -75l94 -186q8 -15 17 -22.5t22 -7.5q21 0 39 14zM489.5 955.5
q11.5 -16.5 11.5 -37.5q0 -22 -13 -39.5t-43 -32.5l-113 -56l-29 35l156 156q19 -9 30.5 -25.5z" />
    <glyph glyph-name="uni040D" unicode="&#x40d;" horiz-adv-x="731" 
d="M716 32l-10 -32h-245l-12 34l22 6q27 7 40 16t18.5 26.5t5.5 50.5v379l-337 -367v-19q0 -43 12 -60t48 -28l21 -6l-10 -32h-246l-12 34l24 6q27 8 40 17t18.5 26.5t5.5 49.5v452q0 46 -13 64t-51 29l-24 6l12 34h220l13 -16l-13 -18q-25 -33 -35 -70t-10 -97v-290
l337 366q-1 41 -14 58.5t-50 26.5l-22 6l12 34h218l15 -16l-15 -18q-26 -32 -36 -69t-10 -98v-391q0 -44 13 -61t50 -27zM384 790l-113 56q-30 15 -43 32.5t-13 39.5q0 21 11.5 37.5t30.5 25.5l156 -156z" />
    <glyph glyph-name="uni040E" unicode="&#x40e;" horiz-adv-x="599" 
d="M622 702l-14 -18q-29 -40 -55 -100l-183 -416q-44 -100 -88.5 -141t-100.5 -41q-52 0 -83 25t-31 67q0 36 24.5 64t60.5 28q21 0 21 -13q0 -3 -7 -22.5t-7 -39.5q0 -22 10 -35t28 -13q28 0 50.5 27.5t53.5 96.5l16 36l-235 369q-37 57 -62 85t-55 41l4 16h252l12 -34
l-22 -6q-40 -10 -40 -43q0 -25 24 -64l169 -260l97 216q20 46 20 80q0 28 -13.5 47t-37.5 24l-22 6l12 34h191zM165.5 946.5q24.5 19.5 56.5 19.5q9 0 15 -4.5t6 -9.5q0 -3 -8 -16.5t-8 -36.5q0 -55 89 -55q47 0 69 14.5t22 38.5t-8.5 38t-8.5 17q0 6 6 10t16 4
q32 0 55 -19.5t23 -51.5q0 -45 -46.5 -69t-127.5 -24t-128 24t-47 69q0 32 24.5 51.5z" />
    <glyph glyph-name="uni040F" unicode="&#x40f;" horiz-adv-x="748" 
d="M40 34l24 6q26 8 39 17t18.5 26.5t5.5 49.5v452q0 46 -13 64t-50 29l-24 6l12 34h220l13 -16l-13 -18q-26 -33 -36 -70t-10 -97v-384q0 -33 5 -48.5t18.5 -21.5t40.5 -6h169q27 0 40.5 6t18.5 21.5t5 48.5v452q0 46 -13 64t-51 29l-24 6l12 34h220l13 -16l-13 -18
q-25 -33 -34.5 -70t-9.5 -97v-391q0 -44 12 -60.5t48 -27.5l20 -6l-10 -32h-265v-164l-35 -13l-5 25q-18 69 -40 100.5t-57.5 41.5t-107.5 10h-131z" />
    <glyph glyph-name="uni0410" unicode="&#x410;" horiz-adv-x="706" 
d="M445 34l23 6q24 6 34.5 16t10.5 28q0 16 -11 49l-48 140h-231l-24 -73q-23 -69 -23 -105q0 -34 14 -61l9 -18l-19 -16h-184l-12 34l23 6q40 11 58 29t34 64l157 452q11 33 11 49q0 18 -10.5 28t-34.5 16l-23 6l12 34h193l201 -580q16 -46 35 -70t55 -52l-13 -16h-225z
M244 335h189l-96 280z" />
    <glyph glyph-name="uni0411" unicode="&#x411;" horiz-adv-x="622" 
d="M467.5 293.5q-19.5 35.5 -55.5 56t-82 20.5q-26 0 -44.5 -4.5t-23.5 -4.5q-7 0 -10.5 6.5t-3.5 16.5q0 18 28 26.5t69 8.5q74 0 130 -28.5t86 -76.5t30 -104q0 -98 -61.5 -154t-197.5 -56h-279l-13 34l23 6q27 8 40 17t18.5 26.5t5.5 49.5v384q0 60 -10 97t-34 70l-13 18
l13 16h306q45 0 72 4.5t41 15.5l18 13l17 -13v-177l-35 -12l-5 23q-10 38 -22 56.5t-31.5 26t-55.5 7.5h-98q-27 0 -40 -6.5t-18 -22.5t-5 -48v-402q0 -82 32.5 -106.5t77.5 -24.5q70 0 110 45t40 118q0 43 -19.5 78.5z" />
    <glyph glyph-name="uni0412" unicode="&#x412;" horiz-adv-x="651" 
d="M532.5 434q-26.5 -45 -78.5 -70q67 -22 104.5 -67t37.5 -100q0 -91 -62 -144t-198 -53h-279l-12 34l23 6q38 11 51 29t13 64v494q0 13 -5 18.5t-17 5.5h-58l-12 37q43 17 113 30.5t135 13.5q137 0 204 -55t67 -142q0 -56 -26.5 -101zM264 76.5q33 -24.5 78 -24.5
q70 0 110 41.5t40 108.5q0 38 -19.5 69.5t-55.5 50.5t-84 19q-17 0 -35.5 4t-29.5 9q-15 7 -15 22q0 18 14 18q4 0 16.5 -3.5t33.5 -3.5q68 0 105.5 40t37.5 106q0 63 -42.5 103t-119.5 40q-67 0 -67 -46v-447q0 -82 33 -106.5z" />
    <glyph glyph-name="uni0413" unicode="&#x413;" horiz-adv-x="509" 
d="M461 738l19 13l16 -13v-177l-35 -12l-5 23q-8 37 -20 56t-32 26.5t-57 7.5h-86q-27 0 -40.5 -6.5t-18.5 -22.5t-5 -48v-452q0 -32 5.5 -49.5t18.5 -26.5t40 -17l24 -6l-12 -34h-220l-13 16l13 18q25 34 35.5 70.5t10.5 96.5v316q0 59 -10.5 96.5t-35.5 70.5l-13 18l13 16
h295q84 0 113 20z" />
    <glyph glyph-name="uni0414" unicode="&#x414;" horiz-adv-x="677" 
d="M608 58q32 -16 77 -16v-223l-34 -12l-6 24q-16 59 -32.5 94.5t-44.5 55t-72 19.5h-306q-43 0 -71 -19.5t-45 -55t-34 -94.5l-5 -24l-34 12v224q82 11 123 76.5t57.5 170.5t29.5 305q2 38 -15 56t-51 27l-22 6l12 34h488l11 -16l-11 -18q-26 -33 -36.5 -70.5t-10.5 -96.5
v-412q0 -31 32 -47zM454.5 63q13.5 6 18.5 21.5t5 48.5v452q0 32 -5.5 48t-19 22.5t-40.5 6.5h-61q-30 0 -46 -8.5t-18 -31.5q-16 -254 -50 -389.5t-99 -175.5h274q28 0 41.5 6z" />
    <glyph glyph-name="uni0415" unicode="&#x415;" horiz-adv-x="610" 
d="M226 133q0 -32 5 -48t18.5 -22t40.5 -6h108q36 0 56 7.5t31.5 26t21.5 55.5l6 23l34 -12v-171l-20 -11l-8 11q-11 14 -42 14h-421l-11 32l21 6q37 11 49 28t12 60v391q0 60 -10 97t-35 70l-13 18l13 16h306q86 0 114 21l18 13l16 -13v-178l-34 -12l-6 23
q-10 37 -21.5 55.5t-31.5 26t-56 7.5h-97q-27 0 -40.5 -6t-18.5 -22t-5 -48v-192h127q24 0 42.5 10.5t36.5 35.5l8 11l20 -11v-171l-34 -12l-6 23q-9 34 -31.5 45.5t-77.5 11.5h-85v-203z" />
    <glyph glyph-name="uni0416" unicode="&#x416;" horiz-adv-x="1016" 
d="M430 346q-36 -12 -60 -30.5t-40 -49.5l-90 -182q-25 -50 -56.5 -74t-77.5 -24q-57 0 -96 40l16 29q18 -14 39 -14q13 0 22 7.5t17 22.5l95 186q24 48 56.5 74t80.5 35l-202 258q-19 24 -37.5 36.5t-40.5 17.5l-23 6l11 34h172l18 -16l-11 -16q-14 -19 -14 -44
q0 -28 19 -53l164 -208h22q21 0 21 -24q0 -10 -5 -11zM565.5 65.5q7.5 -16.5 31.5 -27.5l21 -6l-11 -32h-202l-11 34l21 6q26 12 35 29t9 64v452q0 46 -6.5 64t-26.5 29l-21 6l10 34h178l12 -16l-12 -18q-19 -33 -27 -70t-8 -97v-391q0 -44 7.5 -60.5zM1006 26
q-39 -40 -96 -40q-46 0 -77.5 24t-56.5 74l-90 182q-16 31 -40 49.5t-60 30.5q-5 1 -5 11q0 24 21 24h22l164 208q19 25 19 53q0 25 -14 44l-11 16l18 16h172l11 -34l-23 -6q-22 -5 -40.5 -17.5t-37.5 -36.5l-202 -258q48 -9 80.5 -35t56.5 -74l95 -186q8 -15 17 -22.5
t22 -7.5q21 0 39 14z" />
    <glyph glyph-name="uni0417" unicode="&#x417;" horiz-adv-x="541" 
d="M128 718q16 0 44 5q56 9 97 9q58 0 106.5 -19.5t77.5 -59.5t29 -97q0 -119 -143 -169q96 -20 137 -70t41 -133q0 -58 -32.5 -103t-92 -70t-136.5 -25q-62 0 -115 18.5t-85.5 55t-32.5 88.5q0 47 29 76t72 29q12 0 16.5 -2t4.5 -10q0 -3 -11.5 -25t-11.5 -60
q0 -55 32.5 -84t98.5 -29q73 0 114 39t41 109q0 71 -39 118t-118 47q-21 0 -37 -3t-23 -3q-5 0 -8.5 5.5t-3.5 14.5q0 14 13 20.5t46 13.5q79 15 107 50.5t28 96.5q0 59 -31.5 92t-85.5 33q-68 0 -105 -28t-56 -106l-5 -22l-33 11v199l16 12l17 -12q14 -12 38 -12z" />
    <glyph glyph-name="uni0418" unicode="&#x418;" horiz-adv-x="731" 
d="M716 32l-10 -32h-245l-12 34l22 6q27 7 40 16t18.5 26.5t5.5 50.5v379l-337 -367v-19q0 -43 12 -60t48 -28l21 -6l-10 -32h-246l-12 34l24 6q27 8 40 17t18.5 26.5t5.5 49.5v452q0 46 -13 64t-51 29l-24 6l12 34h220l13 -16l-13 -18q-25 -33 -35 -70t-10 -97v-290
l337 366q-1 41 -14 58.5t-50 26.5l-22 6l12 34h218l15 -16l-15 -18q-26 -32 -36 -69t-10 -98v-391q0 -44 13 -61t50 -27z" />
    <glyph glyph-name="uni0419" unicode="&#x419;" horiz-adv-x="731" 
d="M716 32l-10 -32h-245l-12 34l22 6q27 7 40 16t18.5 26.5t5.5 50.5v379l-337 -367v-19q0 -43 12 -60t48 -28l21 -6l-10 -32h-246l-12 34l24 6q27 8 40 17t18.5 26.5t5.5 49.5v452q0 46 -13 64t-51 29l-24 6l12 34h220l13 -16l-13 -18q-25 -33 -35 -70t-10 -97v-290
l337 366q-1 41 -14 58.5t-50 26.5l-22 6l12 34h218l15 -16l-15 -18q-26 -32 -36 -69t-10 -98v-391q0 -44 13 -61t50 -27zM213.5 946.5q24.5 19.5 56.5 19.5q9 0 15 -4.5t6 -9.5q0 -3 -8 -16.5t-8 -36.5q0 -55 89 -55q47 0 69 14.5t22 38.5t-8.5 38t-8.5 17q0 6 6 10t16 4
q32 0 55 -19.5t23 -51.5q0 -45 -46.5 -69t-127.5 -24t-128 24t-47 69q0 32 24.5 51.5z" />
    <glyph glyph-name="uni041A" unicode="&#x41a;" horiz-adv-x="660" 
d="M214 66q12 -17 48 -28l21 -6l-10 -32h-246l-12 34l24 6q27 8 40 17t18.5 26.5t5.5 49.5v452q0 46 -13 64t-51 29l-24 6l12 34h220l13 -16l-13 -18q-25 -33 -35 -70t-10 -97v-391q0 -43 12 -60zM650 26q-39 -40 -96 -40q-46 0 -77.5 24.5t-55.5 73.5l-91 182
q-16 31 -40 49.5t-60 30.5q-2 1 -3.5 4.5t-1.5 6.5q0 24 21 24h23l163 208q19 24 19 53q0 25 -14 44l-11 16l18 16h172l12 -34l-24 -6q-22 -5 -40.5 -17.5t-37.5 -36.5l-202 -258q48 -8 80.5 -34t57.5 -75l94 -186q8 -15 17 -22.5t22 -7.5q21 0 39 14z" />
    <glyph glyph-name="uni041B" unicode="&#x41b;" horiz-adv-x="674" 
d="M585 614q-10 -37 -10 -97v-391q0 -44 12 -60.5t49 -27.5l20 -6l-10 -32h-245l-12 34l23 6q27 8 40 17t18.5 26.5t5.5 49.5v452q0 32 -5 48t-18.5 22.5t-40.5 6.5h-29q-30 0 -45 -8.5t-17 -31.5q-21 -254 -53 -392.5t-75 -191t-105 -52.5q-44 0 -74 26t-30 74
q0 29 14 45.5t34 16.5q13 0 20 -8.5t12 -27.5q10 -47 39 -47q39 0 66 51t47 163.5t38 304.5q4 43 -14.5 65.5t-56.5 29.5l-24 5l13 34h449l12 -16l-12 -18q-26 -33 -36 -70z" />
    <glyph glyph-name="uni041C" unicode="&#x41c;" horiz-adv-x="921" 
d="M827.5 90.5q15.5 -41.5 48.5 -74.5l-13 -16h-219l-12 34l23 6q32 10 44.5 25.5t12.5 46.5l-2 37l-29 417l-209 -494h-54l-209 494l-22 -308q-6 -70 -6 -98q0 -41 8.5 -69.5t27.5 -56.5l12 -18l-15 -16h-188l-11 34l23 6q39 12 53.5 30t17.5 63l27 396q1 13 3 36t2 41
q0 34 -12.5 49t-45.5 23l-23 6l11 34h182l206 -503l212 503h144l15 -16l-12 -18q-19 -28 -27.5 -56.5t-8.5 -69.5q0 -15 5 -90l20 -274q5 -62 20.5 -103.5z" />
    <glyph glyph-name="uni041D" unicode="&#x41d;" horiz-adv-x="779" 
d="M466 34l23 6q38 11 51 29t13 64v201h-327v-208q0 -43 12 -60t49 -28l21 -6l-11 -32h-245l-12 34l23 6q38 11 51 29t13 64v452q0 46 -13 64t-51 29l-23 6l12 34h219l13 -16l-13 -18q-25 -33 -35 -70t-10 -97v-122h327v190q0 46 -13 64t-51 29l-23 6l12 34h219l13 -16
l-13 -18q-25 -33 -35 -70t-10 -97v-391q0 -43 12 -60t49 -28l21 -6l-11 -32h-245z" />
    <glyph glyph-name="uni041E" unicode="&#x41e;" horiz-adv-x="733" 
d="M72 548.5q37 84.5 111.5 134t182.5 49.5t182.5 -49.5t112 -134t37.5 -190.5t-37.5 -190t-112 -133t-182.5 -49t-182.5 49t-111.5 133t-37 190t37 190.5zM568.5 500.5q-20.5 73.5 -69.5 124t-128 50.5q-71 0 -122.5 -43.5t-78.5 -117.5t-27 -164q0 -87 25 -156t74.5 -109
t119.5 -40t121.5 41t78.5 111.5t27 157.5q0 72 -20.5 145.5z" />
    <glyph glyph-name="uni041F" unicode="&#x41f;" horiz-adv-x="672" 
d="M198.5 655.5q-13.5 -6.5 -18.5 -22.5t-5 -48v-452q0 -32 5.5 -49.5t18.5 -26.5t40 -17l24 -6l-12 -34h-220l-13 16l13 18q25 34 35.5 70.5t10.5 96.5v316q0 59 -10.5 96.5t-35.5 70.5l-13 18l13 16h586l13 -16l-13 -18q-26 -33 -36 -70t-10 -97v-391q0 -43 12 -60t49 -28
l22 -6l-11 -32h-244l-13 34l22 6q27 8 40.5 17t19 26.5t5.5 49.5v452q0 32 -5.5 48t-19 22.5t-40.5 6.5h-169q-27 0 -40.5 -6.5z" />
    <glyph glyph-name="uni0420" unicode="&#x420;" horiz-adv-x="596" 
d="M236 103.5q10 -36.5 35 -69.5l13 -18l-13 -16h-219l-12 34l23 6q38 10 51 29t13 64v494q0 13 -5 18.5t-17 5.5h-58l-12 37q43 17 113.5 30.5t135.5 13.5q148 0 220 -66.5t72 -171.5q0 -65 -26 -117.5t-80 -84t-134 -31.5q-37 0 -62.5 9t-25.5 26q0 10 4 17t12 7
q4 0 16.5 -3.5t32.5 -3.5q75 0 117 48t42 130q0 81 -44.5 133t-125.5 52q-76 0 -76 -46v-429q0 -61 10 -97.5z" />
    <glyph glyph-name="uni0421" unicode="&#x421;" horiz-adv-x="617" 
d="M474.5 713.5q51.5 -18.5 80 -52t28.5 -76.5q0 -51 -30.5 -84t-76.5 -33q-21 0 -21 12q0 3 8.5 17t15 31.5t6.5 42.5q0 47 -35 76t-92 29q-74 0 -121 -46t-68 -118t-21 -154q0 -84 26.5 -153t75.5 -109.5t114 -40.5q64 0 111 23.5t77 66.5q3 4 7 4q9 0 20.5 -9.5
t11.5 -18.5q0 -3 -3 -8q-86 -127 -233 -127q-104 0 -176 49t-108 133.5t-36 189.5q0 106 36 190.5t108.5 134t178.5 49.5q65 0 116.5 -18.5z" />
    <glyph glyph-name="uni0422" unicode="&#x422;" horiz-adv-x="595" 
d="M513.5 627.5q-11.5 18.5 -31.5 26t-56 7.5h-45q-21 0 -27.5 -14.5t-6.5 -61.5v-452q0 -46 13 -64t51 -29l23 -6l-12 -34h-219l-13 16l13 18q25 33 35 70t10 97v384q0 47 -6.5 61.5t-27.5 14.5h-45q-36 0 -56 -7.5t-31.5 -26t-21.5 -55.5l-6 -23l-34 12v178l16 13l18 -13
q28 -21 114 -21h259q86 0 114 21l18 13l16 -13v-178l-34 -12l-6 23q-10 37 -21.5 55.5z" />
    <glyph glyph-name="uni0423" unicode="&#x423;" horiz-adv-x="599" 
d="M622 702l-14 -18q-29 -40 -55 -100l-183 -416q-44 -100 -88.5 -141t-100.5 -41q-52 0 -83 25t-31 67q0 36 24.5 64t60.5 28q21 0 21 -13q0 -3 -7 -22.5t-7 -39.5q0 -22 10 -35t28 -13q28 0 50.5 27.5t53.5 96.5l16 36l-235 369q-37 57 -62 85t-55 41l4 16h252l12 -34
l-22 -6q-40 -10 -40 -43q0 -25 24 -64l169 -260l97 216q20 46 20 80q0 28 -13.5 47t-37.5 24l-22 6l12 34h191z" />
    <glyph glyph-name="uni0424" unicode="&#x424;" horiz-adv-x="814" 
d="M334 147q0 -31 -39 -31q-68 0 -138 28.5t-117 88.5t-47 148q0 87 46 150.5t128.5 97.5t190.5 36q-1 50 -7.5 75.5t-26.5 31.5l-22 6l11 35h190l12 -16l-12 -19q-17 -30 -26 -53.5t-14 -60.5q112 -2 192.5 -36.5t123.5 -97t43 -147.5q0 -89 -47 -149t-117 -89t-138 -29
q-18 0 -28.5 7.5t-10.5 23.5q0 15 15 17q107 14 160 72.5t53 154.5q0 105 -61.5 162t-160.5 57q-18 0 -24 -5.5t-6 -19.5v-499q0 -43 12 -60t49 -28l22 -6l-12 -32h-245l-12 35l24 5q38 12 50.5 29.5t12.5 63.5v492q0 15 -6 20.5t-24 4.5q-100 -5 -160.5 -61t-60.5 -162
q0 -93 53 -151t160 -72q14 -2 14 -17z" />
    <glyph glyph-name="uni0425" unicode="&#x425;" horiz-adv-x="680" 
d="M456 583q13 20 17 31.5t4 24.5q0 16 -13 45l-9 18l19 16h184l12 -34l-23 -6q-25 -7 -43 -18.5t-35 -35.5l-175 -253l180 -255q26 -37 43.5 -58t43.5 -42l-13 -16h-237l-12 34l23 6q39 11 39 43q0 26 -22 59l-109 153l-106 -160q-13 -20 -17 -31.5t-4 -24.5q0 -16 13 -45
l9 -18l-19 -16h-184l-12 34l23 6q25 7 43 18.5t35 35.5l179 259l-171 243q-52 72 -91 106l13 16h237l12 -34l-23 -6q-39 -11 -39 -43q0 -26 22 -59l103 -147z" />
    <glyph glyph-name="uni0426" unicode="&#x426;" horiz-adv-x="714" 
d="M76 57q13 9 18.5 26.5t5.5 49.5v452q0 46 -13 64t-50 29l-24 6l12 34h220l13 -16l-13 -18q-26 -33 -36 -70t-10 -97v-384q0 -33 5 -48.5t18.5 -21.5t40.5 -6h169q27 0 40.5 6t18.5 21.5t5 48.5v452q0 46 -13 64t-51 29l-24 6l12 34h220l13 -16l-13 -18q-25 -33 -34.5 -70
t-9.5 -97v-412q0 -31 31.5 -47t76.5 -16v-223l-35 -12l-6 24q-20 66 -36 99.5t-42 51.5t-70 18h-490l-12 34l24 6q26 8 39 17z" />
    <glyph glyph-name="uni0427" unicode="&#x427;" horiz-adv-x="628" 
d="M363 40q27 8 39.5 17t18 26.5t5.5 49.5v200q-48 -36 -91.5 -54t-104.5 -18q-84 0 -129.5 40t-45.5 118v124q0 61 -6.5 89.5t-24.5 52.5l-14 17l14 17l130 14v-288q0 -58 29 -84.5t88 -26.5q53 0 86.5 17.5t68.5 50.5v183q0 46 -12.5 64t-50.5 29l-25 6l13 34h219l13 -16
l-13 -18q-25 -33 -34.5 -70t-9.5 -97v-391q0 -44 12 -60.5t48 -27.5l22 -6l-12 -32h-245l-13 34z" />
    <glyph glyph-name="uni0428" unicode="&#x428;" horiz-adv-x="1102" 
d="M40 34l24 6q26 8 39 17t18.5 26.5t5.5 49.5v452q0 46 -13 64t-50 29l-24 6l12 34h220l13 -16l-13 -18q-24 -35 -34.5 -72t-10.5 -95v-384q0 -33 5 -48.5t18 -21.5t40 -6h146q28 0 42 6t20 22t6 48v452q0 46 -12.5 64t-51.5 29l-24 6l13 34h216l12 -16l-12 -18
q-26 -33 -36.5 -70.5t-10.5 -96.5v-391q0 -42 10 -55.5t41 -13.5h164q27 0 40 6t18 21.5t5 48.5v452q0 46 -12.5 64t-50.5 29l-24 6l11 34h220l13 -16l-13 -18q-24 -35 -34 -71.5t-10 -95.5v-391q0 -44 12 -61t48 -27l21 -6l-11 -32h-994z" />
    <glyph glyph-name="uni0429" unicode="&#x429;" horiz-adv-x="1094" 
d="M103 57q13 9 18.5 26.5t5.5 49.5v452q0 46 -13 64t-50 29l-24 6l12 34h220l13 -16l-13 -18q-24 -35 -34.5 -72t-10.5 -95v-384q0 -33 5 -48.5t18 -21.5t40 -6h146q28 0 42 6t20 22t6 48v452q0 46 -12.5 64t-51.5 29l-24 6l13 34h216l12 -16l-12 -18q-26 -33 -36.5 -70.5
t-10.5 -96.5v-391q0 -42 10 -55.5t41 -13.5h164q27 0 40 6t18 21.5t5 48.5v452q0 46 -12.5 64t-50.5 29l-24 6l11 34h220l13 -16l-13 -18q-24 -35 -34 -71.5t-10 -95.5v-412q0 -31 31.5 -47t76.5 -16v-223l-34 -12l-6 24q-16 59 -33 94.5t-45 55t-72 19.5h-842l-12 34l24 6
q26 8 39 17z" />
    <glyph glyph-name="uni042A" unicode="&#x42a;" horiz-adv-x="735" 
d="M161 34l24 6q38 10 51 28.5t13 64.5v452q0 77 -54 77h-26q-36 0 -56 -7.5t-31.5 -26t-21.5 -56.5l-6 -23l-34 12v177l17 13l17 -13q15 -11 42.5 -15.5t71.5 -4.5h225l13 -16l-13 -18q-25 -34 -35.5 -71t-10.5 -96v-334q0 -82 33 -106.5t78 -24.5q71 0 111 45t40 118
q0 43 -20 78.5t-56.5 56t-83.5 20.5q-27 0 -44.5 -4.5t-21.5 -4.5q-6 0 -9.5 6.5t-3.5 16.5q0 18 28 26.5t69 8.5q74 0 130 -28.5t86 -76.5t30 -104q0 -98 -62.5 -154t-198.5 -56h-278z" />
    <glyph glyph-name="uni042B" unicode="&#x42b;" horiz-adv-x="936" 
d="M259.5 76.5q32.5 -24.5 78.5 -24.5q61 0 98 45.5t37 117.5q0 42 -19 78t-52.5 56.5t-73.5 20.5q-27 0 -44.5 -4.5t-21.5 -4.5q-7 0 -10.5 6.5t-3.5 16.5q0 18 28 26.5t69 8.5q68 0 120.5 -28.5t82 -76.5t29.5 -104q0 -97 -60 -153.5t-186 -56.5h-279l-12 34l24 6
q37 10 50 28.5t13 64.5v452q0 45 -13 64t-50 29l-24 6l12 34h220l13 -16l-13 -18q-25 -34 -35 -70.5t-10 -96.5v-334q0 -82 32.5 -106.5zM623 34l23 6q26 8 39.5 17.5t19.5 26.5t6 49v452q0 45 -13.5 63.5t-51.5 29.5l-23 6l11 34h221l12 -16l-12 -18q-25 -33 -35.5 -70.5
t-10.5 -96.5v-391q0 -43 12 -60t48 -28l22 -6l-11 -32h-246z" />
    <glyph glyph-name="uni042C" unicode="&#x42c;" horiz-adv-x="613" 
d="M259 76.5q33 -24.5 78 -24.5q70 0 110 45t40 118q0 43 -20 78.5t-56 56t-83 20.5q-27 0 -44.5 -4.5t-21.5 -4.5q-7 0 -10.5 6.5t-3.5 16.5q0 18 28 26.5t69 8.5q74 0 130 -28.5t86 -76.5t30 -104q0 -98 -62 -154t-198 -56h-279l-12 34l24 6q37 10 50 28.5t13 64.5v452
q0 45 -13 64t-50 29l-24 6l12 34h220l13 -16l-13 -18q-25 -34 -35.5 -71t-10.5 -96v-334q0 -82 33 -106.5z" />
    <glyph glyph-name="uni042D" unicode="&#x42d;" horiz-adv-x="606" 
d="M536 168.5q-35 -84.5 -105.5 -133.5t-173.5 -49q-61 0 -114 18.5t-85 55t-32 88.5q0 47 28 76t72 29q11 0 15.5 -2t4.5 -10q0 -3 -11.5 -25t-11.5 -60q0 -51 38.5 -82t92.5 -31q58 0 103 38.5t70.5 104.5t28.5 147h-311q0 19 5.5 36t18.5 26h287q-6 118 -60.5 199.5
t-160.5 81.5q-50 0 -88 -27.5t-54 -86.5l-5 -23l-35 12v179l17 12l18 -12q8 -7 17 -9.5t21 -2.5q10 0 24 2t22 3q54 9 86 9q103 0 173 -49t105 -133.5t35 -191.5q0 -105 -35 -189.5z" />
    <glyph glyph-name="uni042E" unicode="&#x42e;" horiz-adv-x="1042" 
d="M40 34l24 6q26 8 39.5 17.5t19 26.5t5.5 49v452q0 46 -13 64t-51 29l-24 6l12 34h220l13 -16l-13 -18q-25 -33 -35 -70t-10 -97v-122h148q6 96 43 172t106 120t166 44q103 0 174.5 -49t107 -133.5t35.5 -190.5t-35.5 -190t-107 -133t-174.5 -49q-100 0 -169.5 45.5
t-106 124t-40.5 178.5h-147v-208q0 -43 12 -60t48 -28l21 -6l-10 -32h-246zM580.5 631.5q-48.5 -43.5 -73.5 -118t-25 -164.5q0 -86 23 -155.5t69 -109.5t112 -40t114 41t73 112t25 158q0 73 -19.5 146t-64.5 123.5t-118 50.5q-67 0 -115.5 -43.5z" />
    <glyph glyph-name="uni042F" unicode="&#x42f;" horiz-adv-x="677" 
d="M66 41q11 0 19.5 8t18.5 22l109 190q10 19 18 30t21 18q-75 19 -114 74.5t-39 129.5q0 98 70 158t215 60q64 0 133 -13.5t115 -30.5l-13 -38h-58q-12 0 -17 -5t-5 -18v-493q0 -46 13 -64.5t52 -28.5l21 -6l-11 -34h-218l-12 16l12 18q24 35 34.5 71t10.5 96v429
q0 18 -16 32t-62 14q-77 0 -119 -47t-42 -120q0 -70 40 -112.5t112 -42.5q20 0 32.5 3t16.5 3q14 0 14 -23q0 -17 -18 -24q-29 -11 -42.5 -20.5t-25.5 -28.5l-90 -161q-25 -43 -42 -66.5t-40.5 -37t-56.5 -13.5q-52 0 -92 40l16 29q20 -14 40 -14z" />
    <glyph glyph-name="uni0430" unicode="&#x430;" horiz-adv-x="604" 
d="M317 10q-43 -24 -93 -24q-48 0 -89 27.5t-65.5 82.5t-24.5 133q0 86 31.5 149.5t90 97.5t137.5 34q39 0 110 -13q60 -10 90 -12l11 -13l-12 -18q-7 -10 -10 -18.5t-3 -20.5v-327q0 -31 30 -31q25 0 50 18l19 -26q-26 -29 -56 -46t-55 -17q-41 0 -59 25t-18 81
q-41 -58 -84 -82zM182.5 108q32.5 -45 81.5 -45q40 0 75 22.5t62 68.5v270q-46 31 -98 31q-73 0 -113 -54.5t-40 -152.5q0 -95 32.5 -140z" />
    <glyph glyph-name="uni0431" unicode="&#x431;" horiz-adv-x="540" 
d="M191 471q42 24 94 24q59 0 111.5 -28t84.5 -84t32 -134q0 -75 -29 -135t-83.5 -94t-128.5 -34q-78 0 -136.5 39t-90 111.5t-31.5 170.5q0 118 30 213.5t91 152t151 56.5q15 0 43 -2l35 -1q37 0 56 10q13 9 26 33q3 7 7 12.5t9 5.5q8 0 17.5 -20t9.5 -39q0 -46 -26.5 -68
t-71.5 -22q-29 0 -81 10q-7 1 -31.5 5t-45.5 4q-23 0 -46 -6q-71 -19 -75 -251h8q29 47 71 71zM391.5 338.5q-15.5 45.5 -49 75t-83.5 29.5q-66 0 -103.5 -52t-37.5 -144q0 -90 36.5 -148.5t103.5 -58.5q45 0 79 28t52 74.5t18 102.5q0 48 -15.5 93.5z" />
    <glyph glyph-name="uni0432" unicode="&#x432;" horiz-adv-x="571" 
d="M528 140q0 43 -27 73.5t-77 44.5q33 18 51.5 48t18.5 67q0 65 -59 100.5t-180 35.5q-64 0 -132.5 -12t-109.5 -28l11 -35h54q10 0 14.5 -4.5t4.5 -16.5v-289q0 -44 -11.5 -61t-47.5 -25l-20 -6l10 -32h272q228 0 228 140zM392.5 205q31.5 -22 31.5 -61q0 -47 -36.5 -70.5
t-85.5 -23.5q-47 0 -80.5 22t-33.5 96v247q0 18 15 30t61 12q66 0 99 -24.5t33 -68.5t-30 -68t-84 -24q-19 0 -31 3.5t-16 3.5q-11 0 -11 -18q0 -14 21.5 -22.5t52.5 -8.5h7q56 -3 87.5 -25z" />
    <glyph glyph-name="uni0433" unicode="&#x433;" horiz-adv-x="462" 
d="M368 496q25 4 39 14l15 13l15 -13v-164l-30 -10l-7 21q-9 35 -19.5 52t-28.5 23.5t-52 6.5h-54q-25 0 -37 -5.5t-17 -20t-5 -43.5v-248q0 -42 11.5 -58t47.5 -26l21 -7l-11 -31h-200l-11 15l11 16q24 32 33 61t9 84v130q0 56 -9.5 90.5t-32.5 63.5l-11 18l11 14h245
q42 0 67 4z" />
    <glyph glyph-name="uni0434" unicode="&#x434;" horiz-adv-x="611" 
d="M522 53.5q25 -14.5 64 -14.5v-207l-30 -12l-5 22q-14 58 -30 91t-41 50t-66 17h-225q-41 0 -65.5 -16.5t-39.5 -49t-32 -92.5l-6 -21l-31 12v206q61 7 92 41.5t43 89t23 162.5l6 52q3 17 3 27q0 25 -14 34t-52 15l-21 7l10 30h432l12 -15l-12 -15q-23 -30 -31.5 -64
t-8.5 -91v-215q0 -29 25 -43.5zM394.5 65.5q11.5 13.5 11.5 56.5v251q0 42 -11.5 55.5t-47.5 13.5h-38q-28 0 -42 -7.5t-16 -29.5q-13 -116 -25 -183t-32 -110t-52 -60h205q36 0 47.5 13.5z" />
    <glyph glyph-name="uni0435" unicode="&#x435;" horiz-adv-x="529" 
d="M385 9q-51 -23 -110 -23q-69 0 -121 32t-80.5 90t-28.5 134q0 80 32 140.5t90.5 94t136.5 33.5q55 0 93.5 -20.5t57.5 -54t19 -72.5q0 -42 -22.5 -81t-65.5 -63.5t-103 -24.5q-32 0 -71 12t-39 35q0 8 4.5 15t10.5 7q3 0 20 -6.5t44 -6.5q60 0 93.5 34t33.5 80
q0 39 -25 67.5t-70 28.5q-64 0 -100 -56.5t-36 -161.5q0 -89 38 -139.5t110 -50.5q88 0 146 57q4 4 9 4q8 0 17 -9.5t9 -19.5q0 -5 -4 -9q-37 -43 -88 -66z" />
    <glyph glyph-name="uni0436" unicode="&#x436;" horiz-adv-x="807" 
d="M315 265q18 0 18 -16q0 -8 -5 -12.5t-18 -11.5q-16 -8 -28.5 -18t-21.5 -28l-38 -74q-32 -68 -57 -93.5t-66 -25.5q-44 0 -84 37l15 28q17 -13 36 -13q11 0 18.5 6.5t16.5 20.5l67 126q21 39 64 60l-107 159q-15 23 -32 34t-39 16l-21 6l10 31h162l17 -15l-8 -16
q-1 -4 -6 -17t-5 -24q0 -14 3 -24.5t15 -26.5l75 -109h19zM278 31l20 7q36 10 48 26t12 58v253q0 42 -12 58.5t-48 26.5l-20 7l12 30h199l12 -14l-12 -16q-23 -31 -32 -65t-9 -90v-197q0 -42 7 -57t31 -22l18 -6l-10 -30h-204zM722 44q7 -6 18 -6q19 0 36 13l16 -28
q-37 -37 -85 -37q-29 0 -48 11.5t-35.5 36t-39.5 71.5l-38 74q-9 18 -21.5 28t-28.5 18q-13 7 -18 11.5t-5 12.5q0 16 18 16h19l75 109q11 16 15 27t4 24q0 11 -5 24t-6 17l-9 16l16 15h163l12 -31l-22 -6q-47 -11 -72 -50l-105 -159q41 -21 62 -60l67 -126q10 -15 17 -21z
" />
    <glyph glyph-name="uni0437" unicode="&#x437;" horiz-adv-x="478" 
d="M310.5 214q-35.5 25 -96.5 27h-10q-22 0 -22 18q0 11 12 16.5t41 11.5q57 9 79.5 31.5t22.5 62.5q0 32 -27 53.5t-77 21.5q-100 0 -130 -102l-7 -21l-29 10v164l13 13l16 -13q15 -10 36 -10q13 0 35 5q42 7 67 7q96 0 143 -32t47 -89q0 -44 -25.5 -74.5t-75.5 -45.5
q62 -18 91 -53.5t29 -78.5q0 -39 -24.5 -73.5t-73 -55.5t-116.5 -21q-80 0 -136 33t-56 92q0 31 21 51.5t53 20.5q22 0 22 -11q0 -4 -5 -19.5t-5 -37.5q0 -36 28.5 -55.5t77.5 -19.5q58 0 87.5 25t29.5 79q0 45 -35.5 70z" />
    <glyph glyph-name="uni0438" unicode="&#x438;" horiz-adv-x="672" 
d="M219 96q5 -31 16.5 -42.5t35.5 -17.5l19 -6l-9 -30h-226l-10 31l20 7q35 10 46.5 26t11.5 58v253q0 42 -11.5 58.5t-46.5 26.5l-20 7l10 30h201l12 -14l-12 -16q-23 -32 -32.5 -65.5t-9.5 -89.5v-141l241 228q-5 30 -16.5 42t-36.5 19l-20 7l10 30h201l11 -14l-11 -16
q-23 -32 -32.5 -65.5t-9.5 -89.5v-197q0 -28 5 -42.5t16 -21.5t35 -15l20 -6l-10 -30h-225l-10 31l20 7q36 10 47.5 26t11.5 58v201z" />
    <glyph glyph-name="uni0439" unicode="&#x439;" horiz-adv-x="672" 
d="M219 96q5 -31 16.5 -42.5t35.5 -17.5l19 -6l-9 -30h-226l-10 31l20 7q35 10 46.5 26t11.5 58v253q0 42 -11.5 58.5t-46.5 26.5l-20 7l10 30h201l12 -14l-12 -16q-23 -32 -32.5 -65.5t-9.5 -89.5v-141l241 228q-5 30 -16.5 42t-36.5 19l-20 7l10 30h201l11 -14l-11 -16
q-23 -32 -32.5 -65.5t-9.5 -89.5v-197q0 -28 5 -42.5t16 -21.5t35 -15l20 -6l-10 -30h-225l-10 31l20 7q36 10 47.5 26t11.5 58v201zM200 714.5q21 19.5 51 19.5q8 0 13 -4t5 -10q0 -3 -7.5 -16.5t-7.5 -36.5q0 -25 17.5 -40t62.5 -15q42 0 62 14.5t20 38.5t-7 38t-7 17
q0 14 19 14q28 0 48.5 -19.5t20.5 -51.5q0 -44 -42 -68.5t-114 -24.5t-113.5 24.5t-41.5 68.5q0 32 21 51.5z" />
    <glyph glyph-name="uni043A" unicode="&#x43a;" horiz-adv-x="593" 
d="M45 31l19 7q36 10 47.5 26t11.5 58v253q0 42 -11.5 58.5t-47.5 26.5l-19 7l9 30h200l12 -14l-12 -16q-22 -32 -31.5 -66t-9.5 -89v-197q0 -28 5 -42.5t16 -21.5t35 -15l19 -6l-9 -30h-225zM508 44.5q7 -6.5 17 -6.5q20 0 37 13l16 -28q-37 -37 -85 -37q-41 0 -68 22
t-55 69l-69 115q-8 14 -19.5 21.5t-22.5 12.5t-15 7t-4 12q0 20 17 20h18l90 109q20 25 20 57q0 18 -7 35l-8 16l16 15h163l11 -31l-19 -6q-22 -5 -39.5 -16.5t-34.5 -33.5l-125 -158q51 -25 72 -61l78 -126q9 -14 16 -20.5z" />
    <glyph glyph-name="uni043B" unicode="&#x43b;" horiz-adv-x="609" 
d="M520.5 401q-9.5 -34 -9.5 -89v-197q0 -39 11.5 -54t45.5 -25l19 -5l-10 -31h-225l-11 31l20 7q36 10 48.5 26.5t12.5 59.5v250q0 43 -12 56.5t-49 13.5h-17q-28 0 -41.5 -7t-15.5 -29q-14 -172 -42.5 -265t-63.5 -125t-77 -32q-40 0 -64.5 25t-24.5 66q0 28 13 44.5
t36 16.5q19 0 22 -31q7 -39 36 -39q45 0 70.5 86.5t36.5 229.5l1 18q0 31 -13.5 42t-52.5 16l-20 7l10 30h398l14 -15l-14 -16q-22 -31 -31.5 -65z" />
    <glyph glyph-name="uni043C" unicode="&#x43c;" horiz-adv-x="747" 
d="M678 129.5q8 -41.5 21 -68.5t33 -47l-12 -14h-202l-10 31l19 7q29 7 42.5 24t13.5 44q0 8 -4 32l-40 249l-150 -321h-31l-151 321l-38 -240q-2 -14 -2 -22q0 -44 33 -94l12 -17l-13 -14h-172l-12 31l23 7q34 9 46 27t18 57l40 271q1 5 1 13q0 22 -14 34.5t-42 19.5l-19 7
l8 30h169l143 -305l146 305h130l15 -14l-13 -16q-35 -50 -35 -92q0 -12 3 -26l34 -170q2 -8 10 -49.5z" />
    <glyph glyph-name="uni043D" unicode="&#x43d;" horiz-adv-x="663" 
d="M374 31l22 7q36 10 47.5 26t11.5 58v99h-241v-106q0 -28 5 -42.5t16.5 -22t34.5 -14.5l20 -6l-10 -30h-224l-11 31l20 7q36 10 47.5 26t11.5 58v253q0 42 -11.5 58.5t-47.5 26.5l-20 7l11 30h199l12 -14l-12 -16q-23 -30 -32 -64.5t-9 -90.5v-33h241v96q0 42 -11.5 58.5
t-47.5 26.5l-22 7l12 30h199l13 -14l-13 -16q-22 -30 -31 -64t-9 -91v-197q0 -28 5 -42.5t16 -22t34 -14.5l18 -6l-9 -30h-223z" />
    <glyph glyph-name="uni043E" unicode="&#x43e;" horiz-adv-x="578" 
d="M74.5 387q29.5 59 85 91t129.5 32t129 -32t85 -91t30 -139q0 -79 -30 -138.5t-85 -91.5t-129 -32t-129.5 32t-85 91.5t-29.5 138.5q0 80 29.5 139zM415 341q-13 49 -43.5 83t-79.5 34q-42 0 -74.5 -26.5t-50.5 -74.5t-18 -110q0 -95 37 -151t100 -56q41 0 73.5 25.5
t50.5 72t18 107.5q0 47 -13 96z" />
    <glyph glyph-name="uni043F" unicode="&#x43f;" horiz-adv-x="636" 
d="M215.5 435.5q-13.5 -6.5 -18.5 -22.5t-5 -48v-232q0 -32 5.5 -49.5t18.5 -26.5t40 -17l24 -6l-13 -34h-209l-13 16l13 18q25 33 34.5 69.5t9.5 97.5v94q0 62 -9.5 99t-34.5 68l-13 20l13 15h495l13 -15l-13 -20q-25 -31 -34.5 -68t-9.5 -99v-169q0 -44 12 -61t48 -27
l22 -6l-12 -32h-235l-13 34l24 6q26 8 39 17t18.5 26.5t5.5 49.5v232q0 32 -5 48t-18.5 22.5t-39.5 6.5h-99q-27 0 -40.5 -6.5z" />
    <glyph glyph-name="uni0440" unicode="&#x440;" horiz-adv-x="595" 
d="M337 510q62 0 110.5 -31t75.5 -86t27 -125q0 -80 -28.5 -144.5t-78.5 -101t-113 -36.5q-59 0 -100 27q-9 6 -9 18q0 10 3.5 17.5t11.5 7.5q4 0 22.5 -8t48.5 -8q39 0 70.5 27t49 74.5t17.5 106.5q0 57 -17.5 101.5t-49 69.5t-72.5 25q-61 0 -112 -39v-560
q0 -38 8.5 -53.5t33.5 -21.5l21 -5l-11 -31h-174l-12 15l12 16q18 26 25 54t7 75v487q0 16 -4.5 23t-16.5 10l-52 11v33q16 14 61 27t78 13q24 0 24 -46v-5q65 63 144 63z" />
    <glyph glyph-name="uni0441" unicode="&#x441;" horiz-adv-x="509" 
d="M444 106q8 0 16.5 -9t8.5 -19q0 -6 -3 -9q-35 -40 -81.5 -61.5t-98.5 -21.5q-69 0 -124 33.5t-86 93t-31 134.5q0 79 30 138.5t84.5 92t127.5 32.5q77 0 126.5 -37.5t49.5 -96.5q0 -43 -27.5 -70.5t-70.5 -27.5q-19 0 -19 11q0 3 7 14t12 27t5 41q0 40 -25.5 63.5
t-68.5 23.5q-57 0 -92 -56t-35 -147q0 -93 41.5 -147.5t112.5 -54.5q72 0 132 50q3 3 9 3z" />
    <glyph glyph-name="uni0442" unicode="&#x442;" horiz-adv-x="454" 
d="M395.5 409q-10.5 17 -28.5 23.5t-51 6.5h-12q-19 0 -25.5 -13.5t-6.5 -55.5v-248q0 -42 11.5 -58t46.5 -26l23 -7l-12 -31h-200l-12 15l12 16q23 30 32 63.5t9 90.5v185q0 42 -6.5 55.5t-25.5 13.5h-10q-34 0 -52 -6.5t-29 -23.5t-20 -52l-6 -21l-31 10v164l16 13l15 -13
q14 -10 39 -14t67 -4h177q42 0 67 4t38 14l15 13l16 -13v-164l-31 -10l-5 21q-10 35 -20.5 52z" />
    <glyph glyph-name="uni0443" unicode="&#x443;" horiz-adv-x="610" 
d="M197 -257.5q-39 20.5 -58 53t-19 69.5q0 50 34 85.5t93 35.5q10 0 14.5 -3.5t4.5 -7.5t-14 -19t-24.5 -36t-10.5 -53q0 -40 23.5 -66.5t63.5 -26.5q62 0 91 51t29 137v148q-23 -44 -69 -69.5t-101 -25.5q-71 0 -111 43.5t-40 122.5v222q0 12 -4.5 17t-15.5 5h-44l-9 26
q26 26 63.5 43t68.5 17q14 0 23 -9t9 -23v-275q0 -60 24 -91t70 -31q67 0 104.5 50.5t37.5 139.5q0 82 -7 122t-32 73l-12 16l12 15l122 13v-533q0 -123 -59.5 -189.5t-162.5 -66.5q-55 0 -94 20.5z" />
    <glyph glyph-name="uni0444" unicode="&#x444;" horiz-adv-x="777" 
d="M249 444q-61 0 -99.5 -57t-38.5 -161q0 -57 16.5 -99.5t43 -64.5t57.5 -22q35 0 54 8t22 8q12 0 12 -25q0 -5 -2.5 -10.5t-6.5 -7.5q-46 -27 -106 -27q-90 0 -143 69.5t-53 191.5q0 83 27 142t74.5 89.5t108.5 30.5q71 0 129 -58v214q0 16 -4 23t-17 10l-53 10v34
q17 14 62.5 27.5t78.5 13.5q22 0 22 -47v-285q58 58 130 58q61 0 108.5 -30.5t74.5 -89.5t27 -142q0 -121 -53 -191t-143 -70q-62 0 -106 27q-4 2 -7 7.5t-3 10.5q0 25 13 25q3 0 21.5 -8t53.5 -8q30 0 57 22t43.5 64.5t16.5 99.5q0 104 -38.5 161t-98.5 57q-26 0 -49 -8.5
t-47 -26.5v-564q0 -38 8.5 -54t33.5 -22l22 -4l-11 -30h-175l-11 14l11 16q18 26 25.5 54t7.5 75v515q-47 35 -95 35z" />
    <glyph glyph-name="uni0445" unicode="&#x445;" horiz-adv-x="553" 
d="M473 423q-114 -114 -153 -156l111 -190q9 -16 19 -22t23 -6q18 0 38 13l22 -30q-43 -46 -93 -46q-67 0 -107 70l-81 138q-88 -102 -88 -131q0 -16 19 -32l19 -16l-12 -15h-155l-11 21l22 22q136 136 185 188l-109 188q-9 16 -19 22t-23 6q-18 0 -38 -13l-22 30
q43 46 93 46q67 0 107 -70l78 -136q88 100 88 130q0 16 -19 32l-19 16l12 15h155l11 -21z" />
    <glyph glyph-name="uni0446" unicode="&#x446;" horiz-adv-x="656" 
d="M566 53.5q25 -14.5 65 -14.5v-207l-32 -12l-4 22q-21 85 -50.5 121.5t-89.5 36.5h-399l-11 31l20 6q35 7 46.5 24.5t11.5 60.5v253q0 43 -11.5 59t-46.5 26l-20 7l11 30h199l12 -15l-12 -15q-23 -31 -32 -65t-9 -90v-190q0 -43 11.5 -56.5t47.5 -13.5h118q36 0 48 13.5
t12 56.5v253q0 42 -12.5 58.5t-47.5 26.5l-22 7l13 30h200l11 -15l-11 -15q-23 -31 -32 -65t-9 -90v-215q0 -29 25 -43.5z" />
    <glyph glyph-name="uni0447" unicode="&#x447;" horiz-adv-x="567" 
d="M287 0l-10 32l20 6q36 8 47 25t11 61v89q-29 -23 -64 -36t-83 -13q-77 0 -115.5 36.5t-38.5 111.5v25q0 48 -1.5 68.5t-6.5 32t-18 30.5l-13 14l12 16l119 12v-184q0 -50 24.5 -71.5t70.5 -21.5q68 0 114 40v102q0 42 -11 58t-47 27l-20 7l10 30h201l12 -15l-12 -15
q-23 -31 -32 -65t-9 -90v-197q0 -39 11 -54t45 -25l19 -5l-9 -31h-226z" />
    <glyph glyph-name="uni0448" unicode="&#x448;" horiz-adv-x="949" 
d="M45 31l21 7q35 10 46 26t11 58v253q0 42 -11 58.5t-46 26.5l-21 7l10 30h202l11 -14l-11 -16q-23 -31 -33 -65.5t-10 -89.5v-190q0 -42 12 -56t48 -14h95q38 0 51.5 14t13.5 56v253q0 42 -12.5 58.5t-48.5 26.5l-20 7l11 30h197l12 -14l-12 -16q-23 -30 -32.5 -65
t-9.5 -90v-197q0 -28 5 -41t16.5 -17.5t36.5 -4.5h101q37 0 48.5 13.5t11.5 56.5v253q0 42 -12 58.5t-48 26.5l-21 7l11 30h202l12 -14l-12 -16q-23 -30 -32.5 -64.5t-9.5 -90.5v-197q0 -28 5 -42.5t16.5 -22t34.5 -14.5l20 -6l-10 -30h-839z" />
    <glyph glyph-name="uni0449" unicode="&#x449;" horiz-adv-x="945" 
d="M854.5 53q25.5 -14 65.5 -14v-207l-32 -12l-5 22q-21 86 -50 122t-89 36h-688l-11 31l22 6q35 7 46 24.5t11 60.5v253q0 42 -11 58.5t-46 26.5l-22 7l11 30h202l10 -15l-10 -15q-24 -31 -33.5 -65.5t-9.5 -89.5v-190q0 -43 12 -56.5t48 -13.5h95q37 0 50.5 14t13.5 56
v253q0 42 -12.5 58.5t-47.5 26.5l-20 7l10 30h198l12 -15l-12 -15q-23 -31 -32.5 -65t-9.5 -90v-197q0 -28 4.5 -41t16.5 -17.5t37 -4.5h101q25 0 37.5 5.5t17 20t4.5 44.5v253q0 42 -11.5 58.5t-47.5 26.5l-21 7l10 30h203l12 -15l-12 -15q-23 -31 -32.5 -65t-9.5 -90v-216
q0 -29 25.5 -43z" />
    <glyph glyph-name="uni044A" unicode="&#x44a;" horiz-adv-x="626" 
d="M294.5 94q16.5 -30 40 -37.5t55.5 -7.5q51 0 82 28.5t31 73.5q0 41 -34 69.5t-88 28.5q-30 0 -46 -5t-20 -5q-14 0 -14 20q0 18 28.5 26.5t66.5 8.5q68 0 115.5 -19.5t71 -53t23.5 -73.5q0 -69 -55 -108.5t-175 -39.5h-256l-13 31l21 7q36 10 48 26.5t12 57.5v279
q0 20 -7 29t-25 9h-3q-34 0 -52 -6.5t-28.5 -23.5t-19.5 -52l-7 -21l-31 10v164l16 13l15 -13q14 -10 39 -14t67 -4h168l12 -13l-12 -18q-23 -29 -32.5 -63.5t-9.5 -91.5v-121q0 -61 16.5 -91z" />
    <glyph glyph-name="uni044B" unicode="&#x44b;" horiz-adv-x="851" 
d="M231.5 94q17.5 -30 41 -37.5t56.5 -7.5q44 0 72.5 28.5t28.5 73.5q0 41 -32 69.5t-81 28.5q-29 0 -46 -5t-21 -5q-6 0 -9 6t-3 14q0 18 29 26.5t67 8.5q62 0 107 -20t68.5 -53t23.5 -73q0 -69 -53.5 -108.5t-167.5 -39.5h-256l-11 31l21 7q34 10 46 26.5t12 57.5v253
q0 41 -12 58t-46 27l-21 7l11 30h200l12 -14l-12 -16q-23 -31 -32.5 -65.5t-9.5 -89.5v-127q0 -61 17.5 -91zM562 31l21 7q35 10 46.5 26t11.5 58v253q0 42 -11.5 58.5t-46.5 26.5l-21 7l9 30h203l11 -14l-11 -16q-23 -30 -32.5 -64.5t-9.5 -90.5v-197q0 -28 5 -42.5t16 -22
t34 -14.5l19 -6l-9 -30h-226z" />
    <glyph glyph-name="uni044C" unicode="&#x44c;" horiz-adv-x="564" 
d="M231 94q17 -30 41 -37.5t57 -7.5q51 0 81 28.5t30 73.5q0 41 -34.5 69.5t-88.5 28.5q-29 0 -46 -5t-21 -5q-6 0 -9 6t-3 14q0 18 29 26.5t67 8.5q68 0 115.5 -19.5t71 -53t23.5 -73.5q0 -69 -55 -108.5t-176 -39.5h-257l-11 31l21 7q34 10 46 26.5t12 57.5v253
q0 41 -12 58t-46 27l-21 7l11 30h200l12 -14l-12 -16q-23 -31 -32.5 -65.5t-9.5 -89.5v-127q0 -61 17 -91z" />
    <glyph glyph-name="uni044D" unicode="&#x44d;" horiz-adv-x="527" 
d="M167 226q0 44 20 56h191q-8 80 -47 127t-99 47q-100 0 -130 -102l-6 -21l-32 10v164l16 13l16 -13q14 -10 36 -10q12 0 34 5q42 7 67 7q75 0 131.5 -32t87 -91t30.5 -139q0 -74 -31.5 -133.5t-88 -93.5t-126.5 -34q-80 0 -135.5 33t-55.5 92q0 31 21 51.5t53 20.5
q21 0 21 -11q0 -4 -4.5 -19.5t-4.5 -37.5q0 -35 28 -55t70 -20q64 0 103.5 50t45.5 136h-211z" />
    <glyph glyph-name="uni044E" unicode="&#x44e;" horiz-adv-x="851" 
d="M404.5 448q60.5 61 163.5 61q72 0 125.5 -31.5t83 -90.5t29.5 -139q0 -79 -29.5 -138.5t-83.5 -91.5t-125 -32q-104 0 -165 63t-67 172h-122v-106q0 -28 5 -42.5t16.5 -22t34.5 -14.5l20 -6l-10 -30h-224l-11 31l21 7q35 10 46.5 26t11.5 58v253q0 42 -11.5 58.5
t-46.5 26.5l-21 7l11 30h199l12 -14l-12 -16q-23 -30 -32 -64.5t-9 -90.5v-33h122q8 108 68.5 169zM690.5 341.5q-12.5 48.5 -42 82t-77.5 33.5q-63 0 -97.5 -57t-34.5 -153t32.5 -151.5t93.5 -55.5q39 0 70.5 26t49.5 72.5t18 107.5q0 47 -12.5 95.5z" />
    <glyph glyph-name="uni044F" unicode="&#x44f;" horiz-adv-x="608" 
d="M212 219q-61 13 -95 50.5t-34 90.5q0 72 57.5 110.5t179.5 38.5q64 0 133 -12t110 -28l-11 -35h-54q-11 0 -15.5 -4.5t-4.5 -16.5v-289q0 -43 11.5 -59.5t46.5 -26.5l22 -7l-10 -31h-203l-11 14l11 17q23 29 32.5 63.5t9.5 90.5v230q0 42 -75 42q-66 0 -99.5 -27.5
t-33.5 -75.5q0 -46 28 -72t79 -26q20 0 31.5 3.5t14.5 3.5q13 0 13 -17q0 -11 -14 -20t-36 -11q-18 -12 -29 -33l-70 -126q-22 -41 -41 -55.5t-56 -14.5q-47 0 -84 37l15 28q17 -13 37 -13q11 0 18.5 6t16.5 21l56 97q24 41 54 57z" />
    <glyph glyph-name="uni0450" unicode="&#x450;" horiz-adv-x="529" 
d="M385 9q-51 -23 -110 -23q-69 0 -121 32t-80.5 90t-28.5 134q0 80 32 140.5t90.5 94t136.5 33.5q55 0 93.5 -20.5t57.5 -54t19 -72.5q0 -42 -22.5 -81t-65.5 -63.5t-103 -24.5q-32 0 -71 12t-39 35q0 8 4.5 15t10.5 7q3 0 20 -6.5t44 -6.5q60 0 93.5 34t33.5 80
q0 39 -25 67.5t-70 28.5q-64 0 -100 -56.5t-36 -161.5q0 -89 38 -139.5t110 -50.5q88 0 146 57q4 4 9 4q8 0 17 -9.5t9 -19.5q0 -5 -4 -9q-37 -43 -88 -66zM287 569l-113 56q-30 15 -43 32.5t-13 39.5q0 21 11.5 37.5t30.5 25.5l156 -156z" />
    <glyph glyph-name="uni0451" unicode="&#x451;" horiz-adv-x="529" 
d="M385 9q-51 -23 -110 -23q-69 0 -121 32t-80.5 90t-28.5 134q0 80 32 140.5t90.5 94t136.5 33.5q55 0 93.5 -20.5t57.5 -54t19 -72.5q0 -42 -22.5 -81t-65.5 -63.5t-103 -24.5q-32 0 -71 12t-39 35q0 8 4.5 15t10.5 7q3 0 20 -6.5t44 -6.5q60 0 93.5 34t33.5 80
q0 39 -25 67.5t-70 28.5q-64 0 -100 -56.5t-36 -161.5q0 -89 38 -139.5t110 -50.5q88 0 146 57q4 4 9 4q8 0 17 -9.5t9 -19.5q0 -5 -4 -9q-37 -43 -88 -66zM131.5 700.5q21.5 23.5 39.5 23.5q19 0 41 -23t22 -43q0 -19 -22 -42t-41 -23q-17 0 -39 23t-22 42t21.5 42.5z
M320.5 700.5q21.5 23.5 39.5 23.5q19 0 41 -23t22 -43q0 -19 -22 -42t-41 -23q-17 0 -39 23t-22 42t21.5 42.5z" />
    <glyph glyph-name="uni0452" unicode="&#x452;" horiz-adv-x="603" 
d="M431 607q0 -45 -25 -64h-204v-198q26 47 78 76.5t110 29.5q82 0 135 -70t53 -231q0 -98 -25 -179.5t-75 -129.5t-121 -48q-42 0 -65 18t-23 42q0 11 3.5 16t10.5 5q4 0 17 -8t35 -8q38 0 70.5 32t52 97.5t19.5 162.5q0 126 -30 175t-89 49q-40 0 -76 -20t-58 -53.5
t-22 -70.5v-70q0 -47 7 -75.5t26 -53.5l12 -16l-12 -15h-176l-12 31l22 6q26 4 34 19.5t8 54.5v432h-111q0 44 23 64h88v68q0 12 -4 16.5t-15 4.5h-46l-7 26q29 26 66 43.5t64 17.5q15 0 24 -9t9 -24v-143h229z" />
    <glyph glyph-name="uni0453" unicode="&#x453;" horiz-adv-x="462" 
d="M368 496q25 4 39 14l15 13l15 -13v-164l-30 -10l-7 21q-9 35 -19.5 52t-28.5 23.5t-52 6.5h-54q-25 0 -37 -5.5t-17 -20t-5 -43.5v-248q0 -42 11.5 -58t47.5 -26l21 -7l-11 -31h-200l-11 15l11 16q24 32 33 61t9 84v130q0 56 -9.5 90.5t-32.5 63.5l-11 18l11 14h245
q42 0 67 4zM395.5 729.5q11.5 -16.5 11.5 -37.5q0 -22 -13 -39.5t-43 -32.5l-113 -56l-29 35l156 156q19 -9 30.5 -25.5z" />
    <glyph glyph-name="uni0454" unicode="&#x454;" horiz-adv-x="519" 
d="M470.5 97q8.5 -9 8.5 -19q0 -8 -3 -9q-35 -40 -82.5 -61.5t-101.5 -21.5q-70 0 -126.5 34t-88.5 93.5t-32 133.5q0 80 30.5 139t87.5 91t132 32q52 0 92 -16t62.5 -43.5t22.5 -61.5q0 -35 -23 -55t-60 -20q-9 0 -13 2t-4 8q0 3 6 17t6 41q0 33 -28.5 54.5t-73.5 21.5
q-56 0 -92.5 -50t-40.5 -132h201q0 -46 -21 -63h-177q9 -75 50 -117t106 -42q76 0 136 50q2 3 10 3t16.5 -9z" />
    <glyph glyph-name="uni0455" unicode="&#x455;" horiz-adv-x="481" 
d="M308.5 57.5q26.5 22.5 26.5 58.5q0 32 -27.5 52t-81.5 43q-49 20 -81.5 39t-55.5 49.5t-23 75.5q0 60 51.5 97.5t130.5 37.5q71 0 118 -28t47 -75q0 -38 -23.5 -62.5t-60.5 -24.5q-21 0 -21 13q0 4 7.5 20.5t7.5 35.5q0 37 -25 55t-57 18q-41 0 -64.5 -20.5t-23.5 -52.5
q0 -37 29.5 -59.5t87.5 -46.5q48 -20 80 -37.5t54 -44.5t22 -65q0 -68 -54 -109t-144 -41q-76 0 -125 34t-49 91q0 34 23 56t60 22q21 0 21 -12q0 -3 -6 -18.5t-6 -37.5q0 -42 29.5 -64t65.5 -22q41 0 67.5 22.5z" />
    <glyph glyph-name="uni0456" unicode="&#x456;" horiz-adv-x="312" 
d="M113.5 700.5q21.5 23.5 39.5 23.5q19 0 41 -23t22 -43q0 -19 -22 -42t-41 -23q-17 0 -39 23t-22 42t21.5 42.5zM228 54q25 0 50 21l19 -26q-26 -29 -56 -46t-56 -17q-41 0 -59 25t-18 81v310q0 12 -4.5 17t-15.5 5h-44l-9 26q29 26 66 43t66 17q14 0 23 -9t9 -23l-1 -390
q0 -34 30 -34z" />
    <glyph glyph-name="uni0457" unicode="&#x457;" horiz-adv-x="289" 
d="M91 700q23 -23 23 -42t-23 -42t-42 -23q-17 0 -38.5 23t-21.5 42q0 20 21 42.5t39 22.5q19 0 42 -23zM281 700q23 -23 23 -42t-23 -42t-42 -23q-17 0 -39 23t-22 42t21.5 42t39.5 23q19 0 42 -23zM217 54q26 0 51 21l18 -25q-26 -29 -57 -46.5t-55 -17.5q-41 0 -59 24.5
t-18 81.5v309q0 13 -4.5 18.5t-15.5 5.5h-45l-8 25q29 26 66 42.5t65 16.5q14 0 23 -8.5t9 -21.5v-391q0 -34 30 -34z" />
    <glyph glyph-name="uni0458" unicode="&#x458;" horiz-adv-x="291" 
d="M108.5 700.5q21.5 23.5 39.5 23.5q19 0 41 -23t22 -43q0 -19 -22 -42t-41 -23q-17 0 -39 23t-22 42t21.5 42.5zM98.5 419q-4.5 5 -15.5 5h-44l-9 26q29 26 66.5 43t65.5 17q14 0 23 -9t9 -23v-531q0 -104 -45.5 -164.5t-135.5 -60.5q-54 0 -89 27.5t-35 74.5q0 38 28 64
t70 26q19 0 19 -11q0 -3 -8 -13.5t-14 -24t-6 -34.5q0 -31 15.5 -48.5t39.5 -17.5q30 0 50 26.5t20 78.5v532q0 12 -4.5 17z" />
    <glyph glyph-name="uni0459" unicode="&#x459;" horiz-adv-x="859" 
d="M744.5 274.5q47.5 -19.5 71 -53t23.5 -73.5q0 -69 -55 -108.5t-176 -39.5h-257l-11 31l21 7q34 10 47 26.5t13 57.5v252q0 43 -12 56.5t-48 13.5h-17q-29 0 -42.5 -7t-15.5 -29q-16 -247 -65.5 -334.5t-117.5 -87.5q-40 0 -64 25t-24 66q0 29 13 45t35 16q20 0 23 -31
q2 -16 10.5 -27.5t24.5 -11.5q45 0 70.5 87t36.5 229l1 19q0 30 -13.5 41t-52.5 16l-20 7l11 30h398l14 -14l-14 -16q-23 -31 -32 -65t-9 -90v-127q0 -61 16.5 -91t40 -37.5t56.5 -7.5q51 0 81 28.5t30 73.5q0 41 -34 69.5t-88 28.5q-29 0 -46 -5t-21 -5q-5 0 -9 6t-4 14
q0 18 29 26.5t67 8.5q68 0 115.5 -19.5z" />
    <glyph glyph-name="uni045A" unicode="&#x45a;" horiz-adv-x="919" 
d="M561.5 94q16.5 -30 40 -37.5t56.5 -7.5q51 0 81.5 28t30.5 74q0 41 -34 69.5t-88 28.5q-29 0 -46 -5t-21 -5q-7 0 -10.5 6t-3.5 14q0 18 29 26.5t67 8.5q68 0 115.5 -19.5t71.5 -53t24 -73.5q0 -69 -55.5 -108.5t-175.5 -39.5h-257l-12 31l23 7q34 10 46 26.5t12 57.5v99
h-240v-106q0 -28 5 -42.5t16 -22t35 -14.5l19 -6l-10 -30h-224l-11 31l21 7q35 10 46.5 26t11.5 58v253q0 42 -11.5 58.5t-46.5 26.5l-21 7l11 30h199l12 -14l-12 -16q-22 -30 -31 -64t-9 -91v-33h240v96q0 41 -12 58t-46 27l-23 7l12 30h200l13 -14l-13 -16
q-23 -31 -32 -65t-9 -90v-127q0 -61 16.5 -91z" />
    <glyph glyph-name="uni045B" unicode="&#x45b;" horiz-adv-x="592" 
d="M405 607q0 -21 -6.5 -38t-18.5 -26h-205v-241q26 66 79 107.5t110 41.5q73 0 103.5 -43.5t30.5 -139.5v-180q0 -34 29 -34q25 0 49 21l21 -25q-27 -29 -57.5 -46.5t-55.5 -17.5q-41 0 -59 24.5t-18 81.5v176q0 53 -20 79.5t-66 26.5q-40 0 -73.5 -35.5t-53 -86.5
t-19.5 -92q0 -46 7.5 -74.5t26.5 -54.5l12 -16l-12 -15h-176l-12 31l22 6q25 4 33.5 19.5t8.5 54.5v432h-111q0 45 22 64h89v68q0 12 -4.5 16.5t-15.5 4.5h-45l-8 26q29 26 66 43.5t65 17.5q14 0 23 -9t9 -24v-143h230z" />
    <glyph glyph-name="uni045C" unicode="&#x45c;" horiz-adv-x="593" 
d="M45 31l19 7q36 10 47.5 26t11.5 58v253q0 42 -11.5 58.5t-47.5 26.5l-19 7l9 30h200l12 -14l-12 -16q-22 -32 -31.5 -66t-9.5 -89v-197q0 -28 5 -42.5t16 -21.5t35 -15l19 -6l-9 -30h-225zM508 44.5q7 -6.5 17 -6.5q20 0 37 13l16 -28q-37 -37 -85 -37q-41 0 -68 22
t-55 69l-69 115q-8 14 -19.5 21.5t-22.5 12.5t-15 7t-4 12q0 20 17 20h18l90 109q20 25 20 57q0 18 -7 35l-8 16l16 15h163l11 -31l-19 -6q-22 -5 -39.5 -16.5t-34.5 -33.5l-125 -158q51 -25 72 -61l78 -126q9 -14 16 -20.5zM460.5 734.5q11.5 -16.5 11.5 -37.5
q0 -22 -13 -39.5t-43 -32.5l-113 -56l-29 35l156 156q19 -9 30.5 -25.5z" />
    <glyph glyph-name="uni045D" unicode="&#x45d;" horiz-adv-x="672" 
d="M219 96q5 -31 16.5 -42.5t35.5 -17.5l19 -6l-9 -30h-226l-10 31l20 7q35 10 46.5 26t11.5 58v253q0 42 -11.5 58.5t-46.5 26.5l-20 7l10 30h201l12 -14l-12 -16q-23 -32 -32.5 -65.5t-9.5 -89.5v-141l241 228q-5 30 -16.5 42t-36.5 19l-20 7l10 30h201l11 -14l-11 -16
q-23 -32 -32.5 -65.5t-9.5 -89.5v-197q0 -28 5 -42.5t16 -21.5t35 -15l20 -6l-10 -30h-225l-10 31l20 7q36 10 47.5 26t11.5 58v201zM355 569l-113 56q-30 15 -43 32.5t-13 39.5q0 21 11.5 37.5t30.5 25.5l156 -156z" />
    <glyph glyph-name="uni045E" unicode="&#x45e;" horiz-adv-x="610" 
d="M197 -257.5q-39 20.5 -58 53t-19 69.5q0 50 34 85.5t93 35.5q10 0 14.5 -3.5t4.5 -7.5t-14 -19t-24.5 -36t-10.5 -53q0 -40 23.5 -66.5t63.5 -26.5q62 0 91 51t29 137v148q-23 -44 -69 -69.5t-101 -25.5q-71 0 -111 43.5t-40 122.5v222q0 12 -4.5 17t-15.5 5h-44l-9 26
q26 26 63.5 43t68.5 17q14 0 23 -9t9 -23v-275q0 -60 24 -91t70 -31q67 0 104.5 50.5t37.5 139.5q0 82 -7 122t-32 73l-12 16l12 15l122 13v-533q0 -123 -59.5 -189.5t-162.5 -66.5q-55 0 -94 20.5zM144 714.5q21 19.5 51 19.5q8 0 13 -4t5 -10q0 -3 -7.5 -16.5t-7.5 -36.5
q0 -25 17.5 -40t62.5 -15q42 0 62 14.5t20 38.5t-7 38t-7 17q0 14 19 14q28 0 48.5 -19.5t20.5 -51.5q0 -44 -42 -68.5t-114 -24.5t-113.5 24.5t-41.5 68.5q0 32 21 51.5z" />
    <glyph glyph-name="uni045F" unicode="&#x45f;" horiz-adv-x="661" 
d="M45 31l20 6q36 11 47.5 27t11.5 58v254q0 42 -11.5 58t-47.5 27l-20 7l11 30h199l12 -14l-12 -16q-23 -31 -32 -65.5t-9 -89.5v-191q0 -43 11.5 -56.5t48.5 -13.5h118q25 0 37.5 5.5t17 20t4.5 44.5v254q0 42 -12 58t-47 27l-21 7l13 30h199l12 -14l-12 -16
q-23 -31 -32 -65t-9 -90v-198q0 -28 5 -42.5t16 -22t35 -14.5l18 -6l-10 -30h-224v-151l-32 -11l-5 21q-17 64 -36.5 93t-53 38.5t-99.5 9.5h-100z" />
    <glyph glyph-name="uni0462" unicode="&#x462;" horiz-adv-x="682" 
d="M551.5 352.5q50.5 -22.5 79.5 -65.5t29 -102q0 -83 -60.5 -134t-178.5 -51h-270l-11 34l23 6q38 10 51 28.5t13 64.5v398q0 14 -6.5 18.5t-28.5 4.5h-23q-55 0 -77 -13.5t-32 -54.5l-6 -24l-34 12v157l17 13l17 -13q16 -11 43 -16t71 -5h59v25q0 45 -13.5 65t-50.5 28
l-23 5l11 35h220l13 -17l-13 -18q-20 -28 -30 -56.5t-13 -66.5h80q86 0 113 21l17 13l18 -13v-157l-35 -12l-5 24q-12 41 -34 54.5t-75 13.5h-46q-21 0 -28 -4.5t-7 -18.5v-348q0 -75 25.5 -105.5t75.5 -30.5q67 0 102.5 34.5t35.5 99.5q0 70 -40 109.5t-106 39.5
q-25 0 -41 -4.5t-20 -4.5q-6 0 -9.5 6.5t-3.5 15.5q0 16 26.5 24t65.5 8q64 0 114.5 -22.5z" />
    <glyph glyph-name="uni0463" unicode="&#x463;" horiz-adv-x="601" 
d="M485.5 285q47.5 -20 71.5 -53.5t24 -73.5q0 -76 -55 -117t-177 -41h-257l-11 31l21 7q34 10 46 26.5t12 57.5v291q0 16 -6 21t-25 5h-11q-34 0 -50 -12t-29 -49l-6 -20l-31 10v142l16 13l15 -13q24 -18 84 -18h43v183q0 12 -4 16.5t-15 4.5h-43l-10 26q29 26 66.5 43.5
t66.5 17.5q14 0 23 -9t9 -24l-1 -258h44q42 0 66.5 4t38.5 14l15 13l16 -13v-142l-31 -10l-6 20q-10 38 -29.5 49.5t-69.5 11.5h-13q-19 0 -25 -5t-6 -21l-1 -242q0 -68 29 -95t85 -27q51 0 81 28.5t30 73.5q0 109 -123 109q-29 0 -46 -5t-21 -5q-5 0 -8.5 6t-3.5 14
q0 17 26.5 26t69.5 9q68 0 115.5 -20z" />
    <glyph glyph-name="uni046A" unicode="&#x46a;" horiz-adv-x="1016" 
d="M565.5 65.5q7.5 -16.5 31.5 -27.5l21 -6l-11 -32h-202l-11 34l21 6q19 8 28 17t12.5 26t3.5 50v204l-158 239q-12 17 -18 28q-28 41 -44.5 61.5t-42.5 36.5l13 16h593l12 -16l-14 -18q-23 -20 -40.5 -41t-46.5 -65l-155 -233v-219q0 -44 7.5 -60.5zM523 379l159 243
q9 15 9 25q0 15 -21 15h-289q-11 0 -17.5 -4.5t-6.5 -12.5q0 -7 8 -20zM409 346q-27 -11 -45 -29t-34 -51l-90 -182q-25 -49 -56.5 -73.5t-77.5 -24.5q-57 0 -96 40l16 29q18 -14 39 -14q13 0 22 7.5t17 22.5l95 186q28 62 66.5 93t94.5 31h33q20 0 20 -24q0 -10 -4 -11z
M1006 26q-39 -40 -96 -40q-46 0 -77.5 24t-56.5 74l-90 182q-18 35 -34.5 52t-41.5 27q-7 3 -7 12q0 24 20 24h33q56 0 94.5 -31t66.5 -93l95 -186q8 -15 17 -22.5t22 -7.5q21 0 39 14z" />
    <glyph glyph-name="uni046B" unicode="&#x46b;" horiz-adv-x="807" 
d="M454.5 57.5q6.5 -14.5 27.5 -21.5l18 -6l-11 -30h-178l-12 31l21 7q22 10 30 26t8 58v112l-149 187q-23 30 -34.5 41t-37.5 25l9 10h506l8 -10l-10 -13q-17 -12 -33 -29t-39 -45l-130 -161v-124q0 -43 6.5 -57.5zM411 263l120 150q8 11 8 17q0 11 -16 11h-219
q-8 0 -12.5 -3.5t-4.5 -9.5q0 -7 5 -13zM315 236.5q-4 -4.5 -14 -11.5q-13 -8 -23 -18t-18 -28l-38 -74q-32 -68 -57 -93.5t-66 -25.5q-44 0 -84 37l15 28q17 -13 36 -13q11 0 18.5 6.5t16.5 20.5l67 126q23 43 49.5 58.5t78.5 15.5h5q18 0 18 -16q0 -8 -4 -12.5zM792 23
q-37 -37 -85 -37q-29 0 -48 11.5t-35.5 36t-39.5 71.5l-38 74q-8 18 -17.5 27.5t-23.5 18.5q-10 7 -14.5 11.5t-4.5 12.5q0 16 18 16h6q47 0 76 -16t52 -58l67 -126q10 -15 17 -21t18 -6q19 0 36 13z" />
    <glyph glyph-name="uni0472" unicode="&#x472;" horiz-adv-x="733" 
d="M72 548.5q37 84.5 111.5 134t182.5 49.5t182.5 -49.5t112 -134t37.5 -190.5t-37.5 -190t-112 -133t-182.5 -49t-182.5 49t-111.5 133t-37 190t37 190.5zM568.5 500.5q-20.5 73.5 -69.5 124t-128 50.5q-71 0 -122.5 -43.5t-78.5 -117.5t-27 -164q0 -87 25 -156t74.5 -109
t119.5 -40t121.5 41t78.5 111.5t27 157.5q0 72 -20.5 145.5zM536 391q0 -6 -4 -10q-28 -28 -58 -45t-53 -17q-19 0 -32.5 5t-29.5 14q-15 8 -26 12t-25 4q-21 0 -39.5 -5.5t-42.5 -17.5q-6 -3 -11 -3q-15 0 -18 14q-1 3 -1 10q0 10 8 18q25 25 55 39.5t56 14.5q17 0 31 -5
t32 -15q12 -6 24 -11t23 -5q34 0 83 24q3 2 8 2q9 0 16 -11q4 -5 4 -12z" />
    <glyph glyph-name="uni0473" unicode="&#x473;" horiz-adv-x="578" 
d="M418 478q55 -32 85 -91t30 -139q0 -79 -30 -138.5t-85 -91.5t-129 -32t-129.5 32t-85 91.5t-29.5 138.5q0 80 29.5 139t85 91t129.5 32t129 -32zM192 404q-39 -54 -43 -142q28 17 47.5 25.5t37.5 8.5t31.5 -4.5t32.5 -14.5q2 -1 17 -7.5t29 -6.5q15 0 32.5 5t49.5 17
q-8 71 -40.5 122t-93.5 51t-100 -54zM358 64.5q32 24.5 50.5 69.5t19.5 104q-52 -40 -88 -40q-19 0 -32 4.5t-30 13.5q-15 8 -25.5 11.5t-24.5 3.5q-34 0 -77 -20q7 -79 42.5 -125t92.5 -46q40 0 72 24.5z" />
    <glyph glyph-name="uni0474" unicode="&#x474;" horiz-adv-x="752" 
d="M725 700q27 -22 27 -65q0 -24 -17 -43.5t-44 -19.5q-12 0 -17.5 8t-7.5 28q-4 23 -10.5 32.5t-27.5 9.5q-25 0 -43.5 -29t-38.5 -102l-142 -519h-114l-195 580q-15 46 -34 70t-56 52l13 16h226l11 -34l-22 -6q-24 -4 -35 -15t-11 -29q0 -13 12 -49l159 -493l122 450
q27 100 68.5 140t99.5 40q50 0 77 -22z" />
    <glyph glyph-name="uni0475" unicode="&#x475;" horiz-adv-x="551" 
d="M546 485.5q25 -22.5 25 -59.5q0 -23 -13 -38t-33 -15q-13 0 -18 6t-7 20q-3 39 -34 39q-25 0 -41.5 -23t-28.5 -73l-88 -342h-89q-25 101 -55 181t-70 174l-20 46q-7 15 -10.5 19.5t-11.5 4.5h-43l-9 25q26 25 62 42t64 17q12 0 18.5 -7t13.5 -23q81 -189 128 -384
l57 264q32 149 138 149q40 0 65 -22.5z" />
    <glyph glyph-name="uni0490" unicode="&#x490;" horiz-adv-x="523" 
d="M394.5 734.5q27.5 16.5 44 49.5t31.5 89l6 23l34 -12v-244l-16 -13l-18 13q-31 22 -113 22h-102q-26 0 -39.5 -6.5t-18.5 -22.5t-5 -48v-452q0 -46 13 -64.5t50 -28.5l24 -6l-12 -34h-220l-13 16l13 18q26 34 36.5 70t10.5 97v316q0 59 -10.5 96t-36.5 71l-13 18l13 16
h269q45 0 72.5 16.5z" />
    <glyph glyph-name="uni0491" unicode="&#x491;" horiz-adv-x="410" 
d="M273.5 508q26.5 16 42.5 47t30 85l7 23l32 -13v-231l-15 -11l-17 11q-28 20 -79 20h-37q-25 0 -37 -5.5t-17 -20t-5 -43.5v-248q0 -42 11.5 -58t47.5 -26l21 -7l-11 -31h-201l-11 15l11 16q24 32 33 61t9 84v130q0 56 -9.5 90.5t-32.5 63.5l-11 18l11 14h158
q43 0 69.5 16z" />
    <glyph glyph-name="uni0492" unicode="&#x492;" horiz-adv-x="509" 
d="M496 738v-177l-35 -12l-5 23q-8 37 -20 56t-32 26.5t-57 7.5h-86q-27 0 -40.5 -6.5t-18.5 -22.5t-5 -48v-198h124q0 -40 -20 -56h-104v-198q0 -32 5.5 -49.5t18.5 -26.5t40 -17l24 -6l-12 -34h-220l-13 16l13 18q25 34 35.5 70.5t10.5 96.5v130h-82q0 41 20 56h62v130
q0 59 -10.5 96.5t-35.5 70.5l-13 18l13 16h295q84 0 113 20l19 13z" />
    <glyph glyph-name="uni0493" unicode="&#x493;" horiz-adv-x="462" 
d="M437 510v-164l-30 -10l-7 21q-9 35 -19.5 52t-28.5 23.5t-52 6.5h-54q-25 0 -37 -5.5t-17 -20t-5 -43.5v-93h136q0 -40 -20 -56h-116v-99q0 -42 11.5 -58t47.5 -26l21 -7l-11 -31h-200l-11 15l11 16q24 32 33 61t9 84v45h-79q0 41 20 56h59v29q0 56 -9.5 90.5t-32.5 63.5
l-11 18l11 14h245q42 0 67 4t39 14l15 13z" />
    <glyph glyph-name="uni0494" unicode="&#x494;" horiz-adv-x="602" 
d="M470.5 392.5q52.5 -33.5 79 -89t26.5 -122.5q0 -63 -23 -122t-68 -97t-108 -38q-38 0 -58 15.5t-20 38.5q0 22 12 22q4 0 18 -7.5t36 -7.5q34 0 58.5 27.5t37 70t12.5 87.5q0 83 -41.5 140t-118.5 57q-67 0 -116 -29v-205q0 -47 6.5 -64t27.5 -29l24 -6l-12 -34h-190
l-13 16l13 18q25 34 35.5 70.5t10.5 96.5v316q0 59 -10.5 96.5t-35.5 70.5l-13 18l13 16h295q84 0 113 20l19 13l16 -13v-177l-35 -12l-5 23q-8 37 -20 56t-32 26.5t-57 7.5h-86q-27 0 -40.5 -6.5t-18.5 -22.5t-5 -48v-181q68 22 146 22q75 0 127.5 -33.5z" />
    <glyph glyph-name="uni0495" unicode="&#x495;" horiz-adv-x="506" 
d="M432.5 231.5q48.5 -56.5 48.5 -167.5q0 -65 -20 -127.5t-63 -103t-109 -40.5q-40 0 -62 14.5t-22 38.5q0 11 3 15.5t11 4.5q4 0 17.5 -8t35.5 -8q69 0 92 55t23 159q0 89 -27 130.5t-90 41.5q-34 0 -82 -15v-99q0 -44 5 -62.5t16 -21.5l21 -7l-11 -31h-163l-11 15l11 16
q22 32 32 63.5t10 81.5v130q0 56 -9.5 90.5t-32.5 63.5l-11 18l11 14h243q42 0 66.5 4t38.5 14l16 13l15 -13v-142l-31 -10l-7 20q-8 26 -18.5 38.5t-28.5 17.5t-52 5h-51q-25 0 -37.5 -5.5t-17 -19.5t-4.5 -44v-101q63 19 110 19q86 0 134.5 -56.5z" />
    <glyph glyph-name="uni0496" unicode="&#x496;" horiz-adv-x="1016" 
d="M430 346q-36 -12 -60 -30.5t-40 -49.5l-90 -182q-25 -50 -56.5 -74t-77.5 -24q-57 0 -96 40l16 29q18 -14 39 -14q13 0 22 7.5t17 22.5l95 186q24 48 56.5 74t80.5 35l-202 258q-19 24 -37.5 36.5t-40.5 17.5l-23 6l11 34h172l18 -16l-11 -16q-14 -19 -14 -44
q0 -28 19 -53l164 -208h22q21 0 21 -24q0 -10 -5 -11zM565.5 65.5q7.5 -16.5 31.5 -27.5l21 -6l-11 -32h-202l-11 34l21 6q26 12 35 29t9 64v452q0 46 -6.5 64t-26.5 29l-21 6l10 34h178l12 -16l-12 -18q-19 -33 -27 -70t-8 -97v-391q0 -44 7.5 -60.5zM986 9v-190l-35 -12
l-6 24q-20 65 -36 99t-42 52t-70 18h-19v80l-2 4l-90 182q-16 31 -40 49.5t-60 30.5q-5 1 -5 11q0 24 21 24h22l164 208q19 25 19 53q0 25 -14 44l-11 16l18 16h172l11 -34l-23 -6q-22 -5 -40.5 -17.5t-37.5 -36.5l-202 -258q48 -9 80.5 -35t56.5 -74l95 -186q6 -12 14 -20
q20 -7 41 -8q14 4 23 12l16 -29q-6 -7 -20 -17z" />
    <glyph glyph-name="uni0497" unicode="&#x497;" horiz-adv-x="807" 
d="M328 236.5q-5 -4.5 -18 -11.5q-16 -8 -28.5 -18t-21.5 -28l-38 -74q-32 -68 -57 -93.5t-66 -25.5q-44 0 -84 37l15 28q17 -13 36 -13q11 0 18.5 6.5t16.5 20.5l67 126q21 39 64 60l-107 159q-15 23 -32 34t-39 16l-21 6l10 31h162l17 -15l-8 -16q-1 -4 -6 -17t-5 -24
q0 -14 3 -24.5t15 -26.5l75 -109h19q18 0 18 -16q0 -8 -5 -12.5zM455 58q7 -15 31 -22l18 -6l-10 -30h-204l-12 31l20 7q36 10 48 26t12 58v253q0 42 -12 58.5t-48 26.5l-20 7l12 30h199l12 -14l-12 -16q-23 -31 -32 -65t-9 -90v-197q0 -42 7 -57zM798 39v-207l-33 -12
l-4 22q-12 62 -31.5 97.5t-51.5 50.5q-8 2 -13 4q-18 6 -43 6h-4v42q-9 13 -34 63l-38 74q-9 18 -21.5 28t-28.5 18q-13 7 -18 11.5t-5 12.5q0 16 18 16h19l75 109q11 16 15 27t4 24q0 11 -5 24t-6 17l-9 16l16 15h163l12 -31l-22 -6q-47 -11 -72 -50l-105 -159
q41 -21 62 -60l50 -94h19q0 -43 55 -55q7 4 14 9l7 -11q5 -1 15 -1z" />
    <glyph glyph-name="uni0498" unicode="&#x498;" horiz-adv-x="541" 
d="M464 57q-53 -52 -143 -66v-155l-34 -13l-6 25q-15 69 -30.5 99.5t-36.5 40.5q-82 9 -136.5 50.5t-54.5 109.5q0 47 29 76t72 29q12 0 16.5 -2t4.5 -10q0 -3 -11.5 -25t-11.5 -60q0 -55 32.5 -84t98.5 -29q73 0 114 39t41 109q0 71 -39 118t-118 47q-21 0 -37 -3t-23 -3
q-5 0 -8.5 5.5t-3.5 14.5q0 14 13 20.5t46 13.5q79 15 107 50.5t28 96.5q0 59 -31.5 92t-85.5 33q-68 0 -105 -28t-56 -106l-5 -22l-33 11v199l16 12l17 -12q14 -12 38 -12q16 0 44 5q56 9 97 9q58 0 106.5 -19.5t77.5 -59.5t29 -97q0 -119 -143 -169q96 -20 137 -70
t41 -133q0 -75 -53 -127z" />
    <glyph glyph-name="uni0499" unicode="&#x499;" horiz-adv-x="464" 
d="M382.5 41.5q-42.5 -41.5 -121.5 -52.5v-140l-32 -11l-6 21q-16 63 -31.5 91.5t-36.5 40.5q-60 10 -98 41.5t-38 78.5q0 31 21 51.5t53 20.5q22 0 22 -11q0 -4 -5 -19.5t-5 -37.5q0 -36 28.5 -55.5t77.5 -19.5q58 0 87.5 25t29.5 79q0 45 -35.5 70t-96.5 27h-10
q-22 0 -22 18q0 11 12 16.5t41 11.5q57 9 79.5 31.5t22.5 62.5q0 32 -27 53.5t-77 21.5q-100 0 -130 -102l-7 -21l-29 10v164l13 13l16 -13q15 -10 36 -10q13 0 35 5q42 7 67 7q96 0 143 -32t47 -89q0 -44 -25.5 -74.5t-75.5 -45.5q62 -18 91 -53.5t29 -78.5
q0 -53 -42.5 -94.5z" />
    <glyph glyph-name="uni049A" unicode="&#x49a;" horiz-adv-x="660" 
d="M214 66q12 -17 48 -28l21 -6l-10 -32h-246l-12 34l24 6q27 8 40 17t18.5 26.5t5.5 49.5v452q0 46 -13 64t-51 29l-24 6l12 34h220l13 -16l-13 -18q-25 -33 -35 -70t-10 -97v-391q0 -43 12 -60zM667.5 58q31.5 -16 76.5 -16v-223l-35 -12l-6 24q-24 79 -44.5 115t-57.5 48
q-20 -8 -47 -8q-46 0 -77.5 24.5t-55.5 73.5l-91 182q-16 31 -40 49.5t-60 30.5q-2 1 -3.5 4.5t-1.5 6.5q0 24 21 24h23l163 208q19 24 19 53q0 25 -14 44l-11 16l18 16h172l12 -34l-24 -6q-22 -5 -40.5 -17.5t-37.5 -36.5l-202 -258q48 -8 80.5 -34t57.5 -75l77 -152h97
q0 -31 31.5 -47z" />
    <glyph glyph-name="uni049B" unicode="&#x49b;" horiz-adv-x="593" 
d="M218 72.5q5 -14.5 16 -21.5t35 -15l19 -6l-9 -30h-225l-9 31l19 7q36 10 47.5 26t11.5 58v253q0 42 -11.5 58.5t-47.5 26.5l-19 7l9 30h200l12 -14l-12 -16q-22 -32 -31.5 -66t-9.5 -89v-197q0 -28 5 -42.5zM563 10v-178l-33 -12l-4 22q-17 84 -48 121t-91 37h-4v57
l-13 20l-69 115q-8 14 -19.5 21.5t-22.5 12.5t-15 7t-4 12q0 20 17 20h18l90 109q20 25 20 57q0 18 -7 35l-8 16l16 15h163l11 -31l-19 -6q-22 -5 -39.5 -16.5t-34.5 -33.5l-125 -158q51 -25 72 -61l78 -126l9 -14q15 -8 41 -11q12 4 20 11l16 -28q-5 -5 -15 -13z" />
    <glyph glyph-name="uni049C" unicode="&#x49c;" horiz-adv-x="701" 
d="M238 65q12 -17 49 -27l20 -6l-10 -32h-245l-12 34l23 6q27 8 40 17t18.5 26.5t5.5 49.5v452q0 46 -13 64t-51 29l-23 6l12 34h219l13 -16l-13 -18q-24 -35 -34.5 -72t-10.5 -95v-391q0 -44 12 -61zM691 26q-39 -40 -92 -40q-45 0 -75 24.5t-57 73.5l-120 217
q-8 15 -16.5 23.5t-22.5 15.5v-98q-7 -11 -20 -15.5t-26 -4.5v240q7 11 20 16t26 5v-102h3h23l137 201q12 19 16 31t4 26q0 16 -13 45l-8 18l18 16h182l12 -34l-24 -6q-23 -5 -41.5 -17t-35.5 -37l-180 -261q45 -21 69 -63l127 -229q11 -16 19 -23t20 -7q21 0 39 14z" />
    <glyph glyph-name="uni049D" unicode="&#x49d;" horiz-adv-x="624" 
d="M218 72.5q5 -14.5 16.5 -22t34.5 -14.5l20 -6l-10 -30h-224l-10 31l20 7q36 10 47.5 26t11.5 58v253q0 42 -11.5 58.5t-47.5 26.5l-20 7l10 30h199l12 -14l-12 -16q-23 -31 -32 -65t-9 -90v-197q0 -28 5 -42.5zM609 23q-37 -37 -85 -37q-42 0 -69 22t-54 69l-69 115
q-10 16 -18.5 24t-22.5 14v-84q-5 -11 -18 -16t-24 -5v219q5 11 17.5 16t24.5 5v-101q2 1 7 1h19l78 109q21 31 21 57q0 19 -8 35l-7 16l16 15h163l10 -31l-19 -6q-22 -5 -39.5 -16.5t-33.5 -33.5l-115 -158q44 -22 62 -61l77 -126q9 -14 16.5 -20.5t17.5 -6.5q20 0 37 13z
" />
    <glyph glyph-name="uni04A0" unicode="&#x4a0;" horiz-adv-x="782" 
d="M360 66q12 -17 48 -28l21 -6l-10 -32h-246l-11 34l23 6q27 8 40 17t18.5 26.5t5.5 49.5v452q0 47 -6.5 62t-28.5 15h-45q-37 0 -57 -7.5t-32 -26.5t-20 -56l-5 -23l-35 12v177l18 13l17 -13q15 -11 42 -15.5t71 -4.5h225l13 -16l-13 -18q-23 -30 -33.5 -62.5t-11.5 -81.5
v-414q0 -43 12 -60zM772 26q-39 -40 -92 -40q-45 0 -75 24t-58 74l-119 217q-11 18 -21 26.5t-31 18.5q-4 1 -4 11q0 24 20 24h23l137 201q12 20 16 32t4 25q0 16 -13 45l-8 18l18 16h182l12 -34l-24 -6q-24 -5 -42.5 -17t-34.5 -37l-180 -261q43 -20 69 -63l127 -229
q12 -17 19 -23.5t20 -6.5q21 0 39 14z" />
    <glyph glyph-name="uni04A1" unicode="&#x4a1;" horiz-adv-x="641" 
d="M276 72.5q5 -14.5 16 -21.5t35 -15l20 -6l-10 -30h-224l-10 31l20 7q36 10 47.5 26t11.5 58v253q0 42 -6.5 55.5t-24.5 13.5h-11q-34 0 -52 -6.5t-28.5 -23.5t-19.5 -52l-7 -20l-31 9v164l16 13l15 -13q14 -10 39 -14t67 -4h173l12 -14l-12 -16q-20 -29 -29.5 -55.5
t-9.5 -61.5l-2 -235q0 -28 5 -42.5zM626 23q-37 -37 -85 -37q-41 0 -68.5 22t-54.5 69l-69 115q-11 17 -20 25t-26 16q-5 2 -5 12q0 7 4 13.5t14 6.5h18l79 109q20 29 20 57q0 18 -7 35l-8 16l16 15h163l11 -31l-20 -6q-22 -5 -39 -16.5t-34 -33.5l-114 -158q42 -21 61 -61
l78 -126q10 -14 16.5 -20.5t16.5 -6.5q20 0 37 13z" />
    <glyph glyph-name="uni04A2" unicode="&#x4a2;" horiz-adv-x="779" 
d="M684.5 58q31.5 -16 76.5 -16v-223l-35 -12l-6 24q-20 65 -36 99t-42 52t-70 18h-94l-12 34l23 6q38 11 51 29t13 64v201h-327v-208q0 -43 12 -60t49 -28l21 -6l-11 -32h-245l-12 34l23 6q38 11 51 29t13 64v452q0 46 -13 64t-51 29l-23 6l12 34h219l13 -16l-13 -18
q-25 -33 -35 -70t-10 -97v-122h327v190q0 46 -13 64t-51 29l-23 6l12 34h219l13 -16l-13 -18q-25 -33 -35 -70t-10 -97v-391q0 -15 1 -21q0 -31 31.5 -47z" />
    <glyph glyph-name="uni04A3" unicode="&#x4a3;" horiz-adv-x="663" 
d="M581.5 47.5q22.5 -8.5 53.5 -8.5v-207l-33 -12l-4 22q-17 84 -48 121t-91 37h-73l-12 31l22 7q36 10 47.5 26t11.5 58v99h-241v-106q0 -28 5 -42.5t16.5 -22t34.5 -14.5l20 -6l-10 -30h-224l-11 31l20 7q36 10 47.5 26t11.5 58v253q0 42 -11.5 58.5t-47.5 26.5l-20 7
l11 30h199l12 -14l-12 -16q-23 -30 -32 -64.5t-9 -90.5v-33h241v96q0 42 -11.5 58.5t-47.5 26.5l-22 7l12 30h199l13 -14l-13 -16q-22 -30 -31 -64t-9 -91v-197q0 -28 5 -41q9 -18 31.5 -26.5z" />
    <glyph glyph-name="uni04A4" unicode="&#x4a4;" horiz-adv-x="933" 
d="M920 738v-177l-34 -12l-6 23q-10 38 -21.5 56.5t-31 26t-56.5 7.5h-56q-26 0 -39.5 -6.5t-18.5 -22.5t-5 -48v-459q0 -43 12.5 -60t49.5 -28l21 -6l-11 -32h-245l-12 34l22 6q27 8 40.5 17t19 26.5t5.5 49.5v201h-327v-208q0 -43 12 -60t48 -28l21 -6l-10 -32h-246
l-12 34l24 6q27 8 40 17t18.5 26.5t5.5 49.5v452q0 46 -13 64t-51 29l-24 6l12 34h220l13 -16l-13 -18q-25 -33 -35 -70t-10 -97v-122h327v122q0 59 -10.5 96.5t-36.5 70.5l-13 18l13 16h265q45 0 72 4.5t42 15.5l18 13z" />
    <glyph glyph-name="uni04A5" unicode="&#x4a5;" horiz-adv-x="777" 
d="M752 515v-164l-30 -9l-8 20q-8 35 -18.5 52t-28.5 23.5t-52 6.5h-11q-25 0 -37 -5.5t-17 -20t-5 -43.5v-260q0 -28 5 -42.5t16 -22t34 -14.5l18 -6l-9 -30h-223l-12 31l22 7q36 10 47.5 26t11.5 58v99h-241v-106q0 -28 5 -42.5t16.5 -22t34.5 -14.5l20 -6l-10 -30h-224
l-11 31l20 7q36 10 47.5 26t11.5 58v253q0 42 -11.5 58.5t-47.5 26.5l-20 7l11 30h199l12 -14l-12 -16q-23 -30 -32 -64.5t-9 -90.5v-33h241v33q0 55 -9 90t-32 64l-11 17l11 14h202q42 0 67 4t39 14l15 13z" />
    <glyph glyph-name="uni04AA" unicode="&#x4aa;" horiz-adv-x="617" 
d="M579.5 139.5q11.5 -9.5 11.5 -18.5q0 -3 -3 -8q-74 -110 -194 -125v-152l-34 -13l-5 25q-13 64 -27.5 94.5t-28 39t-39.5 16.5h1q-110 30 -168 127.5t-58 232.5q0 106 36 190.5t108.5 134t178.5 49.5q65 0 116.5 -18.5t80 -52t28.5 -76.5q0 -51 -30.5 -84t-76.5 -33
q-21 0 -21 12q0 3 8.5 17t15 31.5t6.5 42.5q0 47 -35 76t-92 29q-74 0 -121 -46t-68 -118t-21 -154q0 -84 26.5 -153t75.5 -109.5t114 -40.5q64 0 111 23.5t77 66.5q3 4 7 4q9 0 20.5 -9.5z" />
    <glyph glyph-name="uni04AB" unicode="&#x4ab;" horiz-adv-x="509" 
d="M460.5 97q8.5 -9 8.5 -19q0 -6 -3 -9q-54 -63 -134 -79v-141l-33 -11l-5 21q-17 70 -34.5 97.5t-44.5 39.5q-77 23 -123.5 91t-46.5 160q0 79 30 138.5t84.5 92t127.5 32.5q77 0 126.5 -37.5t49.5 -96.5q0 -43 -27.5 -70.5t-70.5 -27.5q-19 0 -19 11q0 3 7 14t12 27t5 41
q0 40 -25.5 63.5t-68.5 23.5q-57 0 -92 -56t-35 -147q0 -93 41.5 -147.5t112.5 -54.5q72 0 132 50q3 3 9 3q8 0 16.5 -9z" />
    <glyph glyph-name="uni04AE" unicode="&#x4ae;" horiz-adv-x="626" 
d="M439 584q12 23 12 41q0 20 -12.5 34t-29.5 19l-23 6l12 34h190l13 -16l-15 -18q-35 -42 -71 -106l-155 -275v-170q0 -45 14 -64t52 -29l23 -6l-12 -34h-219l-13 16l13 18q25 35 36 71.5t11 95.5v94l-160 281q-27 48 -48 75t-52 51l13 16h225l12 -34l-23 -6
q-24 -6 -34.5 -16t-10.5 -28q0 -11 14 -34.5t17 -28.5l108 -189z" />
    <glyph glyph-name="uni04AF" unicode="&#x4af;" horiz-adv-x="533" 
d="M298.5 -209.5q8.5 -15.5 34.5 -21.5l20 -4l-10 -30h-175l-12 14l12 16q18 26 25.5 54t7.5 75v61q0 64 -44 207.5t-83 238.5q-7 15 -10.5 19.5t-9.5 4.5h-43l-9 25q26 25 62 42t64 17q24 0 32 -30l114 -417q42 41 75.5 109t33.5 122q0 109 -42 175l-8 15l10 13l120 13
q5 -60 5 -106q0 -67 -23 -145t-64 -149t-91 -117v-147q0 -39 8.5 -54.5z" />
    <glyph glyph-name="uni04B0" unicode="&#x4b0;" horiz-adv-x="626" 
d="M601 702l-15 -18q-35 -42 -71 -106l-150 -266h97q0 -40 -20 -56h-82v-123q0 -45 14 -64t52 -29l23 -6l-12 -34h-219l-13 16l13 18q25 35 36 71.5t11 95.5v55h-107q0 41 20 56h77l-150 264q-27 48 -48 75t-52 51l13 16h225l12 -34l-23 -6q-24 -6 -34.5 -16t-10.5 -28
q0 -11 14 -34.5t17 -28.5l108 -189l113 202q12 23 12 41q0 20 -12.5 34t-29.5 19l-23 6l12 34h190z" />
    <glyph glyph-name="uni04B1" unicode="&#x4b1;" horiz-adv-x="533" 
d="M428 208.5q-40 -105.5 -103 -180.5h80q0 -40 -20 -56h-95v-127q0 -39 8.5 -54.5t34.5 -21.5l20 -4l-10 -30h-175l-12 14l12 16q18 26 25.5 54t7.5 75v61q0 11 -1 17h-99q0 41 20 56h71q-16 80 -53 192.5t-65 180.5q-7 15 -10.5 19.5t-9.5 4.5h-43l-9 25q26 25 62 42
t64 17q24 0 32 -30l114 -417q42 41 75.5 109t33.5 122q0 109 -42 175l-8 15l10 13l120 13q5 -60 5 -106q0 -89 -40 -194.5z" />
    <glyph glyph-name="uni04B6" unicode="&#x4b6;" horiz-adv-x="628" 
d="M566.5 54q29.5 -12 67.5 -12v-223l-35 -12l-6 24q-20 65 -36 99t-42 52t-70 18h-94l-13 34l25 6q27 8 39.5 17t18 26.5t5.5 49.5v200q-48 -36 -91.5 -54t-104.5 -18q-84 0 -129.5 40t-45.5 118v124q0 61 -6.5 89.5t-24.5 52.5l-14 17l14 17l130 14v-288q0 -58 29 -84.5
t88 -26.5q53 0 86.5 17.5t68.5 50.5v183q0 46 -12.5 64t-50.5 29l-25 6l13 34h219l13 -16l-13 -18q-25 -33 -34.5 -70t-9.5 -97v-391q0 -22 3 -37q8 -23 37.5 -35z" />
    <glyph glyph-name="uni04B7" unicode="&#x4b7;" horiz-adv-x="567" 
d="M534 39v-207l-33 -12l-4 22q-17 84 -48 121t-91 37h-71l-10 32l20 6q36 8 47 25t11 61v89q-29 -23 -64 -36t-83 -13q-77 0 -115.5 36.5t-38.5 111.5v25q0 48 -1.5 68.5t-6.5 32t-18 30.5l-13 14l12 16l119 12v-184q0 -50 24.5 -71.5t70.5 -21.5q68 0 114 40v102
q0 42 -11 58t-47 27l-20 7l10 30h201l12 -15l-12 -15q-23 -31 -32 -65t-9 -90v-197q0 -37 10 -53q23 -23 77 -23z" />
    <glyph glyph-name="uni04B8" unicode="&#x4b8;" horiz-adv-x="628" 
d="M608 32l-12 -32h-245l-13 34l25 6q27 8 39.5 17t18 26.5t5.5 49.5v200q-30 -22 -56.5 -37t-56.5 -24v-73q-7 -11 -20 -15.5t-26 -4.5v84q-24 -2 -37 -2q-84 0 -129.5 40t-45.5 118v124q0 61 -6.5 89.5t-24.5 52.5l-14 17l14 17l130 14v-288q0 -57 28 -83.5t85 -27.5v85
q7 11 20 16t26 5v-102q36 6 61 22t52 42v183q0 46 -12.5 64t-50.5 29l-25 6l13 34h219l13 -16l-13 -18q-25 -33 -34.5 -70t-9.5 -97v-391q0 -44 12 -60.5t48 -27.5z" />
    <glyph glyph-name="uni04B9" unicode="&#x4b9;" horiz-adv-x="567" 
d="M522 31l-9 -31h-226l-10 32l20 6q36 8 47 25t11 61v89q-38 -31 -86 -42v-71q-5 -11 -18 -16t-24 -5v86q-6 -1 -19 -1q-77 0 -115.5 36.5t-38.5 111.5v25q0 48 -1.5 68.5t-6.5 32t-18 30.5l-13 14l12 16l119 12v-184q0 -46 21 -68t60 -25v65q5 11 17.5 16t24.5 5v-84
q50 6 86 38v102q0 42 -11 58t-47 27l-20 7l10 30h201l12 -15l-12 -15q-23 -31 -32 -65t-9 -90v-197q0 -39 11 -54t45 -25z" />
    <glyph glyph-name="uni04BA" unicode="&#x4ba;" horiz-adv-x="628" 
d="M265 678q-27 -8 -39.5 -17t-18 -26.5t-5.5 -49.5v-200q48 36 91.5 54t104.5 18q84 0 129.5 -40t45.5 -118v-124q0 -61 6.5 -89.5t24.5 -52.5l14 -17l-14 -17l-130 -14v288q0 58 -29 84.5t-88 26.5q-53 0 -86.5 -17.5t-68.5 -50.5v-183q0 -46 12.5 -64t50.5 -29l25 -6
l-13 -34h-219l-13 16l13 18q25 33 34.5 70t9.5 97v391q0 44 -12 60.5t-48 27.5l-22 6l12 32h245l13 -34z" />
    <glyph glyph-name="uni04BB" unicode="&#x4bb;" horiz-adv-x="639" 
d="M103.5 691q-4.5 5 -15.5 5h-44l-9 26q29 26 66.5 43t65.5 17q14 0 23 -9t9 -23v-389q26 65 78 107t109 42q73 0 103.5 -43t30.5 -139v-242q0 -34 30 -34q25 0 50 21l19 -26q-26 -29 -56 -46t-56 -17q-41 0 -59 25t-18 81v238q0 53 -19.5 78.5t-66.5 25.5q-43 0 -75.5 -34
t-51 -96t-18.5 -142q0 -47 7 -75t25 -54l12 -16l-12 -15h-175l-11 31l21 5q25 6 33.5 21.5t8.5 53.5v563q0 12 -4.5 17z" />
    <glyph glyph-name="uni04C0" unicode="&#x4c0;" horiz-adv-x="353" 
d="M40 34l23 6q38 11 51 29t13 64v452q0 46 -13 64t-51 29l-23 6l12 34h219l13 -16l-13 -18q-25 -33 -35 -70t-10 -97v-391q0 -43 12 -60t49 -28l21 -6l-11 -32h-245z" />
    <glyph glyph-name="uni04C1" unicode="&#x4c1;" horiz-adv-x="1016" 
d="M430 346q-36 -12 -60 -30.5t-40 -49.5l-90 -182q-25 -50 -56.5 -74t-77.5 -24q-57 0 -96 40l16 29q18 -14 39 -14q13 0 22 7.5t17 22.5l95 186q24 48 56.5 74t80.5 35l-202 258q-19 24 -37.5 36.5t-40.5 17.5l-23 6l11 34h172l18 -16l-11 -16q-14 -19 -14 -44
q0 -28 19 -53l164 -208h22q21 0 21 -24q0 -10 -5 -11zM565.5 65.5q7.5 -16.5 31.5 -27.5l21 -6l-11 -32h-202l-11 34l21 6q26 12 35 29t9 64v452q0 46 -6.5 64t-26.5 29l-21 6l10 34h178l12 -16l-12 -18q-19 -33 -27 -70t-8 -97v-391q0 -44 7.5 -60.5zM1006 26
q-39 -40 -96 -40q-46 0 -77.5 24t-56.5 74l-90 182q-16 31 -40 49.5t-60 30.5q-5 1 -5 11q0 24 21 24h22l164 208q19 25 19 53q0 25 -14 44l-11 16l18 16h172l11 -34l-23 -6q-22 -5 -40.5 -17.5t-37.5 -36.5l-202 -258q48 -9 80.5 -35t56.5 -74l95 -186q8 -15 17 -22.5
t22 -7.5q21 0 39 14zM357.5 946.5q24.5 19.5 56.5 19.5q9 0 15 -4.5t6 -9.5q0 -3 -8 -16.5t-8 -36.5q0 -55 89 -55q47 0 69 14.5t22 38.5t-8.5 38t-8.5 17q0 6 6 10t16 4q32 0 55 -19.5t23 -51.5q0 -45 -46.5 -69t-127.5 -24t-128 24t-47 69q0 32 24.5 51.5z" />
    <glyph glyph-name="uni04C2" unicode="&#x4c2;" horiz-adv-x="807" 
d="M315 265q18 0 18 -16q0 -8 -5 -12.5t-18 -11.5q-16 -8 -28.5 -18t-21.5 -28l-38 -74q-32 -68 -57 -93.5t-66 -25.5q-44 0 -84 37l15 28q17 -13 36 -13q11 0 18.5 6.5t16.5 20.5l67 126q21 39 64 60l-107 159q-15 23 -32 34t-39 16l-21 6l10 31h162l17 -15l-8 -16
q-1 -4 -6 -17t-5 -24q0 -14 3 -24.5t15 -26.5l75 -109h19zM278 31l20 7q36 10 48 26t12 58v253q0 42 -12 58.5t-48 26.5l-20 7l12 30h199l12 -14l-12 -16q-23 -31 -32 -65t-9 -90v-197q0 -42 7 -57t31 -22l18 -6l-10 -30h-204zM722 44q7 -6 18 -6q19 0 36 13l16 -28
q-37 -37 -85 -37q-29 0 -48 11.5t-35.5 36t-39.5 71.5l-38 74q-9 18 -21.5 28t-28.5 18q-13 7 -18 11.5t-5 12.5q0 16 18 16h19l75 109q11 16 15 27t4 24q0 11 -5 24t-6 17l-9 16l16 15h163l12 -31l-22 -6q-47 -11 -72 -50l-105 -159q41 -21 62 -60l67 -126q10 -15 17 -21z
M268 714.5q21 19.5 51 19.5q8 0 13 -4t5 -10q0 -3 -7.5 -16.5t-7.5 -36.5q0 -25 17.5 -40t62.5 -15q42 0 62 14.5t20 38.5t-7 38t-7 17q0 14 19 14q28 0 48.5 -19.5t20.5 -51.5q0 -44 -42 -68.5t-114 -24.5t-113.5 24.5t-41.5 68.5q0 32 21 51.5z" />
    <glyph glyph-name="uni04CB" unicode="&#x4cb;" horiz-adv-x="613" 
d="M608 32l-12 -32h-90q-44 0 -70 -18t-42 -52.5t-35 -98.5l-7 -24l-34 12v223q37 0 66 11.5t38 33.5q4 16 4 46v200q-48 -36 -91.5 -54t-104.5 -18q-84 0 -129.5 40t-45.5 118v124q0 61 -6.5 89.5t-24.5 52.5l-14 17l14 17l130 14v-288q0 -58 29 -84.5t88 -26.5
q53 0 86.5 17.5t68.5 50.5v183q0 46 -12.5 64t-50.5 29l-25 6l13 34h219l13 -16l-13 -18q-25 -33 -34.5 -70t-9.5 -97v-391q0 -44 12 -60.5t48 -27.5z" />
    <glyph glyph-name="uni04CC" unicode="&#x4cc;" horiz-adv-x="530" 
d="M522 31l-9 -31h-74q-61 0 -92.5 -37.5t-46.5 -120.5l-4 -22l-32 12v207q32 0 55 10t31 29q5 14 5 46v89q-29 -23 -64 -36t-83 -13q-77 0 -115.5 36.5t-38.5 111.5v25q0 48 -1.5 68.5t-6.5 32t-18 30.5l-13 14l12 16l119 12v-184q0 -50 24.5 -71.5t70.5 -21.5q68 0 114 40
v102q0 42 -11 58t-47 27l-20 7l10 30h201l12 -15l-12 -15q-23 -31 -32 -65t-9 -90v-197q0 -39 11 -54t45 -25z" />
    <glyph glyph-name="uni04CF" unicode="&#x4cf;" horiz-adv-x="302" 
d="M218 54q25 0 50 21l19 -26q-26 -29 -56 -46t-56 -17q-41 0 -59 25t-18 81v582q0 12 -4.5 17t-15.5 5h-44l-9 26q29 26 66 43t66 17q14 0 23 -9t9 -23l-1 -662q0 -34 30 -34z" />
    <glyph glyph-name="uni04D0" unicode="&#x4d0;" horiz-adv-x="706" 
d="M445 34l23 6q24 6 34.5 16t10.5 28q0 16 -11 49l-48 140h-231l-24 -73q-23 -69 -23 -105q0 -34 14 -61l9 -18l-19 -16h-184l-12 34l23 6q40 11 58 29t34 64l157 452q11 33 11 49q0 18 -10.5 28t-34.5 16l-23 6l12 34h193l201 -580q16 -46 35 -70t55 -52l-13 -16h-225z
M244 335h189l-96 280zM176.5 946.5q24.5 19.5 56.5 19.5q9 0 15 -4.5t6 -9.5q0 -3 -8 -16.5t-8 -36.5q0 -55 89 -55q47 0 69 14.5t22 38.5t-8.5 38t-8.5 17q0 6 6 10t16 4q32 0 55 -19.5t23 -51.5q0 -45 -46.5 -69t-127.5 -24t-128 24t-47 69q0 32 24.5 51.5z" />
    <glyph glyph-name="uni04D1" unicode="&#x4d1;" horiz-adv-x="604" 
d="M317 10q-43 -24 -93 -24q-48 0 -89 27.5t-65.5 82.5t-24.5 133q0 86 31.5 149.5t90 97.5t137.5 34q39 0 110 -13q60 -10 90 -12l11 -13l-12 -18q-7 -10 -10 -18.5t-3 -20.5v-327q0 -31 30 -31q25 0 50 18l19 -26q-26 -29 -56 -46t-55 -17q-41 0 -59 25t-18 81
q-41 -58 -84 -82zM182.5 108q32.5 -45 81.5 -45q40 0 75 22.5t62 68.5v270q-46 31 -98 31q-73 0 -113 -54.5t-40 -152.5q0 -95 32.5 -140zM145 714.5q21 19.5 51 19.5q8 0 13 -4t5 -10q0 -3 -7.5 -16.5t-7.5 -36.5q0 -25 17.5 -40t62.5 -15q42 0 62 14.5t20 38.5t-7 38
t-7 17q0 14 19 14q28 0 48.5 -19.5t20.5 -51.5q0 -44 -42 -68.5t-114 -24.5t-113.5 24.5t-41.5 68.5q0 32 21 51.5z" />
    <glyph glyph-name="uni04D2" unicode="&#x4d2;" horiz-adv-x="706" 
d="M445 34l23 6q24 6 34.5 16t10.5 28q0 16 -11 49l-48 140h-231l-24 -73q-23 -69 -23 -105q0 -34 14 -61l9 -18l-19 -16h-184l-12 34l23 6q40 11 58 29t34 64l157 452q11 33 11 49q0 18 -10.5 28t-34.5 16l-23 6l12 34h193l201 -580q16 -46 35 -70t55 -52l-13 -16h-225z
M244 335h189l-96 280zM191.5 921.5q21.5 23.5 39.5 23.5q19 0 41 -23t22 -43q0 -19 -22 -42t-41 -23q-17 0 -39 23t-22 42t21.5 42.5zM380.5 921.5q21.5 23.5 39.5 23.5q19 0 41 -23t22 -43q0 -19 -22 -42t-41 -23q-17 0 -39 23t-22 42t21.5 42.5z" />
    <glyph glyph-name="uni04D3" unicode="&#x4d3;" horiz-adv-x="604" 
d="M317 10q-43 -24 -93 -24q-48 0 -89 27.5t-65.5 82.5t-24.5 133q0 86 31.5 149.5t90 97.5t137.5 34q39 0 110 -13q60 -10 90 -12l11 -13l-12 -18q-7 -10 -10 -18.5t-3 -20.5v-327q0 -31 30 -31q25 0 50 18l19 -26q-26 -29 -56 -46t-55 -17q-41 0 -59 25t-18 81
q-41 -58 -84 -82zM182.5 108q32.5 -45 81.5 -45q40 0 75 22.5t62 68.5v270q-46 31 -98 31q-73 0 -113 -54.5t-40 -152.5q0 -95 32.5 -140zM144.5 700.5q21.5 23.5 39.5 23.5q19 0 41 -23t22 -43q0 -19 -22 -42t-41 -23q-17 0 -39 23t-22 42t21.5 42.5zM333.5 700.5
q21.5 23.5 39.5 23.5q19 0 41 -23t22 -43q0 -19 -22 -42t-41 -23q-17 0 -39 23t-22 42t21.5 42.5z" />
    <glyph glyph-name="uni04D4" unicode="&#x4d4;" horiz-adv-x="964" 
d="M580 133q0 -32 5 -48t18.5 -22t40.5 -6h108q36 0 56 7.5t31.5 26t21.5 55.5l6 23l34 -12v-171l-20 -11l-8 11q-11 14 -42 14h-421l-11 32l21 6q37 11 49 28t12 60v180h-198l-83 -152q-14 -25 -17.5 -40.5t-3.5 -34.5q0 -16 13 -45l9 -18l-19 -16h-184l-12 34l23 6
q28 8 46 18.5t32 35.5l348 624h307q86 0 114 21l18 13l16 -13v-178l-34 -12l-6 23q-10 37 -21.5 55.5t-31.5 26t-56 7.5h-97q-27 0 -40.5 -6t-18.5 -22t-5 -48v-222h127q24 0 42.5 10.5t36.5 35.5l8 11l20 -11v-171l-34 -12l-6 23q-9 34 -31.5 45.5t-77.5 11.5h-85v-173z
M481 363v302l-166 -302h166z" />
    <glyph glyph-name="uni04D5" unicode="&#x4d5;" horiz-adv-x="865" 
d="M359.5 486q47.5 -24 77.5 -67q34 44 86 67.5t117 23.5q55 0 93.5 -20.5t57.5 -54t19 -72.5q0 -42 -22.5 -81t-65.5 -63.5t-103 -24.5q-32 0 -71 12t-39 35q0 8 4.5 15t10.5 7q3 0 20 -6.5t44 -6.5q60 0 93.5 34t33.5 80q0 39 -25 67.5t-70 28.5q-64 0 -100 -56.5
t-36 -161.5q0 -89 38 -139.5t110 -50.5q88 0 146 57q4 4 9 4q8 0 17 -9.5t9 -19.5q0 -5 -4 -9q-37 -43 -88 -66t-110 -23q-69 0 -121 31.5t-80 88.5q-26 -57 -76 -88.5t-119 -31.5q-55 0 -93.5 20.5t-57.5 54t-19 72.5q0 44 22.5 83.5t65.5 64.5t103 25q35 0 77.5 -12
t42.5 -35q0 -8 -4.5 -15t-10.5 -7q-4 0 -23.5 6.5t-50.5 6.5q-60 0 -93.5 -35t-33.5 -83q0 -38 25 -65t70 -27q69 0 107.5 55.5t38.5 158.5q0 89 -38 139.5t-110 50.5q-53 0 -82 -11t-45.5 -22.5t-20.5 -11.5q-8 0 -17 9.5t-9 19.5q0 11 26.5 31t71 35.5t97.5 15.5
q58 0 105.5 -24z" />
    <glyph glyph-name="uni04D6" unicode="&#x4d6;" horiz-adv-x="610" 
d="M226 133q0 -32 5 -48t18.5 -22t40.5 -6h108q36 0 56 7.5t31.5 26t21.5 55.5l6 23l34 -12v-171l-20 -11l-8 11q-11 14 -42 14h-421l-11 32l21 6q37 11 49 28t12 60v391q0 60 -10 97t-35 70l-13 18l13 16h306q86 0 114 21l18 13l16 -13v-178l-34 -12l-6 23
q-10 37 -21.5 55.5t-31.5 26t-56 7.5h-97q-27 0 -40.5 -6t-18.5 -22t-5 -48v-192h127q24 0 42.5 10.5t36.5 35.5l8 11l20 -11v-171l-34 -12l-6 23q-9 34 -31.5 45.5t-77.5 11.5h-85v-203zM182.5 946.5q24.5 19.5 56.5 19.5q9 0 15 -4.5t6 -9.5q0 -3 -8 -16.5t-8 -36.5
q0 -55 89 -55q47 0 69 14.5t22 38.5t-8.5 38t-8.5 17q0 6 6 10t16 4q32 0 55 -19.5t23 -51.5q0 -45 -46.5 -69t-127.5 -24t-128 24t-47 69q0 32 24.5 51.5z" />
    <glyph glyph-name="uni04D7" unicode="&#x4d7;" horiz-adv-x="529" 
d="M385 9q-51 -23 -110 -23q-69 0 -121 32t-80.5 90t-28.5 134q0 80 32 140.5t90.5 94t136.5 33.5q55 0 93.5 -20.5t57.5 -54t19 -72.5q0 -42 -22.5 -81t-65.5 -63.5t-103 -24.5q-32 0 -71 12t-39 35q0 8 4.5 15t10.5 7q3 0 20 -6.5t44 -6.5q60 0 93.5 34t33.5 80
q0 39 -25 67.5t-70 28.5q-64 0 -100 -56.5t-36 -161.5q0 -89 38 -139.5t110 -50.5q88 0 146 57q4 4 9 4q8 0 17 -9.5t9 -19.5q0 -5 -4 -9q-37 -43 -88 -66zM132 714.5q21 19.5 51 19.5q8 0 13 -4t5 -10q0 -3 -7.5 -16.5t-7.5 -36.5q0 -25 17.5 -40t62.5 -15q42 0 62 14.5
t20 38.5t-7 38t-7 17q0 14 19 14q28 0 48.5 -19.5t20.5 -51.5q0 -44 -42 -68.5t-114 -24.5t-113.5 24.5t-41.5 68.5q0 32 21 51.5z" />
    <glyph glyph-name="uni04D8" unicode="&#x4d8;" horiz-adv-x="628" 
d="M551 165q-42 -85 -118 -131.5t-173 -46.5q-68 0 -119 27.5t-78.5 76t-27.5 108.5q0 65 32.5 119.5t92 87t137.5 32.5q53 0 87 -12t34 -30q0 -14 -6 -23.5t-15 -9.5q-5 0 -28 9.5t-58 9.5q-81 0 -128.5 -48t-47.5 -128q0 -79 39.5 -120.5t105.5 -41.5q98 0 149.5 88.5
t50.5 262.5q-7 119 -64 200t-168 81q-50 0 -89.5 -28t-52.5 -86l-5 -23l-35 12v179l17 12l18 -12q13 -12 38 -12q10 0 24 2t22 3q54 9 86 9q106 0 178.5 -48.5t108 -132.5t35.5 -190q0 -111 -42 -196z" />
    <glyph glyph-name="uni04D9" unicode="&#x4d9;" horiz-adv-x="524" 
d="M90 27.5q-45 41.5 -45 101.5q0 42 23 81t67 63.5t105 24.5q47 0 78.5 -13t31.5 -34q0 -9 -4.5 -15.5t-9.5 -6.5q-4 0 -21 6t-44 6q-65 0 -101 -33.5t-36 -79.5t27.5 -71.5t77.5 -25.5q63 0 99 54t38 154q-2 112 -38 163t-109 51q-104 0 -130 -103l-6 -20l-32 10v163
l16 13l16 -13q14 -9 36 -9q8 0 32 4q38 8 73 8q73 0 128 -31t86 -89t31 -136q0 -80 -32.5 -140t-91 -92t-136.5 -32q-84 0 -129 41.5z" />
    <glyph glyph-name="uni04DC" unicode="&#x4dc;" horiz-adv-x="1016" 
d="M430 346q-36 -12 -60 -30.5t-40 -49.5l-90 -182q-25 -50 -56.5 -74t-77.5 -24q-57 0 -96 40l16 29q18 -14 39 -14q13 0 22 7.5t17 22.5l95 186q24 48 56.5 74t80.5 35l-202 258q-19 24 -37.5 36.5t-40.5 17.5l-23 6l11 34h172l18 -16l-11 -16q-14 -19 -14 -44
q0 -28 19 -53l164 -208h22q21 0 21 -24q0 -10 -5 -11zM565.5 65.5q7.5 -16.5 31.5 -27.5l21 -6l-11 -32h-202l-11 34l21 6q26 12 35 29t9 64v452q0 46 -6.5 64t-26.5 29l-21 6l10 34h178l12 -16l-12 -18q-19 -33 -27 -70t-8 -97v-391q0 -44 7.5 -60.5zM1006 26
q-39 -40 -96 -40q-46 0 -77.5 24t-56.5 74l-90 182q-16 31 -40 49.5t-60 30.5q-5 1 -5 11q0 24 21 24h22l164 208q19 25 19 53q0 25 -14 44l-11 16l18 16h172l11 -34l-23 -6q-22 -5 -40.5 -17.5t-37.5 -36.5l-202 -258q48 -9 80.5 -35t56.5 -74l95 -186q8 -15 17 -22.5
t22 -7.5q21 0 39 14zM372.5 921.5q21.5 23.5 39.5 23.5q19 0 41 -23t22 -43q0 -19 -22 -42t-41 -23q-17 0 -39 23t-22 42t21.5 42.5zM561.5 921.5q21.5 23.5 39.5 23.5q19 0 41 -23t22 -43q0 -19 -22 -42t-41 -23q-17 0 -39 23t-22 42t21.5 42.5z" />
    <glyph glyph-name="uni04DD" unicode="&#x4dd;" horiz-adv-x="807" 
d="M315 265q18 0 18 -16q0 -8 -5 -12.5t-18 -11.5q-16 -8 -28.5 -18t-21.5 -28l-38 -74q-32 -68 -57 -93.5t-66 -25.5q-44 0 -84 37l15 28q17 -13 36 -13q11 0 18.5 6.5t16.5 20.5l67 126q21 39 64 60l-107 159q-15 23 -32 34t-39 16l-21 6l10 31h162l17 -15l-8 -16
q-1 -4 -6 -17t-5 -24q0 -14 3 -24.5t15 -26.5l75 -109h19zM278 31l20 7q36 10 48 26t12 58v253q0 42 -12 58.5t-48 26.5l-20 7l12 30h199l12 -14l-12 -16q-23 -31 -32 -65t-9 -90v-197q0 -42 7 -57t31 -22l18 -6l-10 -30h-204zM722 44q7 -6 18 -6q19 0 36 13l16 -28
q-37 -37 -85 -37q-29 0 -48 11.5t-35.5 36t-39.5 71.5l-38 74q-9 18 -21.5 28t-28.5 18q-13 7 -18 11.5t-5 12.5q0 16 18 16h19l75 109q11 16 15 27t4 24q0 11 -5 24t-6 17l-9 16l16 15h163l12 -31l-22 -6q-47 -11 -72 -50l-105 -159q41 -21 62 -60l67 -126q10 -15 17 -21z
M267.5 700.5q21.5 23.5 39.5 23.5q19 0 41 -23t22 -43q0 -19 -22 -42t-41 -23q-17 0 -39 23t-22 42t21.5 42.5zM456.5 700.5q21.5 23.5 39.5 23.5q19 0 41 -23t22 -43q0 -19 -22 -42t-41 -23q-17 0 -39 23t-22 42t21.5 42.5z" />
    <glyph glyph-name="uni04DE" unicode="&#x4de;" horiz-adv-x="541" 
d="M128 718q16 0 44 5q56 9 97 9q58 0 106.5 -19.5t77.5 -59.5t29 -97q0 -119 -143 -169q96 -20 137 -70t41 -133q0 -58 -32.5 -103t-92 -70t-136.5 -25q-62 0 -115 18.5t-85.5 55t-32.5 88.5q0 47 29 76t72 29q12 0 16.5 -2t4.5 -10q0 -3 -11.5 -25t-11.5 -60
q0 -55 32.5 -84t98.5 -29q73 0 114 39t41 109q0 71 -39 118t-118 47q-21 0 -37 -3t-23 -3q-5 0 -8.5 5.5t-3.5 14.5q0 14 13 20.5t46 13.5q79 15 107 50.5t28 96.5q0 59 -31.5 92t-85.5 33q-68 0 -105 -28t-56 -106l-5 -22l-33 11v199l16 12l17 -12q14 -12 38 -12z
M135.5 921.5q21.5 23.5 39.5 23.5q19 0 41 -23t22 -43q0 -19 -22 -42t-41 -23q-17 0 -39 23t-22 42t21.5 42.5zM324.5 921.5q21.5 23.5 39.5 23.5q19 0 41 -23t22 -43q0 -19 -22 -42t-41 -23q-17 0 -39 23t-22 42t21.5 42.5z" />
    <glyph glyph-name="uni04DF" unicode="&#x4df;" horiz-adv-x="478" 
d="M310.5 214q-35.5 25 -96.5 27h-10q-22 0 -22 18q0 11 12 16.5t41 11.5q57 9 79.5 31.5t22.5 62.5q0 32 -27 53.5t-77 21.5q-100 0 -130 -102l-7 -21l-29 10v164l13 13l16 -13q15 -10 36 -10q13 0 35 5q42 7 67 7q96 0 143 -32t47 -89q0 -44 -25.5 -74.5t-75.5 -45.5
q62 -18 91 -53.5t29 -78.5q0 -39 -24.5 -73.5t-73 -55.5t-116.5 -21q-80 0 -136 33t-56 92q0 31 21 51.5t53 20.5q22 0 22 -11q0 -4 -5 -19.5t-5 -37.5q0 -36 28.5 -55.5t77.5 -19.5q58 0 87.5 25t29.5 79q0 45 -35.5 70zM96.5 700.5q21.5 23.5 39.5 23.5q19 0 41 -23
t22 -43q0 -19 -22 -42t-41 -23q-17 0 -39 23t-22 42t21.5 42.5zM285.5 700.5q21.5 23.5 39.5 23.5q19 0 41 -23t22 -43q0 -19 -22 -42t-41 -23q-17 0 -39 23t-22 42t21.5 42.5z" />
    <glyph glyph-name="uni04E2" unicode="&#x4e2;" horiz-adv-x="731" 
d="M716 32l-10 -32h-245l-12 34l22 6q27 7 40 16t18.5 26.5t5.5 50.5v379l-337 -367v-19q0 -43 12 -60t48 -28l21 -6l-10 -32h-246l-12 34l24 6q27 8 40 17t18.5 26.5t5.5 49.5v452q0 46 -13 64t-51 29l-24 6l12 34h220l13 -16l-13 -18q-25 -33 -35 -70t-10 -97v-290
l337 366q-1 41 -14 58.5t-50 26.5l-22 6l12 34h218l15 -16l-15 -18q-26 -32 -36 -69t-10 -98v-391q0 -44 13 -61t50 -27zM222.5 883.5q6.5 22.5 19.5 34.5h269q0 -24 -6 -46t-20 -34h-269q0 23 6.5 45.5z" />
    <glyph glyph-name="uni04E3" unicode="&#x4e3;" horiz-adv-x="672" 
d="M219 96q5 -31 16.5 -42.5t35.5 -17.5l19 -6l-9 -30h-226l-10 31l20 7q35 10 46.5 26t11.5 58v253q0 42 -11.5 58.5t-46.5 26.5l-20 7l10 30h201l12 -14l-12 -16q-23 -32 -32.5 -65.5t-9.5 -89.5v-141l241 228q-5 30 -16.5 42t-36.5 19l-20 7l10 30h201l11 -14l-11 -16
q-23 -32 -32.5 -65.5t-9.5 -89.5v-197q0 -28 5 -42.5t16 -21.5t35 -15l20 -6l-10 -30h-225l-10 31l20 7q36 10 47.5 26t11.5 58v201zM193.5 662.5q6.5 22.5 19.5 34.5h269q0 -24 -6 -46t-20 -34h-269q0 23 6.5 45.5z" />
    <glyph glyph-name="uni04E4" unicode="&#x4e4;" horiz-adv-x="731" 
d="M716 32l-10 -32h-245l-12 34l22 6q27 7 40 16t18.5 26.5t5.5 50.5v379l-337 -367v-19q0 -43 12 -60t48 -28l21 -6l-10 -32h-246l-12 34l24 6q27 8 40 17t18.5 26.5t5.5 49.5v452q0 46 -13 64t-51 29l-24 6l12 34h220l13 -16l-13 -18q-25 -33 -35 -70t-10 -97v-290
l337 366q-1 41 -14 58.5t-50 26.5l-22 6l12 34h218l15 -16l-15 -18q-26 -32 -36 -69t-10 -98v-391q0 -44 13 -61t50 -27zM228.5 921.5q21.5 23.5 39.5 23.5q19 0 41 -23t22 -43q0 -19 -22 -42t-41 -23q-17 0 -39 23t-22 42t21.5 42.5zM417.5 921.5q21.5 23.5 39.5 23.5
q19 0 41 -23t22 -43q0 -19 -22 -42t-41 -23q-17 0 -39 23t-22 42t21.5 42.5z" />
    <glyph glyph-name="uni04E5" unicode="&#x4e5;" horiz-adv-x="672" 
d="M219 96q5 -31 16.5 -42.5t35.5 -17.5l19 -6l-9 -30h-226l-10 31l20 7q35 10 46.5 26t11.5 58v253q0 42 -11.5 58.5t-46.5 26.5l-20 7l10 30h201l12 -14l-12 -16q-23 -32 -32.5 -65.5t-9.5 -89.5v-141l241 228q-5 30 -16.5 42t-36.5 19l-20 7l10 30h201l11 -14l-11 -16
q-23 -32 -32.5 -65.5t-9.5 -89.5v-197q0 -28 5 -42.5t16 -21.5t35 -15l20 -6l-10 -30h-225l-10 31l20 7q36 10 47.5 26t11.5 58v201zM199.5 700.5q21.5 23.5 39.5 23.5q19 0 41 -23t22 -43q0 -19 -22 -42t-41 -23q-17 0 -39 23t-22 42t21.5 42.5zM388.5 700.5
q21.5 23.5 39.5 23.5q19 0 41 -23t22 -43q0 -19 -22 -42t-41 -23q-17 0 -39 23t-22 42t21.5 42.5z" />
    <glyph glyph-name="uni04E6" unicode="&#x4e6;" horiz-adv-x="733" 
d="M72 548.5q37 84.5 111.5 134t182.5 49.5t182.5 -49.5t112 -134t37.5 -190.5t-37.5 -190t-112 -133t-182.5 -49t-182.5 49t-111.5 133t-37 190t37 190.5zM568.5 500.5q-20.5 73.5 -69.5 124t-128 50.5q-71 0 -122.5 -43.5t-78.5 -117.5t-27 -164q0 -87 25 -156t74.5 -109
t119.5 -40t121.5 41t78.5 111.5t27 157.5q0 72 -20.5 145.5zM231.5 921.5q21.5 23.5 39.5 23.5q19 0 41 -23t22 -43q0 -19 -22 -42t-41 -23q-17 0 -39 23t-22 42t21.5 42.5zM420.5 921.5q21.5 23.5 39.5 23.5q19 0 41 -23t22 -43q0 -19 -22 -42t-41 -23q-17 0 -39 23t-22 42
t21.5 42.5z" />
    <glyph glyph-name="uni04E7" unicode="&#x4e7;" horiz-adv-x="578" 
d="M74.5 387q29.5 59 85 91t129.5 32t129 -32t85 -91t30 -139q0 -79 -30 -138.5t-85 -91.5t-129 -32t-129.5 32t-85 91.5t-29.5 138.5q0 80 29.5 139zM415 341q-13 49 -43.5 83t-79.5 34q-42 0 -74.5 -26.5t-50.5 -74.5t-18 -110q0 -95 37 -151t100 -56q41 0 73.5 25.5
t50.5 72t18 107.5q0 47 -13 96zM153.5 700.5q21.5 23.5 39.5 23.5q19 0 41 -23t22 -43q0 -19 -22 -42t-41 -23q-17 0 -39 23t-22 42t21.5 42.5zM342.5 700.5q21.5 23.5 39.5 23.5q19 0 41 -23t22 -43q0 -19 -22 -42t-41 -23q-17 0 -39 23t-22 42t21.5 42.5z" />
    <glyph glyph-name="uni04E8" unicode="&#x4e8;" horiz-adv-x="679" 
d="M548.5 682.5q74.5 -49.5 112 -134t37.5 -190.5t-37.5 -190t-112 -133t-182.5 -49t-182.5 49t-111.5 133t-37 190t37 190.5t111.5 134t182.5 49.5t182.5 -49.5zM255.5 637q-49.5 -38 -77.5 -103.5t-34 -146.5h444q-5 70 -27.5 135.5t-69.5 109t-120 43.5q-66 0 -115.5 -38
zM478.5 82.5q49.5 37.5 77.5 102.5t32 146h-445q5 -127 61.5 -206.5t157.5 -79.5q67 0 116.5 37.5z" />
    <glyph glyph-name="uni04E9" unicode="&#x4e9;" horiz-adv-x="623" 
d="M450.5 515.5q59.5 -34.5 92 -98.5t32.5 -150q0 -85 -32.5 -149t-92 -98.5t-138.5 -34.5q-80 0 -139.5 34.5t-91.5 98.5t-32 149q0 86 32 150t91.5 98.5t139.5 34.5q79 0 138.5 -34.5zM211 440.5q-41 -53.5 -49 -141.5h297q-6 78 -41 136.5t-103 58.5q-63 0 -104 -53.5z
M413 97q42 54 47 142h-298q5 -90 44 -143t102 -53t105 54z" />
    <glyph glyph-name="uni04EE" unicode="&#x4ee;" horiz-adv-x="599" 
d="M622 702l-14 -18q-29 -40 -55 -100l-183 -416q-44 -100 -88.5 -141t-100.5 -41q-52 0 -83 25t-31 67q0 36 24.5 64t60.5 28q21 0 21 -13q0 -3 -7 -22.5t-7 -39.5q0 -22 10 -35t28 -13q28 0 50.5 27.5t53.5 96.5l16 36l-235 369q-37 57 -62 85t-55 41l4 16h252l12 -34
l-22 -6q-40 -10 -40 -43q0 -25 24 -64l169 -260l97 216q20 46 20 80q0 28 -13.5 47t-37.5 24l-22 6l12 34h191zM174.5 883.5q6.5 22.5 19.5 34.5h269q0 -24 -6 -46t-20 -34h-269q0 23 6.5 45.5z" />
    <glyph glyph-name="uni04EF" unicode="&#x4ef;" horiz-adv-x="610" 
d="M197 -257.5q-39 20.5 -58 53t-19 69.5q0 50 34 85.5t93 35.5q10 0 14.5 -3.5t4.5 -7.5t-14 -19t-24.5 -36t-10.5 -53q0 -40 23.5 -66.5t63.5 -26.5q62 0 91 51t29 137v148q-23 -44 -69 -69.5t-101 -25.5q-71 0 -111 43.5t-40 122.5v222q0 12 -4.5 17t-15.5 5h-44l-9 26
q26 26 63.5 43t68.5 17q14 0 23 -9t9 -23v-275q0 -60 24 -91t70 -31q67 0 104.5 50.5t37.5 139.5q0 82 -7 122t-32 73l-12 16l12 15l122 13v-533q0 -123 -59.5 -189.5t-162.5 -66.5q-55 0 -94 20.5zM137.5 662.5q6.5 22.5 19.5 34.5h269q0 -24 -6 -46t-20 -34h-269
q0 23 6.5 45.5z" />
    <glyph glyph-name="uni04F0" unicode="&#x4f0;" horiz-adv-x="599" 
d="M622 702l-14 -18q-29 -40 -55 -100l-183 -416q-44 -100 -88.5 -141t-100.5 -41q-52 0 -83 25t-31 67q0 36 24.5 64t60.5 28q21 0 21 -13q0 -3 -7 -22.5t-7 -39.5q0 -22 10 -35t28 -13q28 0 50.5 27.5t53.5 96.5l16 36l-235 369q-37 57 -62 85t-55 41l4 16h252l12 -34
l-22 -6q-40 -10 -40 -43q0 -25 24 -64l169 -260l97 216q20 46 20 80q0 28 -13.5 47t-37.5 24l-22 6l12 34h191zM180.5 921.5q21.5 23.5 39.5 23.5q19 0 41 -23t22 -43q0 -19 -22 -42t-41 -23q-17 0 -39 23t-22 42t21.5 42.5zM369.5 921.5q21.5 23.5 39.5 23.5q19 0 41 -23
t22 -43q0 -19 -22 -42t-41 -23q-17 0 -39 23t-22 42t21.5 42.5z" />
    <glyph glyph-name="uni04F1" unicode="&#x4f1;" horiz-adv-x="610" 
d="M197 -257.5q-39 20.5 -58 53t-19 69.5q0 50 34 85.5t93 35.5q10 0 14.5 -3.5t4.5 -7.5t-14 -19t-24.5 -36t-10.5 -53q0 -40 23.5 -66.5t63.5 -26.5q62 0 91 51t29 137v148q-23 -44 -69 -69.5t-101 -25.5q-71 0 -111 43.5t-40 122.5v222q0 12 -4.5 17t-15.5 5h-44l-9 26
q26 26 63.5 43t68.5 17q14 0 23 -9t9 -23v-275q0 -60 24 -91t70 -31q67 0 104.5 50.5t37.5 139.5q0 82 -7 122t-32 73l-12 16l12 15l122 13v-533q0 -123 -59.5 -189.5t-162.5 -66.5q-55 0 -94 20.5zM143.5 700.5q21.5 23.5 39.5 23.5q19 0 41 -23t22 -43q0 -19 -22 -42
t-41 -23q-17 0 -39 23t-22 42t21.5 42.5zM332.5 700.5q21.5 23.5 39.5 23.5q19 0 41 -23t22 -43q0 -19 -22 -42t-41 -23q-17 0 -39 23t-22 42t21.5 42.5z" />
    <glyph glyph-name="uni04F2" unicode="&#x4f2;" horiz-adv-x="599" 
d="M622 702l-14 -18q-29 -40 -55 -100l-183 -416q-44 -100 -88.5 -141t-100.5 -41q-52 0 -83 25t-31 67q0 36 24.5 64t60.5 28q21 0 21 -13q0 -3 -7 -22.5t-7 -39.5q0 -22 10 -35t28 -13q28 0 50.5 27.5t53.5 96.5l16 36l-235 369q-37 57 -62 85t-55 41l4 16h252l12 -34
l-22 -6q-40 -10 -40 -43q0 -25 24 -64l169 -260l97 216q20 46 20 80q0 28 -13.5 47t-37.5 24l-22 6l12 34h191zM359.5 955.5q11.5 -16.5 11.5 -37.5q0 -22 -13 -39.5t-43 -32.5l-113 -56l-29 35l156 156q19 -9 30.5 -25.5zM566.5 955.5q11.5 -16.5 11.5 -37.5
q0 -22 -13 -39.5t-43 -32.5l-113 -56l-29 35l156 156q19 -9 30.5 -25.5z" />
    <glyph glyph-name="uni04F3" unicode="&#x4f3;" horiz-adv-x="610" 
d="M197 -257.5q-39 20.5 -58 53t-19 69.5q0 50 34 85.5t93 35.5q10 0 14.5 -3.5t4.5 -7.5t-14 -19t-24.5 -36t-10.5 -53q0 -40 23.5 -66.5t63.5 -26.5q62 0 91 51t29 137v148q-23 -44 -69 -69.5t-101 -25.5q-71 0 -111 43.5t-40 122.5v222q0 12 -4.5 17t-15.5 5h-44l-9 26
q26 26 63.5 43t68.5 17q14 0 23 -9t9 -23v-275q0 -60 24 -91t70 -31q67 0 104.5 50.5t37.5 139.5q0 82 -7 122t-32 73l-12 16l12 15l122 13v-533q0 -123 -59.5 -189.5t-162.5 -66.5q-55 0 -94 20.5zM322.5 734.5q11.5 -16.5 11.5 -37.5q0 -22 -13 -39.5t-43 -32.5l-113 -56
l-29 35l156 156q19 -9 30.5 -25.5zM529.5 734.5q11.5 -16.5 11.5 -37.5q0 -22 -13 -39.5t-43 -32.5l-113 -56l-29 35l156 156q19 -9 30.5 -25.5z" />
    <glyph glyph-name="uni04F4" unicode="&#x4f4;" horiz-adv-x="628" 
d="M363 40q27 8 39.5 17t18 26.5t5.5 49.5v200q-48 -36 -91.5 -54t-104.5 -18q-84 0 -129.5 40t-45.5 118v124q0 61 -6.5 89.5t-24.5 52.5l-14 17l14 17l130 14v-288q0 -58 29 -84.5t88 -26.5q53 0 86.5 17.5t68.5 50.5v183q0 46 -12.5 64t-50.5 29l-25 6l13 34h219l13 -16
l-13 -18q-25 -33 -34.5 -70t-9.5 -97v-391q0 -44 12 -60.5t48 -27.5l22 -6l-12 -32h-245l-13 34zM143.5 921.5q21.5 23.5 39.5 23.5q19 0 41 -23t22 -43q0 -19 -22 -42t-41 -23q-17 0 -39 23t-22 42t21.5 42.5zM332.5 921.5q21.5 23.5 39.5 23.5q19 0 41 -23t22 -43
q0 -19 -22 -42t-41 -23q-17 0 -39 23t-22 42t21.5 42.5z" />
    <glyph glyph-name="uni04F5" unicode="&#x4f5;" horiz-adv-x="567" 
d="M287 0l-10 32l20 6q36 8 47 25t11 61v89q-29 -23 -64 -36t-83 -13q-77 0 -115.5 36.5t-38.5 111.5v25q0 48 -1.5 68.5t-6.5 32t-18 30.5l-13 14l12 16l119 12v-184q0 -50 24.5 -71.5t70.5 -21.5q68 0 114 40v102q0 42 -11 58t-47 27l-20 7l10 30h201l12 -15l-12 -15
q-23 -31 -32 -65t-9 -90v-197q0 -39 11 -54t45 -25l19 -5l-9 -31h-226zM113.5 700.5q21.5 23.5 39.5 23.5q19 0 41 -23t22 -43q0 -19 -22 -42t-41 -23q-17 0 -39 23t-22 42t21.5 42.5zM302.5 700.5q21.5 23.5 39.5 23.5q19 0 41 -23t22 -43q0 -19 -22 -42t-41 -23
q-17 0 -39 23t-22 42t21.5 42.5z" />
    <glyph glyph-name="uni04F6" unicode="&#x4f6;" horiz-adv-x="509" 
d="M496 738v-177l-35 -12l-5 23q-8 37 -20 56t-32 26.5t-57 7.5h-86q-27 0 -40.5 -6.5t-18.5 -22.5t-5 -48v-452q0 -20 1 -28h1q0 -31 31.5 -47t76.5 -16v-223l-35 -12l-6 24q-20 65 -36 99t-42 52t-70 18h-65l-13 16l13 18q25 34 35.5 70.5t10.5 96.5v316q0 59 -10.5 96.5
t-35.5 70.5l-13 18l13 16h295q84 0 113 20l19 13z" />
    <glyph glyph-name="uni04F7" unicode="&#x4f7;" horiz-adv-x="462" 
d="M437 510v-164l-30 -10l-7 21q-9 35 -19.5 52t-28.5 23.5t-52 6.5h-54q-25 0 -37 -5.5t-17 -20t-5 -43.5v-248q0 -39 9 -54q22 -29 82 -29v-207l-33 -12l-4 22q-17 84 -48 121t-91 37h-46l-11 15l11 16q24 32 33 61t9 84v130q0 56 -9.5 90.5t-32.5 63.5l-11 18l11 14h245
q42 0 67 4t39 14l15 13z" />
    <glyph glyph-name="uni04F8" unicode="&#x4f8;" horiz-adv-x="936" 
d="M259.5 76.5q32.5 -24.5 78.5 -24.5q61 0 98 45.5t37 117.5q0 42 -19 78t-52.5 56.5t-73.5 20.5q-27 0 -44.5 -4.5t-21.5 -4.5q-7 0 -10.5 6.5t-3.5 16.5q0 18 28 26.5t69 8.5q68 0 120.5 -28.5t82 -76.5t29.5 -104q0 -97 -60 -153.5t-186 -56.5h-279l-12 34l24 6
q37 10 50 28.5t13 64.5v452q0 45 -13 64t-50 29l-24 6l12 34h220l13 -16l-13 -18q-25 -34 -35 -70.5t-10 -96.5v-334q0 -82 32.5 -106.5zM623 34l23 6q26 8 39.5 17.5t19.5 26.5t6 49v452q0 45 -13.5 63.5t-51.5 29.5l-23 6l11 34h221l12 -16l-12 -18q-25 -33 -35.5 -70.5
t-10.5 -96.5v-391q0 -43 12 -60t48 -28l22 -6l-11 -32h-246zM332.5 921.5q21.5 23.5 39.5 23.5q19 0 41 -23t22 -43q0 -19 -22 -42t-41 -23q-17 0 -39 23t-22 42t21.5 42.5zM521.5 921.5q21.5 23.5 39.5 23.5q19 0 41 -23t22 -43q0 -19 -22 -42t-41 -23q-17 0 -39 23t-22 42
t21.5 42.5z" />
    <glyph glyph-name="uni04F9" unicode="&#x4f9;" horiz-adv-x="851" 
d="M231.5 94q17.5 -30 41 -37.5t56.5 -7.5q44 0 72.5 28.5t28.5 73.5q0 41 -32 69.5t-81 28.5q-29 0 -46 -5t-21 -5q-6 0 -9 6t-3 14q0 18 29 26.5t67 8.5q62 0 107 -20t68.5 -53t23.5 -73q0 -69 -53.5 -108.5t-167.5 -39.5h-256l-11 31l21 7q34 10 46 26.5t12 57.5v253
q0 41 -12 58t-46 27l-21 7l11 30h200l12 -14l-12 -16q-23 -31 -32.5 -65.5t-9.5 -89.5v-127q0 -61 17.5 -91zM562 31l21 7q35 10 46.5 26t11.5 58v253q0 42 -11.5 58.5t-46.5 26.5l-21 7l9 30h203l11 -14l-11 -16q-23 -30 -32.5 -64.5t-9.5 -90.5v-197q0 -28 5 -42.5t16 -22
t34 -14.5l19 -6l-9 -30h-226zM294.5 700.5q21.5 23.5 39.5 23.5q19 0 41 -23t22 -43q0 -19 -22 -42t-41 -23q-17 0 -39 23t-22 42t21.5 42.5zM483.5 700.5q21.5 23.5 39.5 23.5q19 0 41 -23t22 -43q0 -19 -22 -42t-41 -23q-17 0 -39 23t-22 42t21.5 42.5z" />
    <glyph glyph-name="uni051A" unicode="&#x51a;" horiz-adv-x="733" 
d="M72 548.5q37 84.5 111.5 134t182.5 49.5t182.5 -49.5t112 -134t37.5 -190.5q0 -101 -34 -182.5t-100 -129.5l50 -111q18 -40 43 -58.5t62 -18.5q20 0 36 6.5t19 6.5q4 0 6.5 -3t2.5 -7q0 -36 -28 -59.5t-65 -23.5q-58 0 -96.5 38.5t-67.5 103.5l-39 85q-57 -19 -121 -19
q-108 0 -182.5 49t-111.5 133t-37 190t37 190.5zM568.5 500.5q-20.5 73.5 -69.5 124t-128 50.5q-71 0 -122.5 -43.5t-78.5 -117.5t-27 -164q0 -68 15 -125t45 -98q-2 7 -2 20q0 50 34 78.5t92 28.5q55 0 104.5 -31.5t90.5 -96.5q32 43 49.5 102t17.5 127q0 72 -20.5 145.5z
M278.5 67q34.5 -22 83.5 -22q52 0 96 25q-32 65 -71.5 95.5t-76.5 30.5q-29 0 -47.5 -17t-18.5 -46q0 -44 34.5 -66z" />
    <glyph glyph-name="uni051B" unicode="&#x51b;" horiz-adv-x="589" 
d="M497 -190.5q5 -24.5 19 -44.5l10 -16l-12 -15h-186v33l31 14q24 11 33 26t9 47v238q-41 -58 -84 -82t-93 -24q-48 0 -89 27.5t-65.5 82.5t-24.5 133q0 86 31.5 149.5t90 97.5t137.5 34q40 0 111 -13q63 -10 91 -12l11 -13l-12 -18q-7 -12 -10 -20t-3 -19v-533
q0 -48 5 -72.5zM182.5 108q32.5 -45 81.5 -45q40 0 75 22.5t62 68.5v270q-46 31 -98 31q-73 0 -113 -54.5t-40 -152.5q0 -95 32.5 -140z" />
    <glyph glyph-name="uni051C" unicode="&#x51c;" horiz-adv-x="1087" 
d="M695 0l-147 436l-144 -436h-114l-195 580q-15 46 -34 70t-56 52l13 16h225l12 -34l-23 -6q-24 -6 -34.5 -16t-10.5 -28q0 -16 11 -49l163 -502l149 465l-10 32q-15 46 -34 70t-56 52l13 16h225l12 -34l-23 -6q-24 -6 -34.5 -16t-10.5 -28q0 -16 11 -49l163 -502l140 435
q19 60 19 93q-2 55 -45 67l-23 6l12 34h190l13 -16l-15 -18q-37 -44 -55 -100l-193 -584h-114z" />
    <glyph glyph-name="uni051D" unicode="&#x51d;" horiz-adv-x="813" 
d="M336 85.5q25 34.5 38.5 91t13.5 118.5q0 48 -11 93t-33 80l-10 16l12 13l117 13q5 -62 5 -106q0 -46 -5 -98l21 -140q9 -62 27 -88.5t53 -26.5q32 0 57 34.5t38.5 91t13.5 118.5q0 48 -11 93t-33 80l-10 16l12 13l117 13q5 -62 5 -106q0 -133 -27 -227.5t-72 -142.5
t-97 -48q-58 0 -90.5 28.5t-50.5 97.5q-27 -62 -65.5 -94t-82.5 -32q-52 0 -83.5 19.5t-50.5 63t-30 121.5l-31 212q-2 13 -6 17.5t-14 4.5h-44l-9 26q26 26 62 43t64 17q27 0 32 -32l45 -312q9 -62 26 -88.5t50 -26.5q32 0 57 34.5z" />
    <glyph glyph-name="uni0524" unicode="&#x524;" horiz-adv-x="672" 
d="M604.5 58q31.5 -16 76.5 -16v-223l-35 -12l-6 24q-20 65 -36 99t-42 52t-70 18h-93l-13 34l22 6q27 8 40.5 17t19 26.5t5.5 49.5v452q0 32 -5.5 48t-19 22.5t-40.5 6.5h-169q-27 0 -40.5 -6.5t-18.5 -22.5t-5 -48v-452q0 -32 5.5 -49.5t18.5 -26.5t40 -17l24 -6l-12 -34
h-220l-13 16l13 18q25 34 35.5 70.5t10.5 96.5v316q0 59 -10.5 96.5t-35.5 70.5l-13 18l13 16h586l13 -16l-13 -18q-26 -33 -36 -70t-10 -97v-391q0 -15 1 -21h1q0 -31 31.5 -47z" />
    <glyph glyph-name="uni0525" unicode="&#x525;" horiz-adv-x="636" 
d="M598 39v-207l-33 -12l-4 22q-17 84 -48 121t-91 37h-78l-13 34l24 6q26 8 39 17t18.5 26.5t5.5 49.5v232q0 32 -5 48t-18.5 22.5t-39.5 6.5h-99q-27 0 -40.5 -6.5t-18.5 -22.5t-5 -48v-232q0 -32 5.5 -49.5t18.5 -26.5t40 -17l24 -6l-13 -34h-209l-13 16l13 18
q25 33 34.5 69.5t9.5 97.5v94q0 62 -9.5 99t-34.5 68l-13 20l13 15h495l13 -15l-13 -20q-25 -31 -34.5 -68t-9.5 -99v-169q0 -30 5 -46t17 -26q26 -15 67 -15z" />
    <glyph glyph-name="endash" unicode="&#x2013;" horiz-adv-x="779" 
d="M56.5 292q6.5 20 19.5 30l654 10q0 -21 -6 -40.5t-20 -29.5l-654 -10q0 20 6.5 40z" />
    <glyph glyph-name="emdash" unicode="&#x2014;" horiz-adv-x="910" 
d="M56.5 292q6.5 20 19.5 30l783 10q0 -21 -6 -40.5t-20 -29.5l-783 -10q0 20 6.5 40z" />
    <glyph glyph-name="quoteleft" unicode="&#x2018;" horiz-adv-x="225" 
d="M99 524q-29 0 -47 16t-18 51q0 28 20.5 58.5t61.5 74.5l39 42l29 -19l-46 -90q-12 -24 -12 -41q0 -20 23 -37l18 -12l5 -24l-17 -7q-31 -12 -56 -12z" />
    <glyph glyph-name="quoteright" unicode="&#x2019;" horiz-adv-x="225" 
d="M126 764q29 0 47 -16t18 -51q0 -28 -20.5 -58.5t-61.5 -74.5l-39 -42l-29 19l46 90q12 24 12 41q0 20 -23 37l-18 12l-5 24l17 7q31 12 56 12z" />
    <glyph glyph-name="quotesinglbase" unicode="&#x201a;" horiz-adv-x="191" 
d="M92 119q29 0 47 -16t18 -51q0 -28 -20.5 -58.5t-61.5 -74.5l-39 -42l-29 19l46 90q12 24 12 41q0 20 -23 37l-18 12l-5 24l17 7q31 12 56 12z" />
    <glyph glyph-name="quotedblleft" unicode="&#x201c;" horiz-adv-x="379" 
d="M99 524q-29 0 -47 16t-18 51q0 28 20.5 58.5t61.5 74.5l39 42l29 -19l-46 -90q-12 -24 -12 -41q0 -20 23 -37l18 -12l5 -24l-17 -7q-31 -12 -56 -12zM253 524q-29 0 -47 16t-18 51q0 28 20.5 58.5t61.5 74.5l39 42l29 -19l-46 -90q-12 -24 -12 -41q0 -20 23 -37l18 -12
l5 -24l-17 -7q-31 -12 -56 -12z" />
    <glyph glyph-name="quotedblright" unicode="&#x201d;" horiz-adv-x="379" 
d="M126 764q29 0 47 -16t18 -51q0 -28 -20.5 -58.5t-61.5 -74.5l-39 -42l-29 19l46 90q12 24 12 41q0 20 -23 37l-18 12l-5 24l17 7q31 12 56 12zM280 764q29 0 47 -16t18 -51q0 -28 -20.5 -58.5t-61.5 -74.5l-39 -42l-29 19l46 90q12 24 12 41q0 20 -23 37l-18 12l-5 24
l17 7q31 12 56 12z" />
    <glyph glyph-name="quotedblbase" unicode="&#x201e;" horiz-adv-x="345" 
d="M92 120q29 0 47 -16t18 -51q0 -28 -20.5 -58.5t-61.5 -74.5l-39 -42l-29 19l46 90q12 24 12 41q0 20 -23 37l-18 12l-5 24l17 7q31 12 56 12zM246 120q29 0 47 -16t18 -51q0 -28 -20.5 -58.5t-61.5 -74.5l-39 -42l-29 19l46 90q12 24 12 41q0 20 -23 37l-18 12l-5 24
l17 7q31 12 56 12z" />
    <glyph glyph-name="dagger" unicode="&#x2020;" horiz-adv-x="591" 
d="M66 653l92 -14q64 -8 96 -15q-6 103 -15 171q20 33 56 33q37 0 56 -33q-8 -51 -15 -171q32 7 96 15l92 14q21 -15 21 -50t-21 -50l-43 6q-107 15 -148 24q-4 -90 -11 -323q-6 -198 -11 -288.5t-16 -90.5q-10 0 -15 86.5t-11 276.5q-7 241 -12 339q-34 -8 -138 -22l-53 -8
q-21 15 -21 50t21 50z" />
    <glyph glyph-name="daggerdbl" unicode="&#x2021;" horiz-adv-x="591" 
d="M524 553q-43 6 -57 8q-114 17 -141 24l-15 -237l15 -234q28 9 120 21l78 12q21 -15 21 -50t-21 -50q-15 2 -33.5 4.5t-39.5 6.5q-91 12 -122 20q9 -119 22 -173q-19 -33 -56 -33q-36 0 -56 33q13 62 22 173q-30 -8 -119 -20l-76 -11q-21 15 -21 50t21 50q23 -4 43 -6.5
t36 -5.5q84 -12 118 -21l15 234l-15 237q-30 -9 -136 -23l-61 -9q-21 15 -21 50t21 50q84 -13 73 -11q93 -13 122 -20q-9 111 -22 173q20 33 56 33q37 0 56 -33q-15 -64 -22 -173q31 8 122 20q21 4 39.5 6.5t33.5 4.5q21 -15 21 -50t-21 -50z" />
    <glyph glyph-name="bullet" unicode="&#x2022;" horiz-adv-x="266" 
d="M63 341q14 21 33.5 36t34.5 15q16 0 36.5 -15t34.5 -36t14 -38t-14 -38t-34.5 -35.5t-36.5 -14.5q-15 0 -34.5 14.5t-33.5 35.5t-14 38t14 38z" />
    <glyph glyph-name="ellipsis" unicode="&#x2026;" horiz-adv-x="573" 
d="M54.5 93.5q21.5 23.5 39.5 23.5q19 0 41 -23t22 -43q0 -19 -22 -42t-41 -23q-17 0 -39 23t-22 42t21.5 42.5zM245.5 93.5q21.5 23.5 39.5 23.5q19 0 41 -23t22 -43q0 -19 -22 -42t-41 -23q-17 0 -39 23t-22 42t21.5 42.5zM436.5 93.5q21.5 23.5 39.5 23.5q19 0 41 -23
t22 -43q0 -19 -22 -42t-41 -23q-17 0 -39 23t-22 42t21.5 42.5z" />
    <glyph glyph-name="perthousand" unicode="&#x2030;" horiz-adv-x="1327" 
d="M255 0l299 718h72l-300 -718h-71zM37.5 621.5q22.5 51.5 65 81.5t98.5 30q82 0 127.5 -60t45.5 -153q0 -66 -22.5 -120.5t-65 -86.5t-100.5 -32q-88 0 -129.5 67t-41.5 160q0 62 22.5 113.5zM123 378q24 -50 71 -50q46 0 70.5 50.5t24.5 128.5t-24.5 128.5t-70.5 50.5
q-47 0 -71 -50.5t-24 -128.5q0 -79 24 -129zM561.5 326.5q22.5 51.5 65 81.5t98.5 30q82 0 127.5 -60t45.5 -153q0 -66 -22.5 -120.5t-65 -86.5t-100.5 -32q-88 0 -129.5 67t-41.5 160q0 62 22.5 113.5zM647 83q24 -50 71 -50q46 0 70.5 50.5t24.5 128.5t-24.5 128.5
t-70.5 50.5q-47 0 -71 -50.5t-24 -128.5q0 -79 24 -129zM965.5 326.5q22.5 51.5 65 81.5t98.5 30q82 0 127.5 -60t45.5 -153q0 -66 -22.5 -120.5t-65 -86.5t-100.5 -32q-88 0 -129.5 67t-41.5 160q0 62 22.5 113.5zM1051 83q24 -50 71 -50q46 0 70.5 50.5t24.5 128.5
t-24.5 128.5t-70.5 50.5q-47 0 -71 -50.5t-24 -128.5q0 -79 24 -129z" />
    <glyph glyph-name="guilsinglleft" unicode="&#x2039;" horiz-adv-x="297" 
d="M206.5 83q-20.5 -9 -45.5 -11q-67 109 -89 149t-22 58q0 17 22.5 58.5t88.5 148.5q25 -2 45.5 -11t40.5 -35q-14 -25 -48.5 -64.5t-88.5 -96.5q114 -120 137 -161q-20 -26 -40.5 -35z" />
    <glyph glyph-name="guilsinglright" unicode="&#x203a;" horiz-adv-x="297" 
d="M187 279q-54 57 -88.5 96.5t-48.5 64.5q20 26 40.5 35t45.5 11q66 -107 88.5 -148.5t22.5 -58.5q0 -18 -22 -58t-89 -149q-25 2 -45.5 11t-40.5 35q23 41 137 161z" />
    <glyph glyph-name="fraction" unicode="&#x2044;" horiz-adv-x="371" 
d="M0 0l299 718h72l-300 -718h-71z" />
    <glyph glyph-name="uni2074" unicode="&#x2074;" horiz-adv-x="395" 
d="M321 345q5 -15 16 -27l11 -13l-12 -17h-155l-12 31l34 9q18 5 24 13t6 32v10h-212l142 341h51l17 -15l-124 -275h126v74q0 18 -2.5 28.5t-11.5 24.5l12 14l82 9v-150h55q0 -35 -20 -51h-34q2 -23 7 -38z" />
    <glyph glyph-name="uni2080" unicode="&#x2080;" horiz-adv-x="446" 
d="M64.5 326.5q22.5 51.5 65 81.5t98.5 30q82 0 127.5 -60t45.5 -153q0 -66 -22.5 -120.5t-65 -86.5t-100.5 -32q-88 0 -129.5 67t-41.5 160q0 62 22.5 113.5zM150 83q24 -50 71 -50q46 0 70.5 50.5t24.5 128.5t-24.5 128.5t-70.5 50.5q-47 0 -71 -50.5t-24 -128.5
q0 -79 24 -129z" />
    <glyph glyph-name="uni2081" unicode="&#x2081;" horiz-adv-x="319" 
d="M213 68.5q5 -21.5 20 -38.5l11 -13l-13 -17h-155l-11 31l34 9q18 5 24 13t6 32v262l-59 -38q-18 4 -33 18.5t-23 32.5l175 80q22 -5 37 -31l-18 -11v-272q0 -36 5 -57.5z" />
    <glyph glyph-name="uni2082" unicode="&#x2082;" horiz-adv-x="388" 
d="M27 38q94 77 143 128t66.5 87.5t17.5 74.5q0 33 -19.5 51t-46.5 18t-47 -18t-20 -49q0 -11 4.5 -22t5.5 -13q7 -12 7 -19q0 -11 -22 -11q-32 0 -53 19.5t-21 49.5q0 53 43 81.5t104 28.5q72 0 113 -30.5t41 -86.5t-53.5 -119.5t-147.5 -139.5h213q0 -46 -26 -68h-283z
" />
    <glyph glyph-name="uni2083" unicode="&#x2083;" horiz-adv-x="388" 
d="M82.5 13q-43.5 27 -43.5 75q0 30 21.5 49.5t52.5 19.5q14 0 18.5 -2t4.5 -12q-1 -1 -3 -4.5t-3 -6.5q-1 -2 -6 -12.5t-5 -26.5q0 -26 19.5 -41.5t46.5 -15.5q31 0 53 20t22 57q0 31 -19 56.5t-70 25.5q-19 0 -39 -5q-2 -1 -9 -1q-19 0 -19 17q0 12 6.5 16.5t34.5 9.5
q61 12 82 37.5t21 56.5t-19 48t-45 17q-22 0 -38 -14t-16 -40q0 -21 11 -40l6 -11q0 -13 -22 -13q-32 0 -53 19t-21 49q0 46 39 71t95 25q60 0 104.5 -28.5t44.5 -80.5q0 -68 -76 -104q43 -15 65.5 -45.5t22.5 -69.5q0 -59 -42.5 -91t-117.5 -32q-60 0 -103.5 27z" />
    <glyph glyph-name="uni2084" unicode="&#x2084;" horiz-adv-x="395" 
d="M321 57q5 -15 16 -27l11 -13l-12 -17h-155l-12 31l34 9q18 5 24 13t6 32v10h-212l142 341h51l17 -15l-124 -275h126v74q0 18 -2.5 28.5t-11.5 24.5l12 14l82 9v-150h55q0 -35 -20 -51h-34q2 -23 7 -38z" />
    <glyph glyph-name="uni2085" unicode="&#x2085;" horiz-adv-x="388" 
d="M236 179q-24 28 -88 28q-19 0 -69 -10l-15 29l11 204h250q0 -19 -6 -37.5t-20 -29.5h-168l-6 -116q30 6 61 6q79 0 119.5 -40t40.5 -98q0 -60 -43 -94.5t-117 -34.5q-60 0 -103.5 27t-43.5 75q0 30 21.5 49.5t52.5 19.5q13 0 18 -2.5t5 -7.5q0 -3 -8.5 -18.5t-8.5 -35.5
q0 -26 19.5 -41.5t46.5 -15.5q31 0 53 21t22 58q0 36 -24 64z" />
    <glyph glyph-name="uni2086" unicode="&#x2086;" horiz-adv-x="418" 
d="M151 334.5q-25 -56.5 -25 -141.5q16 29 44.5 45t65.5 16q63 0 96 -35t33 -90q0 -62 -39.5 -102.5t-111.5 -40.5q-83 0 -128.5 59t-45.5 149q0 105 49.5 174.5t141.5 69.5q55 0 91 -24t36 -62q0 -33 -21 -54.5t-53 -21.5q-13 0 -18 3t-5 11q0 4 9 17t9 31q0 25 -14 39
t-36 14q-53 0 -78 -56.5zM165.5 176q-17.5 -25 -17.5 -60q0 -36 14.5 -58t43.5 -22q32 0 49.5 23.5t17.5 61.5q0 34 -15 57t-44 23q-31 0 -48.5 -25z" />
    <glyph glyph-name="uni2087" unicode="&#x2087;" horiz-adv-x="328" 
d="M180 63q0 -13 4.5 -27t11.5 -21l-19 -15h-121l-11 30l22 7q19 6 31 18t21 36l108 278h-194q-26 20 -26 67h310l-124 -314q-13 -35 -13 -59z" />
    <glyph glyph-name="uni2088" unicode="&#x2088;" horiz-adv-x="400" 
d="M280 222q40 -23 59 -50.5t19 -63.5q0 -55 -44.5 -88.5t-120.5 -33.5q-69 0 -112.5 28t-43.5 87q0 61 74 111q-32 19 -47.5 43.5t-15.5 60.5q0 52 37.5 89t108.5 37q69 0 111 -28t42 -86q0 -60 -67 -106zM148.5 376.5q-17.5 -18.5 -17.5 -43.5q0 -22 15.5 -37.5
t54.5 -35.5l28 -14q34 45 34 82q0 30 -18.5 48.5t-50.5 18.5q-28 0 -45.5 -18.5zM131.5 143q-9.5 -22 -9.5 -41q0 -31 19 -50.5t53 -19.5q35 0 56.5 16t21.5 45q0 27 -13.5 42t-44.5 29l-54 23q-19 -22 -28.5 -44z" />
    <glyph glyph-name="uni2089" unicode="&#x2089;" horiz-adv-x="418" 
d="M285 214q-37 -57 -107 -57q-59 0 -92.5 38t-33.5 91q0 38 18 73t53 57t84 22q57 0 93.5 -35.5t52.5 -89t16 -112.5q0 -95 -44.5 -155t-130.5 -60q-58 0 -95.5 25t-37.5 64q0 27 19.5 43.5t50.5 16.5q23 0 23 -13q0 -3 -7.5 -16.5t-7.5 -27.5q0 -21 15.5 -33t39.5 -12
q91 0 91 181zM252.5 364.5q-15.5 22.5 -41.5 22.5q-27 0 -46.5 -22.5t-19.5 -59.5q0 -47 15 -69.5t41 -22.5q28 0 47.5 22.5t19.5 60.5q0 46 -15.5 68.5z" />
    <glyph glyph-name="Euro" unicode="&#x20ac;" horiz-adv-x="617" 
d="M184 358q0 -42 2 -62h198q0 -19 -6 -36t-18 -27h-167q31 -191 164 -191q48 0 84 29t36 79q0 31 -11.5 52t-11.5 24q0 10 3.5 12t17.5 2q44 0 72 -27t28 -71q0 -50 -31 -85t-80.5 -53t-103.5 -18q-114 0 -182.5 66.5t-91.5 180.5h-93q0 46 23 63h62q-2 17 -2 53q0 31 1 46
h-84q0 46 23 63h69q24 124 98 199t191 75q61 0 103.5 -19.5t63.5 -50.5t21 -67q0 -43 -30 -74.5t-82 -31.5q-16 0 -16 10q0 3 12.5 16t21.5 31.5t9 47.5q0 35 -28 58.5t-75 23.5q-78 0 -122.5 -61t-60.5 -157h193q0 -19 -6 -36t-18 -27h-175q-1 -13 -1 -37z" />
    <glyph glyph-name="uni2116" unicode="&#x2116;" horiz-adv-x="1090" 
d="M784.5 685.5q44.5 46.5 120.5 46.5t120.5 -47t44.5 -126q0 -78 -44.5 -125t-120.5 -47t-120.5 47t-44.5 125q0 80 44.5 126.5zM191 201q0 -60 10 -97t35 -70l13 -18l-13 -16h-190l-12 34l23 6q38 11 51 29t13 64v452q0 46 -13 64t-51 29l-23 6l12 34h161l382 -567v434
q0 46 -13 64t-51 29l-23 6l12 34h190l13 -16l-13 -18q-25 -33 -35 -70t-10 -97v-429q0 -19 3 -31t11 -23l13 -18l-13 -16h-101l-381 565v-364zM848.5 468.5q23.5 -34.5 60.5 -34.5q35 0 55 32.5t20 87.5q0 59 -24 96t-61 37q-34 0 -54 -34.5t-20 -92.5q0 -57 23.5 -91.5z
M773 335h287q0 -45 -23 -63h-287q0 46 23 63z" />
    <glyph glyph-name="trademark" unicode="&#x2122;" horiz-adv-x="1082" 
d="M314 677v-344l59 -13q0 -23 -14 -36h-171v27l45 14q6 2 8 5.5t2 11.5v335h-89l-15 -73q-12 0 -23 4t-16 12v103l13 11q21 -10 33.5 -13t31.5 -3h200q18 0 31.5 3.5t33.5 12.5l12 -11v-103q-9 -16 -38 -16l-15 73h-88zM815 311l39 14q9 3 9 17v252l-121 -267h-39l-120 264
v-258l53 -13q0 -10 -4 -20t-12 -16h-139v27l39 14q10 3 10 17v327l-48 14q0 10 4 19.5t12 15.5h104l129 -293q23 49 67 147l66 146h118v-28l-38 -14q-10 -3 -10 -18v-325l48 -13q0 -10 -4 -20t-12 -16h-151v27z" />
    <glyph glyph-name="uni2126" unicode="&#x2126;" horiz-adv-x="762" 
d="M222 601.5q-55 -75.5 -55 -193.5q0 -82 37 -149.5t116 -106.5l-28 -152h-194v31l62 14q38 9 52.5 20.5t20.5 41.5l6 33q-89 43 -134 112.5t-45 155.5q0 91 36 164.5t108 116t177 42.5t177 -42.5t108 -116t36 -164.5q0 -86 -45 -155.5t-134 -112.5l6 -33q6 -30 20.5 -41.5
t52.5 -20.5l62 -14v-31h-194l-28 152q79 39 116 106.5t37 149.5q0 118 -55 193.5t-159 75.5t-159 -75.5z" />
    </font>
</defs>
</svg>
