<svg version="1.1" xmlns="http://www.w3.org/2000/svg" width="85" height="32" viewBox="0 0 85 32">
<path d="M5.943 24.995v-18.959h4.843v7.124h6.199v-7.124h4.843v18.959h-4.843v-7.58h-6.199v7.58h-4.843z"></path>
<path d="M38.636 12.391c-0.256-0.462-0.587-0.9-1-1.281-0.794-0.694-1.843-1.181-3.174-1.181-2.381 0-5.174 1.768-5.174 5.511 0 3.968 2.818 5.686 5.199 5.686 1.206 0 2.206-0.306 2.974-0.844 0.769-0.512 1.306-1.281 1.562-2.206h-5.661v-3.868h11.248c0.1 1.356-0.050 3.587-0.869 5.43-1.843 4.174-6.099 5.736-9.223 5.736-5.736 0-10.067-4.487-10.067-9.942 0-5.661 4.562-9.761 10.148-9.761 4.537 0 8.43 3.049 9.479 6.711h-5.443z"></path>
<path d="M51.315 18.103l-5.661-12.066h5.249l2.818 7.611 2.843-7.611h5.199l-5.611 12.066v6.892h-4.843v-6.892z"></path>
<path d="M63.713 6.036h6.967c1.95 0 3.512 0.437 4.587 1.281 1.1 0.819 1.693 2.075 1.693 3.687 0 1.462-0.669 2.943-2.206 3.818 3.049 1.075 3.124 3.612 3.124 4.405 0 1.512-0.587 3.174-1.743 4.124-1.743 1.462-2.999 1.637-6.199 1.637h-6.224v-18.953zM68.555 13.235h1.718c0.331 0 0.844 0 1.281-0.181 0.437-0.206 0.769-0.587 0.769-1.331 0-0.719-0.331-1.075-0.744-1.256s-0.925-0.181-1.306-0.181h-1.718v2.949zM68.555 20.746h2.281c0.306 0 0.925 0 1.437-0.231 0.537-0.231 0.975-0.694 0.975-1.587 0-0.819-0.412-1.231-0.925-1.437-0.487-0.206-1.1-0.206-1.487-0.206h-2.281v3.462z"></path>
</svg>