<?xml version="1.0" standalone="no"?>
<!DOCTYPE svg PUBLIC "-//W3C//DTD SVG 20010904//EN"
 "http://www.w3.org/TR/2001/REC-SVG-20010904/DTD/svg10.dtd">
<svg version="1.0" xmlns="http://www.w3.org/2000/svg"
 width="1200.000000pt" height="1200.000000pt" viewBox="0 0 1200.000000 1200.000000"
 preserveAspectRatio="xMidYMid meet">
<metadata>
Created by potrace 1.14, written by Peter Selinger 2001-2017
</metadata>
<g transform="translate(0.000000,1200.000000) scale(0.100000,-0.100000)"
fill="#000000" stroke="none">
<path d="M0 6000 l0 -6000 6000 0 6000 0 0 6000 0 6000 -6000 0 -6000 0 0
-6000z m8890 2180 l0 -1120 -690 0 -690 0 0 894 0 895 383 125 c210 69 517
171 682 226 165 55 303 100 308 100 4 0 7 -504 7 -1120z m-1840 -480 l0 -980
-695 0 -695 0 0 753 0 753 683 226 c375 125 688 227 695 227 9 1 12 -201 12
-979z m-1565 756 c266 -28 286 -34 85 -29 -654 19 -1296 -106 -1775 -344 -327
-163 -590 -382 -756 -631 -113 -169 -176 -313 -220 -502 -29 -125 -37 -381
-15 -527 50 -341 214 -689 485 -1033 106 -134 404 -430 544 -540 170 -134 336
-249 501 -349 1089 -654 2467 -926 3626 -715 583 106 1075 339 1401 664 246
245 393 531 440 859 17 119 6 378 -21 505 -40 187 -127 411 -234 597 -51 90
-7 37 91 -110 142 -212 270 -486 328 -704 47 -175 59 -262 59 -452 1 -207 -19
-331 -80 -506 -257 -740 -1061 -1249 -2204 -1398 -411 -54 -895 -56 -1340 -6
-1616 183 -3156 965 -3937 2000 -335 445 -511 938 -490 1371 20 398 179 751
471 1047 455 462 1201 749 2121 817 176 13 743 4 920 -14z m-325 -1211 l0
-805 -688 0 -689 0 -6 422 c-4 232 -7 492 -7 578 l0 156 683 226 c375 125 688
227 695 227 9 1 12 -166 12 -804z m-2941 -1950 c80 -161 191 -335 311 -485 98
-122 365 -393 495 -502 879 -734 2099 -1215 3415 -1345 215 -21 770 -24 960
-5 511 51 925 152 1258 308 51 23 90 39 87 33 -13 -20 -251 -170 -353 -223
-703 -359 -1680 -466 -2699 -296 -426 72 -831 185 -1243 347 -183 72 -546 246
-715 342 -151 87 -427 272 -560 376 -661 516 -1062 1148 -1100 1736 l-6 94 40
-120 c23 -66 72 -183 110 -260z"/>
</g>
</svg>
